<svg width="27" height="28" viewBox="0 0 27 28" fill="none" xmlns="http://www.w3.org/2000/svg">
<path d="M17.6077 16.8728C16.9518 16.3086 16.2142 15.8469 15.42 15.5033C15.3337 15.4618 15.2399 15.4381 15.1442 15.4335C15.0485 15.4289 14.9529 15.4436 14.863 15.4766C14.7731 15.5097 14.6908 15.5605 14.6209 15.6259C14.551 15.6914 14.4949 15.7702 14.456 15.8578C14.4171 15.9453 14.3962 16.0398 14.3946 16.1356C14.3929 16.2313 14.4104 16.3265 14.4462 16.4153C14.482 16.5042 14.5352 16.5849 14.6028 16.6528C14.6703 16.7207 14.7508 16.7744 14.8395 16.8106C15.5012 17.0953 16.1162 17.4784 16.6635 17.9468C16.9677 18.2149 17.2113 18.5447 17.3778 18.9143C17.5444 19.284 17.6302 19.6849 17.6295 20.0903V21.4133C17.6293 21.603 17.5539 21.7849 17.4197 21.9191C17.2856 22.0532 17.1037 22.1286 16.914 22.1288H2.89575C2.70605 22.1286 2.52417 22.0532 2.39003 21.9191C2.2559 21.7849 2.18045 21.603 2.18025 21.4133V20.0888C2.18 19.6831 2.26639 19.282 2.43362 18.9124C2.60086 18.5427 2.8451 18.213 3.15 17.9453C3.873 17.3101 5.97825 15.8333 9.90825 15.8333C11.1639 15.8344 12.3792 15.3896 13.3374 14.578C14.2956 13.7665 14.9344 12.6411 15.1401 11.4024C15.3457 10.1637 15.1048 8.89217 14.4602 7.81457C13.8156 6.73697 12.8093 5.92329 11.6206 5.51859C10.432 5.11389 9.13822 5.14447 7.97001 5.60488C6.80179 6.06529 5.83504 6.92561 5.2421 8.03246C4.64916 9.13932 4.46856 10.4208 4.73251 11.6484C4.99645 12.876 5.68778 13.97 6.68325 14.7353C5.03305 15.0576 3.49151 15.793 2.20275 16.8728C1.74602 17.2749 1.38022 17.7697 1.12972 18.3242C0.87922 18.8788 0.749772 19.4803 0.75 20.0888V21.4118C0.750596 21.9807 0.976857 22.5262 1.37913 22.9285C1.78141 23.3307 2.32684 23.557 2.89575 23.5576H16.9147C17.4837 23.557 18.0291 23.3307 18.4314 22.9285C18.8336 22.5262 19.0599 21.9807 19.0605 21.4118V20.0888C19.0607 19.4803 18.9313 18.8788 18.6808 18.3242C18.4303 17.7697 18.0645 17.2749 17.6077 16.8728ZM6.04275 10.5406C6.04275 9.77666 6.26928 9.02988 6.6937 8.3947C7.11812 7.75951 7.72136 7.26445 8.42714 6.9721C9.13291 6.67976 9.90953 6.60327 10.6588 6.7523C11.408 6.90134 12.0963 7.26921 12.6364 7.80939C13.1766 8.34957 13.5445 9.0378 13.6935 9.78705C13.8426 10.5363 13.7661 11.3129 13.4737 12.0187C13.1814 12.7245 12.6863 13.3277 12.0511 13.7521C11.416 14.1766 10.6692 14.4031 9.90525 14.4031C8.88122 14.4019 7.89947 13.9946 7.17537 13.2705C6.45126 12.5464 6.04394 11.5646 6.04275 10.5406Z" fill="white"/>
<mask id="mask0_1225_1872" style="mask-type:alpha" maskUnits="userSpaceOnUse" x="0" y="0" width="27" height="28">
<rect y="0.73584" width="27" height="27" fill="#D9D9D9"/>
</mask>
<g mask="url(#mask0_1225_1872)">
<path d="M23.6248 23.236H20.7561C20.9623 22.8985 21.117 22.5376 21.2201 22.1532C21.3232 21.7688 21.3748 21.3798 21.3748 20.986V19.861C21.3748 19.036 21.1451 18.2438 20.6857 17.4845C20.2264 16.7251 19.5748 16.0735 18.7311 15.5298C19.6873 15.6423 20.5873 15.8345 21.4311 16.1063C22.2748 16.3782 23.0623 16.711 23.7936 17.1048C24.4686 17.4798 24.9842 17.897 25.3404 18.3563C25.6967 18.8157 25.8748 19.3173 25.8748 19.861V20.986C25.8748 21.6048 25.6545 22.1345 25.2139 22.5751C24.7732 23.0157 24.2436 23.236 23.6248 23.236Z" fill="white"/>
</g>
<path d="M22.8316 8.06093C23.1733 9.25029 23.0424 10.3902 22.4389 11.4805C21.8353 12.5709 20.9388 13.287 19.7494 13.6287C19.5512 13.6857 19.2925 13.7357 18.9732 13.7787C18.6539 13.8217 18.3873 13.8446 18.1736 13.8475C18.4944 13.131 18.6845 12.3838 18.7438 11.6059C18.8032 10.828 18.7241 10.0607 18.5066 9.30378C18.2891 8.54691 17.9487 7.85462 17.4854 7.2269C17.0222 6.59919 16.4644 6.06691 15.8121 5.63007C16.0385 5.46746 16.274 5.3364 16.5185 5.23687C16.763 5.13733 17.0114 5.05132 17.2637 4.97882C18.4531 4.63703 19.593 4.76793 20.6833 5.37151C21.7737 5.97509 22.4898 6.87156 22.8316 8.06093Z" fill="white"/>
</svg>
