<svg width="28" height="28" viewBox="0 0 28 28" fill="none" xmlns="http://www.w3.org/2000/svg">
<mask id="mask0_1225_1883" style="mask-type:alpha" maskUnits="userSpaceOnUse" x="-1" y="1" width="25" height="24">
<path d="M-0.636841 1.57959L23.2368 2.98584L11.0158 23.6577L-0.636841 24.0796V1.57959Z" fill="#D9D9D9"/>
</mask>
<g mask="url(#mask0_1225_1883)">
<path d="M20.4765 15.8476C19.7433 15.2239 18.919 14.7136 18.0315 14.3339C17.935 14.2881 17.8302 14.2618 17.7233 14.2567C17.6164 14.2517 17.5095 14.2679 17.4091 14.3044C17.3086 14.3409 17.2166 14.3971 17.1384 14.4694C17.0603 14.5418 16.9976 14.6289 16.9542 14.7257C16.9108 14.8224 16.8874 14.9268 16.8855 15.0327C16.8836 15.1385 16.9032 15.2437 16.9432 15.3419C16.9832 15.4401 17.0427 15.5294 17.1182 15.6044C17.1937 15.6795 17.2837 15.7387 17.3828 15.7788C18.1223 16.0935 18.8095 16.5169 19.4212 17.0346C19.7612 17.3308 20.0333 17.6954 20.2195 18.1039C20.4057 18.5125 20.5016 18.9556 20.5008 19.4037V20.8659C20.5005 21.0756 20.4162 21.2766 20.2663 21.4249C20.1164 21.5731 19.9132 21.6565 19.7011 21.6567H11.8684H4.03485C3.82285 21.6565 3.61959 21.5731 3.46968 21.4249C3.31978 21.2766 3.23546 21.0756 3.23524 20.8659V19.402C3.23496 18.9536 3.3315 18.5103 3.5184 18.1017C3.7053 17.6932 3.97825 17.3288 4.319 17.0329C5.12699 16.3308 7.47975 14.6987 11.8718 14.6987C13.2751 14.6999 14.6332 14.2082 15.704 13.3113C16.7749 12.4143 17.4889 11.1705 17.7187 9.80137C17.9485 8.43229 17.6792 7.02698 16.9589 5.83597C16.2385 4.64495 15.1139 3.74564 13.7855 3.29835C12.4571 2.85106 11.0112 2.88486 9.70566 3.39372C8.4001 3.90259 7.3197 4.85345 6.65705 6.07679C5.9944 7.30014 5.79258 8.71646 6.08755 10.0733C6.38252 11.4301 7.15513 12.6392 8.26763 13.4851C6.42343 13.8412 4.70066 14.6541 3.26038 15.8476C2.74996 16.292 2.34115 16.8388 2.0612 17.4517C1.78125 18.0646 1.63659 18.7295 1.63684 19.402V20.8643C1.63751 21.493 1.89037 22.0959 2.33994 22.5405C2.78951 22.9851 3.39907 23.2352 4.03485 23.2358H11.8684H19.702C20.3378 23.2352 20.9473 22.9851 21.3969 22.5405C21.8465 22.0959 22.0993 21.493 22.1 20.8643V19.402C22.1003 18.7295 21.9556 18.0646 21.6756 17.4517C21.3957 16.8388 20.9869 16.292 20.4765 15.8476ZM7.55183 8.84888C7.55183 8.00455 7.80499 7.17918 8.27931 6.47715C8.75362 5.77511 9.42778 5.22795 10.2165 4.90483C11.0053 4.58172 11.8732 4.49718 12.7105 4.6619C13.5479 4.82662 14.317 5.23321 14.9207 5.83024C15.5244 6.42727 15.9355 7.18793 16.1021 8.01604C16.2686 8.84414 16.1831 9.7025 15.8564 10.4826C15.5297 11.2626 14.9765 11.9293 14.2666 12.3984C13.5567 12.8675 12.7222 13.1179 11.8684 13.1179C10.724 13.1166 9.62683 12.6664 8.8176 11.8661C8.00837 11.0658 7.55316 9.98069 7.55183 8.84888Z" fill="white"/>
</g>
<g clip-path="url(#clip0_1225_1883)">
<path d="M26.3414 18.7174L20.6428 13.164L20.62 13.1431C20.32 12.8818 19.931 12.7369 19.5275 12.7361C19.1239 12.7353 18.7343 12.8786 18.4331 13.1386L18.4104 13.1595L12.6604 18.7157C12.6072 18.7643 12.5646 18.8227 12.5351 18.8876C12.5057 18.9524 12.4899 19.0223 12.4888 19.0931C12.4877 19.1639 12.5013 19.2343 12.5288 19.2999C12.5563 19.3656 12.597 19.4252 12.6487 19.4754C12.7004 19.5255 12.762 19.5651 12.8297 19.5918C12.8975 19.6185 12.9701 19.6317 13.0433 19.6308C13.1164 19.6298 13.1886 19.6147 13.2556 19.5862C13.3226 19.5578 13.3831 19.5166 13.4334 19.4652L13.8674 19.0455V23.6178C13.868 24.1793 14.0986 24.7177 14.5087 25.1148C14.9188 25.5119 15.4749 25.7353 16.0549 25.7359H18.0236C18.1686 25.7359 18.3076 25.6801 18.4101 25.5808C18.5126 25.4816 18.5702 25.347 18.5702 25.2066V20.8908H20.4841V25.2066C20.484 25.2762 20.4981 25.3451 20.5256 25.4095C20.5531 25.4738 20.5934 25.5322 20.6442 25.5814C20.695 25.6306 20.7554 25.6696 20.8218 25.6962C20.8882 25.7228 20.9594 25.7365 21.0313 25.7364H22.9452C23.5252 25.7358 24.0812 25.5125 24.4913 25.1154C24.9014 24.7183 25.1321 24.1799 25.1327 23.6183C25.1281 23.4809 25.0684 23.3506 24.9664 23.2549C24.8643 23.1593 24.7278 23.1058 24.5858 23.1058C24.4438 23.1058 24.3073 23.1593 24.2053 23.2549C24.1032 23.3506 24.0436 23.4809 24.0389 23.6183C24.0386 23.8991 23.9233 24.1683 23.7182 24.3669C23.5132 24.5654 23.2352 24.6771 22.9452 24.6774H21.5784V20.3616C21.5784 20.2212 21.5209 20.0866 21.4184 19.9873C21.3158 19.8881 21.1768 19.8323 21.0319 19.8323H18.0236C17.9518 19.8323 17.8807 19.846 17.8143 19.8727C17.748 19.8993 17.6877 19.9383 17.6369 19.9875C17.5861 20.0367 17.5459 20.0951 17.5185 20.1594C17.491 20.2237 17.4769 20.2926 17.477 20.3621V24.6779H16.0549C15.7649 24.6776 15.4869 24.566 15.2818 24.3674C15.0768 24.1689 14.9614 23.8997 14.9611 23.6189V18.0051C14.9611 17.9998 14.9611 17.9946 14.9611 17.9893L19.171 13.9226C19.2699 13.8409 19.3957 13.796 19.5257 13.796C19.6557 13.796 19.7814 13.8409 19.8804 13.9226L24.0395 17.9763V20.9699C24.0442 21.1073 24.1038 21.2376 24.2059 21.3333C24.3079 21.4289 24.4444 21.4824 24.5864 21.4824C24.7284 21.4824 24.8649 21.4289 24.9669 21.3333C25.069 21.2376 25.1286 21.1073 25.1333 20.9699V19.0427L25.5655 19.464C25.6161 19.5134 25.6763 19.5526 25.7425 19.5794C25.8087 19.6062 25.8798 19.6201 25.9516 19.6204C26.0234 19.6206 26.0945 19.6072 26.161 19.5808C26.2274 19.5544 26.2878 19.5156 26.3387 19.4666C26.3897 19.4176 26.4302 19.3594 26.4579 19.2952C26.4856 19.2311 26.4999 19.1623 26.5002 19.0928C26.5004 19.0233 26.4865 18.9544 26.4593 18.8901C26.432 18.8257 26.392 18.7667 26.3414 18.7174Z" fill="white"/>
</g>
<defs>
<clipPath id="clip0_1225_1883">
<rect width="14" height="13" fill="white" transform="translate(12.5 12.7358)"/>
</clipPath>
</defs>
</svg>
