<svg width="29" height="28" viewBox="0 0 29 28" fill="none" xmlns="http://www.w3.org/2000/svg">
<path d="M22.3579 10.5796C21.1943 10.5796 20.0783 11.0419 19.2555 11.8647C18.4327 12.6875 17.9704 13.8035 17.9704 14.9671C17.9759 15.4485 18.0615 15.9256 18.2235 16.379L13.3579 21.41V23.9671H16.725L16.7509 23.9558L17.8579 22.8421V21.7171H18.9885L20.1079 20.5921V19.4671H21.2374L21.4467 19.2567C22.0486 19.386 22.6711 19.3872 23.2735 19.2602C23.8759 19.1331 24.4449 18.8807 24.9434 18.5193C25.4419 18.158 25.8587 17.6957 26.1668 17.1627C26.4749 16.6296 26.6674 16.0377 26.7317 15.4253C26.796 14.813 26.7307 14.194 26.54 13.6086C26.3494 13.0231 26.0377 12.4844 25.6252 12.0273C25.2126 11.5703 24.7085 11.2052 24.1456 10.9557C23.5827 10.7063 22.9736 10.5782 22.3579 10.5796ZM22.3579 18.3421C21.8832 18.3408 21.4141 18.2384 20.982 18.0417L20.676 18.3421H18.9829V20.5921H16.7329V22.4753L16.2739 22.8421H14.4829V21.8229L19.4543 16.658C19.149 16.1465 18.9863 15.5627 18.9829 14.9671C18.9829 14.2996 19.1808 13.6471 19.5517 13.0921C19.9225 12.537 20.4497 12.1045 21.0664 11.849C21.6831 11.5936 22.3617 11.5267 23.0163 11.657C23.671 11.7872 24.2724 12.1086 24.7444 12.5806C25.2164 13.0526 25.5378 13.654 25.6681 14.3087C25.7983 14.9634 25.7315 15.642 25.476 16.2587C25.2206 16.8754 24.788 17.4025 24.233 17.7733C23.6779 18.1442 23.0254 18.3421 22.3579 18.3421ZM22.9204 12.7171C22.5867 12.7171 22.2604 12.8161 21.9829 13.0015C21.7054 13.1869 21.4891 13.4505 21.3614 13.7588C21.2336 14.0672 21.2002 14.4065 21.2653 14.7338C21.3304 15.0612 21.4912 15.3618 21.7272 15.5978C21.9632 15.8338 22.2639 15.9946 22.5912 16.0597C22.9185 16.1248 23.2578 16.0914 23.5662 15.9636C23.8745 15.8359 24.1381 15.6196 24.3235 15.3421C24.5089 15.0646 24.6079 14.7384 24.6079 14.4046C24.6079 13.957 24.4301 13.5278 24.1137 13.2114C23.7972 12.8949 23.368 12.7171 22.9204 12.7171ZM22.9204 14.9671C22.8092 14.9671 22.7004 14.9341 22.6079 14.8723C22.5154 14.8105 22.4433 14.7226 22.4007 14.6199C22.3582 14.5171 22.347 14.404 22.3687 14.2949C22.3904 14.1857 22.444 14.0855 22.5227 14.0069C22.6013 13.9282 22.7016 13.8746 22.8107 13.8529C22.9198 13.8312 23.0329 13.8423 23.1357 13.8849C23.2385 13.9275 23.3263 13.9996 23.3881 14.0921C23.4499 14.1846 23.4829 14.2933 23.4829 14.4046C23.4826 14.5537 23.4233 14.6966 23.3178 14.802C23.2124 14.9074 23.0695 14.9668 22.9204 14.9671Z" fill="white"/>
<mask id="mask0_1225_1896" style="mask-type:alpha" maskUnits="userSpaceOnUse" x="0" y="1" width="24" height="24">
<path d="M0 1.57959L23.8737 2.98584L11.6526 23.6577L0 24.0796V1.57959Z" fill="#D9D9D9"/>
</mask>
<g mask="url(#mask0_1225_1896)">
<path d="M21.1133 15.8476C20.3802 15.2239 19.5559 14.7136 18.6683 14.3339C18.5719 14.2881 18.4671 14.2618 18.3601 14.2567C18.2532 14.2517 18.1464 14.2679 18.0459 14.3044C17.9454 14.3409 17.8534 14.3971 17.7753 14.4694C17.6971 14.5418 17.6345 14.6289 17.591 14.7257C17.5476 14.8224 17.5242 14.9268 17.5224 15.0327C17.5205 15.1385 17.5401 15.2437 17.5801 15.3419C17.62 15.4401 17.6795 15.5294 17.755 15.6044C17.8305 15.6795 17.9205 15.7387 18.0196 15.7788C18.7591 16.0935 19.4464 16.5169 20.058 17.0346C20.398 17.3308 20.6702 17.6954 20.8564 18.1039C21.0425 18.5125 21.1384 18.9556 21.1376 19.4037V20.8659C21.1374 21.0756 21.0531 21.2766 20.9032 21.4249C20.7533 21.5731 20.55 21.6565 20.338 21.6567H12.5053H4.6717C4.45969 21.6565 4.25644 21.5731 4.10653 21.4249C3.95662 21.2766 3.8723 21.0756 3.87208 20.8659V19.402C3.8718 18.9536 3.96834 18.5103 4.15524 18.1017C4.34214 17.6932 4.61509 17.3288 4.95584 17.0329C5.76383 16.3308 8.11659 14.6987 12.5086 14.6987C13.9119 14.6999 15.27 14.2082 16.3409 13.3113C17.4117 12.4143 18.1257 11.1705 18.3555 9.80137C18.5853 8.43229 18.3161 7.02698 17.5957 5.83597C16.8754 4.64495 15.7507 3.74564 14.4223 3.29835C13.0939 2.85106 11.6481 2.88486 10.3425 3.39372C9.03695 3.90259 7.95654 4.85345 7.29389 6.07679C6.63124 7.30014 6.42942 8.71646 6.72439 10.0733C7.01936 11.4301 7.79197 12.6392 8.90447 13.4851C7.06027 13.8412 5.3375 14.6541 3.89722 15.8476C3.3868 16.292 2.97799 16.8388 2.69804 17.4517C2.41809 18.0646 2.27343 18.7295 2.27368 19.402V20.8643C2.27435 21.493 2.52721 22.0959 2.97678 22.5405C3.42635 22.9851 4.03591 23.2352 4.6717 23.2358H12.5053H20.3388C20.9746 23.2352 21.5842 22.9851 22.0337 22.5405C22.4833 22.0959 22.7362 21.493 22.7368 20.8643V19.402C22.7371 18.7295 22.5924 18.0646 22.3125 17.4517C22.0325 16.8388 21.6237 16.292 21.1133 15.8476ZM8.18867 8.84888C8.18867 8.00455 8.44183 7.17918 8.91615 6.47715C9.39046 5.77511 10.0646 5.22795 10.8534 4.90483C11.6421 4.58172 12.51 4.49718 13.3474 4.6619C14.1847 4.82662 14.9539 5.23321 15.5576 5.83024C16.1612 6.42727 16.5724 7.18793 16.7389 8.01604C16.9055 8.84414 16.82 9.7025 16.4933 10.4826C16.1666 11.2626 15.6133 11.9293 14.9034 12.3984C14.1936 12.8675 13.359 13.1179 12.5053 13.1179C11.3608 13.1166 10.2637 12.6664 9.45444 11.8661C8.64521 11.0658 8.19 9.98069 8.18867 8.84888Z" fill="white"/>
</g>
</svg>
