<svg width="11" height="23" viewBox="0 0 11 23" fill="none" xmlns="http://www.w3.org/2000/svg">
<path d="M5.51259 22.0517C5.25552 22.0517 5.04031 21.9649 4.86698 21.7914C4.69345 21.6181 4.60669 21.4029 4.60669 21.1458V19.5245C3.67764 19.3619 2.86897 19.0327 2.18069 18.5371C1.49221 18.0417 0.940516 17.3526 0.525614 16.4699C0.423348 16.2579 0.422141 16.0326 0.521991 15.7941C0.621841 15.5555 0.796478 15.3852 1.0459 15.2831C1.25808 15.1933 1.48023 15.1964 1.71234 15.2922C1.94466 15.3882 2.11808 15.5486 2.23263 15.7732C2.58271 16.439 3.03304 16.9473 3.58363 17.2981C4.13401 17.6488 4.83427 17.8242 5.68441 17.8242C6.55629 17.8242 7.32559 17.6167 7.99234 17.2018C8.65888 16.7867 8.99215 16.1285 8.99215 15.2273C8.99215 14.4452 8.74172 13.8207 8.24085 13.3539C7.73979 12.887 6.70344 12.3997 5.13181 11.8917C3.48569 11.3714 2.34245 10.7628 1.70208 10.0661C1.06171 9.36912 0.741521 8.49261 0.741521 7.43653C0.741521 6.22102 1.1682 5.26439 2.02156 4.56665C2.87471 3.86911 3.73642 3.48158 4.60669 3.40408V1.81996C4.60669 1.56289 4.69345 1.34769 4.86698 1.17436C5.04031 1.00083 5.25552 0.914062 5.51259 0.914062C5.76966 0.914062 5.98486 1.00083 6.15819 1.17436C6.33172 1.34769 6.41849 1.56289 6.41849 1.81996V3.40408C7.16032 3.50171 7.81106 3.71742 8.3707 4.05119C8.93054 4.38476 9.3994 4.82332 9.77726 5.36686C9.91194 5.56656 9.94133 5.78488 9.86543 6.02182C9.78954 6.25877 9.62698 6.43219 9.37776 6.54211C9.16558 6.63975 8.94534 6.65062 8.71705 6.57472C8.48857 6.49883 8.2783 6.35479 8.08625 6.14261C7.80139 5.81447 7.45957 5.55549 7.06077 5.36565C6.66197 5.17601 6.16604 5.0812 5.57298 5.0812C4.66406 5.0812 3.93351 5.30264 3.38131 5.74552C2.82932 6.18841 2.55332 6.75208 2.55332 7.43653C2.55332 8.13951 2.83596 8.70167 3.40124 9.12302C3.96632 9.54416 5.01696 9.98543 6.55316 10.4468C7.98086 10.8805 9.0463 11.4984 9.74948 12.3006C10.4525 13.1026 10.8039 14.0658 10.8039 15.1901C10.8039 16.5109 10.3793 17.536 9.52995 18.2653C8.68062 18.9949 7.64346 19.427 6.41849 19.5617V21.1458C6.41849 21.4029 6.33172 21.6181 6.15819 21.7914C5.98486 21.9649 5.76966 22.0517 5.51259 22.0517Z" fill="#00A481"/>
</svg>
