<svg width="21" height="21" viewBox="0 0 21 21" fill="none" xmlns="http://www.w3.org/2000/svg">
<path d="M16.5449 20.1349C16.2027 20.1349 15.9158 20.0192 15.6843 19.7877C15.4528 19.5562 15.337 19.2693 15.337 18.9271V12.8877C15.337 12.5455 15.4528 12.2586 15.6843 12.0271C15.9158 11.7956 16.2027 11.6799 16.5449 11.6799H18.9606C19.3029 11.6799 19.5897 11.7956 19.8212 12.0271C20.0527 12.2586 20.1685 12.5455 20.1685 12.8877V18.9271C20.1685 19.2693 20.0527 19.5562 19.8212 19.7877C19.5897 20.0192 19.3029 20.1349 18.9606 20.1349H16.5449ZM9.29771 20.1349C8.95548 20.1349 8.66861 20.0192 8.4371 19.7877C8.2056 19.5562 8.08984 19.2693 8.08984 18.9271V2.01695C8.08984 1.67472 8.2056 1.38785 8.4371 1.15634C8.66861 0.924836 8.95548 0.809082 9.29771 0.809082H11.7134C12.0557 0.809082 12.3425 0.924836 12.574 1.15634C12.8055 1.38785 12.9213 1.67472 12.9213 2.01695V18.9271C12.9213 19.2693 12.8055 19.5562 12.574 19.7877C12.3425 20.0192 12.0557 20.1349 11.7134 20.1349H9.29771ZM2.05052 20.1349C1.70829 20.1349 1.42142 20.0192 1.18991 19.7877C0.958405 19.5562 0.842651 19.2693 0.842651 18.9271V8.05627C0.842651 7.71404 0.958405 7.42718 1.18991 7.19567C1.42142 6.96416 1.70829 6.84841 2.05052 6.84841H4.46625C4.80848 6.84841 5.09534 6.96416 5.32685 7.19567C5.55836 7.42718 5.67411 7.71404 5.67411 8.05627V18.9271C5.67411 19.2693 5.55836 19.5562 5.32685 19.7877C5.09534 20.0192 4.80848 20.1349 4.46625 20.1349H2.05052Z" fill="#00A481"/>
</svg>
