<svg width="151" height="235" viewBox="0 0 151 235" fill="none" xmlns="http://www.w3.org/2000/svg">
<mask id="mask0_54469_12146" style="mask-type:alpha" maskUnits="userSpaceOnUse" x="59" y="167" width="68" height="68">
<rect x="64.9705" y="167" width="61.5655" height="61.5655" transform="rotate(5.56483 64.9705 167)" fill="#D9D9D9"/>
</mask>
<g mask="url(#mask0_54469_12146)">
<path d="M91.8766 208.282C94.0042 208.49 95.8852 207.921 97.5196 206.577C99.1541 205.233 100.075 203.497 100.282 201.369C100.49 199.241 99.9211 197.36 98.5769 195.726C97.2326 194.092 95.4967 193.171 93.3691 192.963C91.2415 192.756 89.3605 193.325 87.726 194.669C86.0916 196.013 85.1707 197.749 84.9634 199.877C84.7561 202.004 85.3246 203.885 86.6688 205.52C88.013 207.154 89.749 208.075 91.8766 208.282ZM75.5627 217.002L106.2 219.987L106.269 219.285C106.327 218.689 106.253 218.124 106.048 217.588C105.842 217.053 105.498 216.611 105.017 216.264C103.06 214.741 100.957 213.516 98.7059 212.588C96.4552 211.66 94.0958 211.076 91.6278 210.835C89.1598 210.595 86.732 210.713 84.3445 211.189C81.957 211.665 79.6564 212.461 77.4429 213.577C76.9032 213.825 76.4809 214.192 76.1758 214.678C75.8707 215.164 75.6892 215.704 75.6311 216.3L75.5627 217.002ZM69.9589 221.611L72.944 190.973L94.8616 177.645L113.794 194.953L110.809 225.591L69.9589 221.611Z" fill="white"/>
</g>
<mask id="mask1_54469_12146" style="mask-type:alpha" maskUnits="userSpaceOnUse" x="82" y="0" width="67" height="67">
<rect x="102.798" width="50.5765" height="50.5765" transform="rotate(24.282 102.798 0)" fill="#D9D9D9"/>
</mask>
<g mask="url(#mask1_54469_12146)">
<path d="M88.4414 42.0725L90.1746 38.2306L128.593 55.5627L126.86 59.4045L88.4414 42.0725ZM92.9622 37.1763L99.0284 23.7298L104.791 26.3297L98.7249 39.7761L92.9622 37.1763ZM102.567 41.5093L112.966 18.4582L118.729 21.058L108.33 44.1091L102.567 41.5093ZM112.171 45.8423L119.971 28.554L125.734 31.1538L117.934 48.4421L112.171 45.8423ZM121.776 50.1754L134.775 21.3615L140.538 23.9613L127.539 52.7752L121.776 50.1754Z" fill="white"/>
</g>
<mask id="mask2_54469_12146" style="mask-type:alpha" maskUnits="userSpaceOnUse" x="0" y="68" width="86" height="86">
<rect y="100.959" width="61.9976" height="61.9976" transform="rotate(-32.1147 0 100.959)" fill="#D9D9D9"/>
</mask>
<g mask="url(#mask2_54469_12146)">
<path d="M30.3754 91.0433L65.7726 93.9878L65.3443 99.1365L59.5521 98.6547L72.5983 119.44L37.5909 141.413L24.5447 120.627L22.4603 126.053L17.6375 124.2L30.3754 91.0433ZM32.6297 117.23C33.8427 119.163 36.1752 120.571 39.627 121.454C43.0789 122.337 46.8614 123.14 50.9747 123.863C52.1125 119.844 53.0341 116.089 53.7394 112.596C54.4447 109.104 54.1908 106.391 52.9777 104.459C51.9706 102.854 50.5882 101.866 48.8305 101.495C47.0727 101.125 45.4281 101.42 43.8965 102.381C42.9484 102.976 42.2025 103.711 41.6588 104.586C41.1151 105.461 40.7643 106.38 40.6064 107.344C39.6703 107.067 38.6719 106.995 37.6111 107.127C36.5503 107.259 35.5823 107.6 34.7071 108.149C33.1755 109.11 32.1946 110.463 31.7644 112.207C31.3341 113.951 31.6226 115.626 32.6297 117.23Z" fill="white"/>
</g>
<mask id="mask3_54469_12146" style="mask-type:alpha" maskUnits="userSpaceOnUse" x="90" y="74" width="61" height="61">
<rect x="90" y="89.9121" width="47" height="47" transform="rotate(-19.7881 90 89.9121)" fill="#D9D9D9"/>
</mask>
<g mask="url(#mask3_54469_12146)">
<path d="M106.282 123.597L100.315 107.013L105.034 96.9905L106.877 96.3275L105.551 92.6421L109.236 91.3162L110.562 95.0016L127.146 89.0348L137.169 93.7536L143.136 110.338L106.282 123.597ZM130.754 110.63L138.125 107.978L134.031 96.5998L129.019 94.2404L126.66 99.2517L130.754 110.63ZM108.642 118.586L127.068 111.956L123.754 102.743L105.327 109.373L108.642 118.586Z" fill="white"/>
</g>
</svg>
