<svg width="17" height="21" viewBox="0 0 17 21" fill="none" xmlns="http://www.w3.org/2000/svg">
<path d="M1.97619 14.7117C2.2161 14.5477 2.47319 14.4257 2.74745 14.3458C3.02189 14.266 3.31359 14.2261 3.62255 14.2261H4.29314V2.19372H3.82574C3.31755 2.19372 2.88229 2.37498 2.51996 2.73749C2.15745 3.09982 1.97619 3.53508 1.97619 4.04327V14.7117ZM5.87847 14.2261H14.6588V2.51898C14.6588 2.42403 14.6283 2.34609 14.5674 2.28514C14.5064 2.2242 14.4285 2.19372 14.3335 2.19372H5.87847V14.2261ZM3.62255 20.6892C2.72966 20.6892 1.96783 20.3738 1.33704 19.743C0.70626 19.1122 0.390869 18.3504 0.390869 17.4575V4.04327C0.390869 3.08943 0.724844 2.27845 1.39279 1.61032C2.06092 0.942373 2.8719 0.608398 3.82574 0.608398H14.3335C14.8606 0.608398 15.3108 0.795026 15.6842 1.16828C16.0575 1.54171 16.2441 1.99195 16.2441 2.51898V15.3498C16.2441 15.4771 16.1953 15.5913 16.0977 15.6922C16.0001 15.7932 15.8423 15.8904 15.6242 15.9839C15.3167 16.0937 15.0687 16.28 14.8802 16.543C14.6919 16.8058 14.5977 17.1106 14.5977 17.4575C14.5977 17.7976 14.6902 18.1018 14.8752 18.3701C15.0601 18.6384 15.3064 18.8253 15.6139 18.931C15.8132 19.0096 15.968 19.1193 16.0784 19.2603C16.1889 19.4012 16.2441 19.5536 16.2441 19.7176V19.8801C16.2441 20.1051 16.1682 20.2962 16.0163 20.4535C15.8647 20.6106 15.6764 20.6892 15.4514 20.6892H3.62255ZM3.62255 19.1038H13.4983C13.3451 18.8639 13.2258 18.6096 13.1406 18.3408C13.0551 18.0718 13.0124 17.7774 13.0124 17.4575C13.0124 17.1554 13.0524 16.8654 13.1324 16.5877C13.2123 16.3099 13.3343 16.051 13.4983 15.8111H3.62255C3.151 15.8111 2.75872 15.972 2.44571 16.2938C2.1327 16.6157 1.97619 17.0035 1.97619 17.4575C1.97619 17.929 2.1327 18.3213 2.44571 18.6343C2.75872 18.9473 3.151 19.1038 3.62255 19.1038Z" fill="#00A481"/>
</svg>
