<svg width="17" height="17" viewBox="0 0 17 17" fill="none" xmlns="http://www.w3.org/2000/svg">
<mask id="mask0_1045_55873" style="mask-type:alpha" maskUnits="userSpaceOnUse" x="0" y="0" width="17" height="17">
<rect x="0.599121" y="0.980469" width="15.871" height="15.871" fill="#D9D9D9"/>
</mask>
<g mask="url(#mask0_1045_55873)">
<path d="M7.60922 10.1079L6.18744 8.68614C6.06621 8.5649 5.9119 8.50428 5.72454 8.50428C5.53717 8.50428 5.38287 8.5649 5.26164 8.68614C5.1404 8.80738 5.07978 8.96168 5.07978 9.14904C5.07978 9.33641 5.1404 9.49071 5.26164 9.61195L7.14631 11.4966C7.27857 11.6289 7.43287 11.695 7.60922 11.695C7.78556 11.695 7.93986 11.6289 8.07212 11.4966L11.8084 7.76033C11.9296 7.6391 11.9903 7.4848 11.9903 7.29743C11.9903 7.11006 11.9296 6.95576 11.8084 6.83453C11.6872 6.71329 11.5329 6.65267 11.3455 6.65267C11.1581 6.65267 11.0038 6.71329 10.8826 6.83453L7.60922 10.1079ZM8.53502 15.5305C7.62024 15.5305 6.76056 15.3569 5.95599 15.0097C5.15142 14.6626 4.45155 14.1914 3.85639 13.5962C3.26123 13.0011 2.79006 12.3012 2.44289 11.4966C2.09571 10.6921 1.92212 9.83238 1.92212 8.91759C1.92212 8.00281 2.09571 7.14313 2.44289 6.33856C2.79006 5.53399 3.26123 4.83412 3.85639 4.23896C4.45155 3.6438 5.15142 3.17263 5.95599 2.82545C6.76056 2.47828 7.62024 2.30469 8.53502 2.30469C9.44981 2.30469 10.3095 2.47828 11.1141 2.82545C11.9186 3.17263 12.6185 3.6438 13.2137 4.23896C13.8088 4.83412 14.28 5.53399 14.6272 6.33856C14.9743 7.14313 15.1479 8.00281 15.1479 8.91759C15.1479 9.83238 14.9743 10.6921 14.6272 11.4966C14.28 12.3012 13.8088 13.0011 13.2137 13.5962C12.6185 14.1914 11.9186 14.6626 11.1141 15.0097C10.3095 15.3569 9.44981 15.5305 8.53502 15.5305ZM8.53502 14.2079C10.0119 14.2079 11.2628 13.6954 12.2878 12.6704C13.3128 11.6454 13.8253 10.3945 13.8253 8.91759C13.8253 7.44071 13.3128 6.18977 12.2878 5.16477C11.2628 4.13977 10.0119 3.62727 8.53502 3.62727C7.05814 3.62727 5.8072 4.13977 4.7822 5.16477C3.7572 6.18977 3.2447 7.44071 3.2447 8.91759C3.2447 10.3945 3.7572 11.6454 4.7822 12.6704C5.8072 13.6954 7.05814 14.2079 8.53502 14.2079Z" fill="#00A481"/>
</g>
</svg>
