<svg width="151" height="235" viewBox="0 0 151 235" fill="none" xmlns="http://www.w3.org/2000/svg">
<mask id="mask0_54469_12218" style="mask-type:alpha" maskUnits="userSpaceOnUse" x="59" y="167" width="68" height="68">
<rect x="64.9705" y="167" width="61.5655" height="61.5655" transform="rotate(5.56483 64.9705 167)" fill="#D9D9D9"/>
</mask>
<g mask="url(#mask0_54469_12218)">
<path d="M91.8766 208.282C94.0042 208.49 95.8853 207.921 97.5197 206.577C99.1541 205.233 100.075 203.497 100.282 201.369C100.49 199.241 99.9211 197.36 98.5769 195.726C97.2327 194.092 95.4968 193.171 93.3692 192.963C91.2415 192.756 89.3605 193.325 87.7261 194.669C86.0916 196.013 85.1708 197.749 84.9635 199.877C84.7562 202.004 85.3246 203.885 86.6689 205.52C88.0131 207.154 89.749 208.075 91.8766 208.282ZM75.5628 217.002L106.2 219.987L106.269 219.285C106.327 218.689 106.253 218.124 106.048 217.588C105.842 217.053 105.498 216.611 105.017 216.264C103.06 214.741 100.957 213.516 98.706 212.588C96.4553 211.66 94.0959 211.076 91.6279 210.835C89.1598 210.595 86.7321 210.713 84.3446 211.189C81.9571 211.665 79.6565 212.461 77.4429 213.577C76.9033 213.825 76.4809 214.192 76.1758 214.678C75.8708 215.164 75.6892 215.704 75.6312 216.3L75.5628 217.002ZM69.959 221.611L72.9441 190.973L94.8617 177.645L113.794 194.953L110.809 225.591L69.959 221.611Z" fill="#12735E"/>
</g>
<mask id="mask1_54469_12218" style="mask-type:alpha" maskUnits="userSpaceOnUse" x="81" y="0" width="68" height="67">
<rect x="102.798" width="50.5765" height="50.5765" transform="rotate(24.282 102.798 0)" fill="#D9D9D9"/>
</mask>
<g mask="url(#mask1_54469_12218)">
<path d="M88.4416 42.0725L90.1748 38.2306L128.593 55.5627L126.86 59.4045L88.4416 42.0725ZM92.9623 37.1763L99.0285 23.7298L104.791 26.3297L98.7251 39.7761L92.9623 37.1763ZM102.567 41.5093L112.966 18.4582L118.729 21.058L108.33 44.1091L102.567 41.5093ZM112.172 45.8423L119.971 28.554L125.734 31.1538L117.934 48.4421L112.172 45.8423ZM121.776 50.1754L134.775 21.3615L140.538 23.9613L127.539 52.7752L121.776 50.1754Z" fill="#12735E"/>
</g>
<mask id="mask2_54469_12218" style="mask-type:alpha" maskUnits="userSpaceOnUse" x="0" y="68" width="86" height="86">
<rect x="-6.10352e-05" y="100.959" width="61.9976" height="61.9976" transform="rotate(-32.1147 -6.10352e-05 100.959)" fill="#D9D9D9"/>
</mask>
<g mask="url(#mask2_54469_12218)">
<path d="M30.3753 91.0433L65.7724 93.9878L65.3441 99.1365L59.5519 98.6547L72.5981 119.44L37.5907 141.413L24.5445 120.627L22.4601 126.053L17.6373 124.2L30.3753 91.0433ZM32.6295 117.23C33.8425 119.163 36.175 120.571 39.6268 121.454C43.0787 122.337 46.8613 123.14 50.9745 123.863C52.1124 119.844 53.0339 116.089 53.7392 112.596C54.4445 109.104 54.1906 106.391 52.9775 104.459C51.9704 102.854 50.588 101.866 48.8303 101.495C47.0726 101.125 45.4279 101.42 43.8963 102.381C42.9482 102.976 42.2023 103.711 41.6586 104.586C41.1149 105.461 40.7641 106.38 40.6062 107.344C39.6701 107.067 38.6717 106.995 37.6109 107.127C36.5501 107.259 35.5821 107.6 34.7069 108.149C33.1753 109.11 32.1944 110.463 31.7642 112.207C31.334 113.951 31.6224 115.626 32.6295 117.23Z" fill="#12735E"/>
</g>
<mask id="mask3_54469_12218" style="mask-type:alpha" maskUnits="userSpaceOnUse" x="90" y="74" width="61" height="61">
<rect x="90" y="89.9121" width="47" height="47" transform="rotate(-19.7881 90 89.9121)" fill="#D9D9D9"/>
</mask>
<g mask="url(#mask3_54469_12218)">
<path d="M106.282 123.597L100.315 107.013L105.034 96.9905L106.877 96.3275L105.551 92.6421L109.236 91.3162L110.562 95.0016L127.146 89.0348L137.169 93.7536L143.136 110.338L106.282 123.597ZM130.754 110.63L138.125 107.978L134.031 96.5998L129.019 94.2404L126.66 99.2517L130.754 110.63ZM108.642 118.586L127.068 111.956L123.754 102.743L105.327 109.373L108.642 118.586Z" fill="#12735E"/>
</g>
</svg>
