<svg width="21" height="22" viewBox="0 0 21 22" fill="none" xmlns="http://www.w3.org/2000/svg">
<path d="M9.29773 12.31C9.59346 12.31 9.8455 12.206 10.0539 11.9978C10.262 11.7894 10.3661 11.5374 10.3661 11.2417C10.3661 10.9459 10.262 10.6939 10.0539 10.4855C9.8455 10.2774 9.59346 10.1733 9.29773 10.1733C9.002 10.1733 8.74996 10.2774 8.5416 10.4855C8.33345 10.6939 8.22937 10.9459 8.22937 11.2417C8.22937 11.5374 8.33345 11.7894 8.5416 11.9978C8.74996 12.206 9.002 12.31 9.29773 12.31ZM4.46627 21.5085V19.6967L11.9807 18.6978C12.0735 18.6902 12.1528 18.6515 12.2186 18.5819C12.2845 18.5122 12.3174 18.4309 12.3174 18.3379V4.7959C12.3174 4.41643 12.1978 4.08265 11.9587 3.79458C11.7193 3.5067 11.4201 3.34264 11.0609 3.30237L4.83799 2.48465V0.672852L11.3185 1.52772C12.1346 1.64991 12.8071 2.0161 13.3359 2.62627C13.8648 3.23644 14.1292 3.94959 14.1292 4.7657V18.3007C14.1292 18.838 13.9495 19.3119 13.5902 19.7224C13.231 20.1327 12.7828 20.3766 12.2455 20.4541L4.46627 21.5085ZM4.46627 19.6967H16.5449V2.85637C16.5449 2.74786 16.5101 2.65878 16.4404 2.58913C16.3708 2.51948 16.2817 2.48465 16.1732 2.48465H4.83799C4.72948 2.48465 4.6404 2.51948 4.57075 2.58913C4.5011 2.65878 4.46627 2.74786 4.46627 2.85637V19.6967ZM1.42335 21.5085C1.16628 21.5085 0.95108 21.4218 0.777751 21.2482C0.604221 21.0749 0.517456 20.8597 0.517456 20.6026C0.517456 20.3456 0.604221 20.1304 0.777751 19.957C0.95108 19.7835 1.16628 19.6967 1.42335 19.6967H2.65447V2.85637C2.65447 2.25405 2.86776 1.7395 3.29434 1.31272C3.72112 0.88614 4.23567 0.672852 4.83799 0.672852H16.1732C16.7755 0.672852 17.2901 0.88614 17.7169 1.31272C18.1434 1.7395 18.3567 2.25405 18.3567 2.85637V19.6967H19.5878C19.8449 19.6967 20.0601 19.7835 20.2334 19.957C20.407 20.1304 20.4937 20.3456 20.4937 20.6026C20.4937 20.8597 20.407 21.0749 20.2334 21.2482C20.0601 21.4218 19.8449 21.5085 19.5878 21.5085H1.42335Z" fill="#00A481"/>
</svg>
