<svg width="85" height="76" viewBox="0 0 85 76" fill="none" xmlns="http://www.w3.org/2000/svg">
<path d="M78.136 73.7754V11.0004C78.136 10.8316 77.9672 10.6629 77.7985 10.8316L62.4422 17.4129C62.2735 17.4129 62.2735 17.5816 62.2735 17.5816V73.7754" stroke="#00A481" stroke-width="3" stroke-miterlimit="10"/>
<path d="M77.6299 23.9922H62.2736" stroke="#00A481" stroke-width="3" stroke-miterlimit="10"/>
<path d="M71.2173 23.9922V73.7734" stroke="#00A481" stroke-width="3" stroke-miterlimit="10"/>
<path d="M62.2737 33.6133H44.0487C43.8799 33.6133 43.7112 33.782 43.7112 33.9508V73.9445" stroke="#00A481" stroke-width="3" stroke-miterlimit="10"/>
<path d="M59.0674 41.543H50.1236" stroke="#00A481" stroke-width="3" stroke-miterlimit="10"/>
<path d="M59.0674 48.293H50.1236" stroke="#00A481" stroke-width="3" stroke-miterlimit="10"/>
<path d="M59.0674 55.2109H50.1236" stroke="#00A481" stroke-width="3" stroke-miterlimit="10"/>
<path d="M59.4048 61.625H50.1235" stroke="#00A481" stroke-width="3" stroke-miterlimit="10"/>
<path d="M59.4048 68.543H50.1235" stroke="#00A481" stroke-width="3" stroke-miterlimit="10"/>
<path d="M25.4861 33.6117V22.3055H16.8799C16.5424 22.3055 16.3736 21.968 16.7111 21.7992L36.2861 2.22422C36.4549 2.05547 36.6236 2.05547 36.7924 2.22422L56.3674 21.7992C56.5361 21.968 56.3674 22.3055 56.1986 22.3055H47.5924V29.5617" stroke="#00A481" stroke-width="3" stroke-miterlimit="10"/>
<path d="M8.61114 73.7742V51.668H1.86114C1.69239 51.668 1.52363 51.3305 1.69238 51.1617L16.8799 35.9742C17.0486 35.8055 17.2174 35.8055 17.2174 35.9742L21.0986 39.8555" stroke="#00A481" stroke-width="3" stroke-miterlimit="10"/>
<path d="M25.4861 73.7727V35.9727" stroke="#00A481" stroke-width="3" stroke-miterlimit="10" stroke-dasharray="1.99 1.99"/>
<path d="M84.5486 73.7734H0.511079" stroke="#00A481" stroke-width="3" stroke-miterlimit="10"/>
</svg>
