<svg width="23" height="19" viewBox="0 0 23 19" fill="none" xmlns="http://www.w3.org/2000/svg">
<path d="M11.7134 14.976C11.8398 14.976 11.9577 14.9564 12.0669 14.9173C12.1762 14.8784 12.279 14.8163 12.3756 14.731C12.8952 14.2597 13.3888 13.7977 13.8564 13.3451C14.3242 12.8922 14.7334 12.4486 15.0841 12.0142C15.4347 11.5798 15.7157 11.1558 15.9272 10.742C16.1387 10.3283 16.2444 9.92832 16.2444 9.54209C16.2444 8.8296 16.0013 8.23771 15.515 7.7664C15.029 7.2951 14.4446 7.05945 13.7618 7.05945C13.3388 7.05945 12.9538 7.14572 12.6067 7.31826C12.2596 7.49062 11.9618 7.71243 11.7134 7.98369C11.4793 7.71243 11.1812 7.49062 10.8191 7.31826C10.4572 7.14572 10.0797 7.05945 9.68642 7.05945C9.00364 7.05945 8.41913 7.2951 7.93288 7.7664C7.44681 8.23771 7.20378 8.8296 7.20378 9.54209C7.20378 9.92832 7.30776 10.3283 7.51573 10.742C7.72371 11.1558 8.003 11.5798 8.35362 12.0142C8.70423 12.4486 9.11335 12.8922 9.58096 13.3451C10.0488 13.7977 10.5389 14.2597 11.0513 14.731C11.1478 14.8163 11.2507 14.8784 11.36 14.9173C11.4692 14.9564 11.587 14.976 11.7134 14.976ZM5.41093 18.6638C4.8588 18.6638 4.38713 18.4683 3.99592 18.0773C3.60489 17.6861 3.40937 17.2144 3.40937 16.6623V8.41135L2.00404 9.50389C1.80954 9.6458 1.6037 9.70181 1.3865 9.67191C1.16949 9.6422 0.989933 9.5301 0.847841 9.3356C0.705934 9.1411 0.650942 8.93525 0.682867 8.71805C0.714791 8.50085 0.822375 8.3213 1.00562 8.17939L10.485 0.908068C10.6666 0.774649 10.8621 0.674539 11.0715 0.607738C11.2808 0.541121 11.4948 0.507812 11.7134 0.507812C11.9321 0.507812 12.1443 0.541121 12.3501 0.607738C12.5558 0.674539 12.7496 0.774649 12.9314 0.908068L22.4384 8.17939C22.6215 8.3213 22.7262 8.50085 22.7526 8.71805C22.7788 8.93525 22.721 9.1411 22.579 9.3356C22.437 9.51865 22.2574 9.62513 22.0404 9.65503C21.8232 9.68474 21.623 9.62864 21.4397 9.48673L20.0175 8.41135V16.6623C20.0175 17.2144 19.822 17.6861 19.431 18.0773C19.0398 18.4683 18.5681 18.6638 18.016 18.6638H5.41093ZM5.41093 17.003H18.016C18.1154 17.003 18.1971 16.9711 18.2609 16.9073C18.3248 16.8434 18.3567 16.7617 18.3567 16.6623V7.14886L11.9158 2.24309C11.8589 2.19345 11.7915 2.16863 11.7134 2.16863C11.6354 2.16863 11.5679 2.19345 11.5111 2.24309L5.07019 7.14886V16.6623C5.07019 16.7617 5.10211 16.8434 5.16596 16.9073C5.22981 16.9711 5.31146 17.003 5.41093 17.003ZM5.41093 17.003H5.07019H18.3567H5.41093Z" fill="#00A481"/>
</svg>
