<svg width="35" height="34" viewBox="0 0 35 34" fill="none" xmlns="http://www.w3.org/2000/svg">
<path d="M31.3913 14.2254H30.2502V14.1666H17.5002V19.8333H25.5065C24.3384 23.132 21.1998 25.5 17.5002 25.5C12.806 25.5 9.00016 21.6941 9.00016 17C9.00016 12.3059 12.806 8.49998 17.5002 8.49998C19.667 8.49998 21.6382 9.3174 23.1392 10.6526L27.1462 6.64556C24.6161 4.28752 21.2317 2.83331 17.5002 2.83331C9.67662 2.83331 3.3335 9.17644 3.3335 17C3.3335 24.8235 9.67662 31.1666 17.5002 31.1666C25.3237 31.1666 31.6668 24.8235 31.6668 17C31.6668 16.0501 31.5691 15.1229 31.3913 14.2254Z" fill="#FFC107"/>
<path d="M4.9668 10.4061L9.62125 13.8196C10.8807 10.7015 13.9308 8.49998 17.5 8.49998C19.6668 8.49998 21.6381 9.3174 23.1391 10.6526L27.1461 6.64556C24.616 4.28752 21.2315 2.83331 17.5 2.83331C12.0586 2.83331 7.33971 5.90535 4.9668 10.4061Z" fill="#FF3D00"/>
<path d="M17.5001 31.1667C21.1593 31.1667 24.4842 29.7663 26.9981 27.489L22.6135 23.7787C21.1434 24.8968 19.347 25.5015 17.5001 25.5C13.8153 25.5 10.6866 23.1505 9.50793 19.8716L4.88818 23.431C7.23277 28.0188 11.9942 31.1667 17.5001 31.1667Z" fill="#4CAF50"/>
<path d="M31.3911 14.2255H30.25V14.1667H17.5V19.8334H25.5063C24.9476 21.4033 23.9411 22.7752 22.6113 23.7795L22.6135 23.7781L26.998 27.4883C26.6878 27.7702 31.6667 24.0834 31.6667 17C31.6667 16.0501 31.5689 15.1229 31.3911 14.2255Z" fill="#1976D2"/>
</svg>
