<svg width="27" height="21" viewBox="0 0 27 21" fill="none" xmlns="http://www.w3.org/2000/svg">
<path d="M26.1882 2.41106V18.5777C26.1882 19.1782 25.9744 19.6923 25.5468 20.1199C25.1192 20.5475 24.6052 20.7612 24.0046 20.7612H19.8469C19.5902 20.7612 19.375 20.6744 19.2013 20.5007C19.0277 20.3269 18.941 20.1117 18.941 19.855C18.941 19.5982 19.0277 19.3831 19.2013 19.2097C19.375 19.0362 19.5902 18.9494 19.8469 18.9494H24.0046C24.1132 18.9494 24.2022 18.9146 24.2719 18.845C24.3415 18.7753 24.3764 18.6862 24.3764 18.5777V2.41106C24.3764 2.30255 24.3415 2.21347 24.2719 2.14382C24.2022 2.07416 24.1132 2.03934 24.0046 2.03934H13.5056C13.3971 2.03934 13.308 2.07416 13.2383 2.14382C13.1687 2.21347 13.1339 2.30255 13.1339 2.41106V3.42144C13.1339 3.67811 13.047 3.89331 12.8733 4.06704C12.6995 4.24057 12.4843 4.32734 12.2277 4.32734C11.9708 4.32734 11.7557 4.24057 11.5824 4.06704C11.4088 3.89331 11.3221 3.67811 11.3221 3.42144V2.37392C11.3221 1.78689 11.533 1.28241 11.955 0.860461C12.3769 0.438514 12.8814 0.227539 13.4684 0.227539H24.0046C24.6052 0.227539 25.1192 0.441331 25.5468 0.868915C25.9744 1.2965 26.1882 1.81055 26.1882 2.41106ZM0.822998 10.7103C0.822998 10.3542 0.903925 10.0186 1.06578 9.70354C1.22763 9.38829 1.45411 9.13162 1.7452 8.93353L7.41281 4.89413C7.61372 4.74958 7.81915 4.64571 8.02912 4.5825C8.23909 4.51928 8.45369 4.48768 8.67291 4.48768C8.89214 4.48768 9.10704 4.51928 9.31761 4.5825C9.52798 4.64571 9.73392 4.74958 9.93543 4.89413L15.603 8.93353C15.8941 9.13162 16.1206 9.38829 16.2825 9.70354C16.4443 10.0186 16.5252 10.3542 16.5252 10.7103V18.5777C16.5252 19.1782 16.3115 19.6923 15.8839 20.1199C15.4563 20.5475 14.9422 20.7612 14.3417 20.7612H12.228C11.6277 20.7612 11.1137 20.5475 10.6861 20.1199C10.2585 19.6923 10.0447 19.1782 10.0447 18.5777V15.0239H7.3035V18.5777C7.3035 19.1782 7.0897 19.6923 6.66212 20.1199C6.23454 20.5475 5.72059 20.7612 5.12028 20.7612H3.00652C2.40601 20.7612 1.89196 20.5475 1.46437 20.1199C1.03679 19.6923 0.822998 19.1782 0.822998 18.5777V10.7103ZM2.6348 10.6919V18.5777C2.6348 18.6862 2.66962 18.7753 2.73928 18.845C2.80893 18.9146 2.89801 18.9494 3.00652 18.9494H5.12028C5.22859 18.9494 5.31756 18.9146 5.38722 18.845C5.45707 18.7753 5.492 18.6862 5.492 18.5777V15.0471C5.492 14.5376 5.67046 14.1044 6.02739 13.7475C6.38431 13.3906 6.81743 13.2121 7.32675 13.2121H10.0215C10.5308 13.2121 10.9639 13.3906 11.3209 13.7475C11.6778 14.1044 11.8562 14.5376 11.8562 15.0471V18.5777C11.8562 18.6862 11.8912 18.7753 11.961 18.845C12.0307 18.9146 12.1197 18.9494 12.228 18.9494H14.3417C14.4502 18.9494 14.5393 18.9146 14.609 18.845C14.6786 18.7753 14.7134 18.6862 14.7134 18.5777V10.6919C14.7134 10.6299 14.6999 10.5718 14.6727 10.5176C14.6457 10.4635 14.605 10.417 14.5507 10.3781L8.88308 6.38071C8.82128 6.3342 8.75163 6.31095 8.67412 6.31095C8.59662 6.31095 8.52696 6.3342 8.46516 6.38071L2.79756 10.3781C2.7432 10.417 2.70254 10.4635 2.67556 10.5176C2.64838 10.5718 2.6348 10.6299 2.6348 10.6919ZM20.2301 6.73129H21.2755C21.421 6.73129 21.5484 6.67673 21.6575 6.56762C21.7666 6.45851 21.8211 6.33118 21.8211 6.18564V5.14023C21.8211 4.99468 21.7666 4.86735 21.6575 4.75824C21.5484 4.64913 21.421 4.59458 21.2755 4.59458H20.2301C20.0845 4.59458 19.9572 4.64913 19.8481 4.75824C19.739 4.86735 19.6844 4.99468 19.6844 5.14023V6.18564C19.6844 6.33118 19.739 6.45851 19.8481 6.56762C19.9572 6.67673 20.0845 6.73129 20.2301 6.73129ZM20.2301 11.5628H21.2755C21.421 11.5628 21.5484 11.5082 21.6575 11.3991C21.7666 11.29 21.8211 11.1626 21.8211 11.0171V9.97169C21.8211 9.82614 21.7666 9.69881 21.6575 9.5897C21.5484 9.48059 21.421 9.42604 21.2755 9.42604H20.2301C20.0845 9.42604 19.9572 9.48059 19.8481 9.5897C19.739 9.69881 19.6844 9.82614 19.6844 9.97169V11.0171C19.6844 11.1626 19.739 11.29 19.8481 11.3991C19.9572 11.5082 20.0845 11.5628 20.2301 11.5628ZM20.2301 16.3942H21.2755C21.421 16.3942 21.5484 16.3397 21.6575 16.2305C21.7666 16.1214 21.8211 15.9941 21.8211 15.8486V14.8032C21.8211 14.6576 21.7666 14.5303 21.6575 14.4212C21.5484 14.3121 21.421 14.2575 21.2755 14.2575H20.2301C20.0845 14.2575 19.9572 14.3121 19.8481 14.4212C19.739 14.5303 19.6844 14.6576 19.6844 14.8032V15.8486C19.6844 15.9941 19.739 16.1214 19.8481 16.2305C19.9572 16.3397 20.0845 16.3942 20.2301 16.3942Z" fill="#00A481"/>
</svg>
