<svg width="27" height="25" viewBox="0 0 27 25" fill="none" xmlns="http://www.w3.org/2000/svg">
<path d="M11.8717 21.2594H3.07791C2.94397 21.2603 2.81157 21.2309 2.69061 21.1734C2.56965 21.1159 2.46327 21.0317 2.37942 20.9273C2.29348 20.8217 2.23225 20.6981 2.20023 20.5658C2.16821 20.4334 2.1662 20.2956 2.19435 20.1624C2.6451 18.0407 3.79731 16.1326 5.46518 14.7459C7.13304 13.3592 9.21935 12.5747 11.3877 12.5188C11.4617 12.5188 11.5357 12.5188 11.6097 12.5188C13.0225 12.5202 14.3895 12.0187 15.4661 11.104C16.5427 10.1892 17.2585 8.92112 17.4853 7.52673C17.7121 6.13233 17.435 4.70274 16.7038 3.49401C15.9725 2.28528 14.8348 1.37636 13.4944 0.93005C12.1541 0.483739 10.6986 0.529188 9.38869 1.05826C8.07879 1.58733 7.00002 2.56546 6.3456 3.81746C5.69118 5.06946 5.50386 6.51355 5.81719 7.89108C6.13052 9.26861 6.92403 10.4896 8.05561 11.3354C6.16047 11.9588 4.4629 13.0703 3.13363 14.558C1.80436 16.0457 0.890254 17.8572 0.483241 19.8103C0.402495 20.1965 0.408769 20.5958 0.501608 20.9793C0.594447 21.3628 0.77152 21.7208 1.01997 22.0273C1.26842 22.3338 1.58201 22.5812 1.93798 22.7514C2.29394 22.9216 2.68334 23.0104 3.07791 23.0114H11.8717C11.9888 23.0152 12.1055 22.9955 12.2149 22.9533C12.3243 22.9112 12.424 22.8474 12.5083 22.7659C12.5925 22.6844 12.6595 22.5868 12.7052 22.4789C12.751 22.371 12.7745 22.255 12.7745 22.1378C12.7745 22.0206 12.751 21.9046 12.7052 21.7966C12.6595 21.6887 12.5925 21.5911 12.5083 21.5096C12.424 21.4281 12.3243 21.3644 12.2149 21.3222C12.1055 21.2801 11.9888 21.2603 11.8717 21.2642V21.2594ZM7.41595 6.58164C7.416 5.7564 7.65951 4.94951 8.116 4.26202C8.57249 3.57453 9.22166 3.037 9.98223 2.71674C10.7428 2.39648 11.5809 2.30773 12.3917 2.46161C13.2025 2.61548 13.9498 3.00513 14.5402 3.58178C15.1305 4.15842 15.5376 4.89641 15.7105 5.70335C15.8834 6.51028 15.8143 7.35028 15.512 8.11816C15.2097 8.88603 14.6876 9.54765 14.011 10.0202C13.3344 10.4927 12.5335 10.7551 11.7084 10.7745C11.6769 10.7708 11.6453 10.7689 11.6135 10.7688H11.4095C10.3349 10.7143 9.32218 10.2493 8.58045 9.46981C7.83873 8.69029 7.4246 7.65575 7.42355 6.57974L7.41595 6.58164Z" fill="#00A481"/>
<mask id="mask0_1225_1824" style="mask-type:alpha" maskUnits="userSpaceOnUse" x="12" y="10" width="15" height="15">
<rect x="12.7644" y="10.1162" width="14.2356" height="14.2356" fill="#D9D9D9"/>
</mask>
<g mask="url(#mask0_1225_1824)">
<path d="M15.2376 22.8574C14.7997 22.8574 14.4282 22.7049 14.1232 22.4C13.8183 22.095 13.6658 21.7235 13.6658 21.2856V15.0962C13.6658 14.6582 13.8183 14.2867 14.1232 13.9817C14.4282 13.6768 14.7997 13.5244 15.2376 13.5244H17.2499V12.3381C17.2499 11.9001 17.4024 11.5286 17.7073 11.2236C18.0122 10.9186 18.3837 10.7661 18.8217 10.7661H20.9428C21.3808 10.7661 21.7523 10.9186 22.0572 11.2236C22.3622 11.5286 22.5146 11.9001 22.5146 12.3381V13.5244H24.5269C24.9648 13.5244 25.3363 13.6768 25.6413 13.9817C25.9463 14.2867 26.0987 14.6582 26.0987 15.0962V21.2856C26.0987 21.7235 25.9463 22.095 25.6413 22.4C25.3363 22.7049 24.9648 22.8574 24.5269 22.8574H15.2376ZM15.2376 21.2856H24.5269V15.0962H15.2376V21.2856ZM18.8217 13.5244H20.9428V12.3381H18.8217V13.5244Z" fill="#00A481"/>
</g>
</svg>
