<svg width="27" height="27" viewBox="0 0 27 27" fill="none" xmlns="http://www.w3.org/2000/svg">
<path d="M14.0733 6.84115C14.0733 7.11606 13.9639 7.37971 13.7691 7.5741C13.5744 7.76849 13.3103 7.87769 13.0349 7.87769H5.66912C5.52999 7.88219 5.39139 7.85872 5.26153 7.80869C5.13168 7.75865 5.01322 7.68306 4.91322 7.58641C4.81321 7.48977 4.73369 7.37404 4.67938 7.2461C4.62508 7.11817 4.59709 6.98064 4.59709 6.8417C4.59709 6.70275 4.62508 6.56523 4.67938 6.43729C4.73369 6.30936 4.81321 6.19363 4.91322 6.09698C5.01322 6.00034 5.13168 5.92475 5.26153 5.87471C5.39139 5.82467 5.52999 5.8012 5.66912 5.8057H13.0338C13.1701 5.80556 13.3052 5.83223 13.4312 5.88419C13.5573 5.93615 13.6718 6.01238 13.7683 6.10853C13.8649 6.20468 13.9415 6.31887 13.9938 6.44457C14.0461 6.57027 14.0731 6.70503 14.0733 6.84115ZM13.0349 9.94969H5.66912C5.52999 9.94519 5.39139 9.96866 5.26153 10.0187C5.13168 10.0687 5.01322 10.1443 4.91322 10.241C4.81321 10.3376 4.73369 10.4533 4.67938 10.5813C4.62508 10.7092 4.59709 10.8467 4.59709 10.9857C4.59709 11.1246 4.62508 11.2622 4.67938 11.3901C4.73369 11.518 4.81321 11.6338 4.91322 11.7304C5.01322 11.827 5.13168 11.9026 5.26153 11.9527C5.39139 12.0027 5.52999 12.0262 5.66912 12.0217H13.0338C13.1729 12.0262 13.3115 12.0027 13.4413 11.9527C13.5712 11.9026 13.6897 11.827 13.7897 11.7304C13.8897 11.6338 13.9692 11.518 14.0235 11.3901C14.0778 11.2622 14.1058 11.1246 14.1058 10.9857C14.1058 10.8467 14.0778 10.7092 14.0235 10.5813C13.9692 10.4533 13.8897 10.3376 13.7897 10.241C13.6897 10.1443 13.5712 10.0687 13.4413 10.0187C13.3115 9.96866 13.174 9.94519 13.0349 9.94969ZM8.8355 14.098H5.66912C5.52999 14.0935 5.39139 14.117 5.26153 14.167C5.13168 14.2171 5.01322 14.2927 4.91322 14.3893C4.81321 14.486 4.73369 14.6017 4.67938 14.7296C4.62508 14.8576 4.59709 14.9951 4.59709 15.134C4.59709 15.273 4.62508 15.4105 4.67938 15.5384C4.73369 15.6664 4.81321 15.7821 4.91322 15.8787C5.01322 15.9754 5.13168 16.051 5.26153 16.101C5.39139 16.151 5.52999 16.1745 5.66912 16.17H8.8355C8.97462 16.1745 9.11323 16.151 9.24309 16.101C9.37294 16.051 9.49139 15.9754 9.5914 15.8787C9.69141 15.7821 9.77093 15.6664 9.82523 15.5384C9.87954 15.4105 9.90753 15.273 9.90753 15.134C9.90753 14.9951 9.87954 14.8576 9.82523 14.7296C9.77093 14.6017 9.69141 14.486 9.5914 14.3893C9.49139 14.2927 9.37294 14.2171 9.24309 14.167C9.11323 14.117 8.97462 14.0935 8.8355 14.098ZM24.9243 17.4662V8.55677C24.9237 8.00742 24.7049 7.48073 24.3157 7.09228C23.9266 6.70383 23.3989 6.48535 22.8486 6.48478H18.277V10.0051H21.3857C21.6551 10.0138 21.9106 10.1268 22.0981 10.3201C22.2856 10.5135 22.3905 10.772 22.3905 11.0411C22.3905 11.3102 22.2856 11.5687 22.0981 11.7621C21.9106 11.9554 21.6551 12.0684 21.3857 12.0771H18.2813V14.1491H21.39C21.6595 14.1578 21.9149 14.2708 22.1025 14.4641C22.29 14.6574 22.3948 14.916 22.3948 15.1851C22.3948 15.4542 22.29 15.7127 22.1025 15.9061C21.9149 16.0994 21.6595 16.2124 21.39 16.2211H18.2813V18.2931H21.39C21.6595 18.3018 21.9149 18.4148 22.1025 18.6081C22.29 18.8014 22.3948 19.06 22.3948 19.3291C22.3948 19.5982 22.29 19.8567 22.1025 20.0501C21.9149 20.2434 21.6595 20.3564 21.39 20.3651H17.8067C17.4561 21.0364 16.9281 21.5992 16.28 21.9924C15.6319 22.3856 14.8883 22.5942 14.1299 22.5957H10.699V22.6457C10.6996 23.195 10.9184 23.7217 11.3076 24.1102C11.6967 24.4986 12.2244 24.7171 12.7747 24.7177H22.8431C23.3935 24.7171 23.9211 24.4986 24.3103 24.1102C24.6994 23.7217 24.9183 23.195 24.9189 22.6457C24.9144 22.5068 24.9379 22.3685 24.988 22.2388C25.0381 22.1092 25.1139 21.991 25.2107 21.8911C25.3075 21.7913 25.4234 21.7119 25.5516 21.6577C25.6798 21.6035 25.8175 21.5756 25.9567 21.5756C26.0959 21.5756 26.2337 21.6035 26.3619 21.6577C26.49 21.7119 26.606 21.7913 26.7028 21.8911C26.7996 21.991 26.8753 22.1092 26.9255 22.2388C26.9756 22.3685 26.9991 22.5068 26.9946 22.6457C26.9934 23.7447 26.5556 24.7983 25.7771 25.5754C24.9986 26.3525 23.943 26.7896 22.842 26.7908H12.7736C11.6738 26.787 10.6203 26.3484 9.84377 25.5708C9.06729 24.7933 8.63115 23.7403 8.63087 22.6424V22.5957H4.57955C4.03405 22.5957 3.49389 22.4884 2.98994 22.28C2.48598 22.0715 2.02811 21.766 1.64249 21.3809C1.25686 20.9957 0.951028 20.5385 0.742471 20.0354C0.533914 19.5322 0.426717 18.993 0.427003 18.4485V4.35845C0.428155 3.25947 0.866024 2.20582 1.64453 1.42871C2.42303 0.651611 3.47858 0.214529 4.57955 0.213379H14.1299C15.2308 0.214529 16.2864 0.651611 17.0649 1.42871C17.8434 2.20582 18.2813 3.25947 18.2824 4.35845V4.40626H22.854C23.955 4.40741 25.0105 4.84449 25.789 5.6216C26.5675 6.3987 27.0054 7.45235 27.0066 8.55134V17.4608C27.0111 17.5997 26.9876 17.738 26.9374 17.8677C26.8873 17.9973 26.8116 18.1155 26.7148 18.2153C26.6179 18.3152 26.502 18.3945 26.3738 18.4488C26.2457 18.503 26.1079 18.5309 25.9687 18.5309C25.8295 18.5309 25.6917 18.503 25.5636 18.4488C25.4354 18.3945 25.3195 18.3152 25.2226 18.2153C25.1258 18.1155 25.0501 17.9973 25 17.8677C24.9498 17.738 24.9263 17.5997 24.9308 17.4608L24.9243 17.4662ZM16.2045 4.35845C16.2039 3.8091 15.985 3.28242 15.5959 2.89397C15.2067 2.50552 14.6791 2.28704 14.1288 2.28646H4.57955C4.02902 2.28675 3.50111 2.5051 3.11172 2.89358C2.72234 3.28207 2.50331 3.80892 2.50273 4.35845V18.4485C2.50273 18.998 2.72142 19.525 3.1107 19.9136C3.49997 20.3021 4.02794 20.5204 4.57846 20.5204H14.1288C14.679 20.5196 15.2065 20.301 15.5956 19.9126C15.9847 19.5242 16.2036 18.9977 16.2045 18.4485V4.35845Z" fill="#00A481"/>
</svg>
