<svg width="27" height="26" viewBox="0 0 27 26" fill="none" xmlns="http://www.w3.org/2000/svg">
<path d="M26.7 11.6701L15.9342 0.834907L15.8912 0.794131C15.3243 0.284389 14.5894 0.00163377 13.8271 7.05805e-06C13.0648 -0.00161966 12.3286 0.277996 11.7596 0.785315L11.7167 0.82609L0.853866 11.6668C0.753335 11.7617 0.672846 11.8757 0.617159 12.0022C0.561471 12.1287 0.531717 12.2651 0.529656 12.4033C0.527595 12.5415 0.553268 12.6787 0.605158 12.8068C0.657048 12.9349 0.7341 13.0513 0.831757 13.1491C0.929415 13.2469 1.04569 13.3241 1.17372 13.3762C1.30174 13.4283 1.43891 13.4542 1.57711 13.4523C1.71531 13.4505 1.85174 13.4209 1.97832 13.3654C2.1049 13.3099 2.21907 13.2296 2.31407 13.1292L3.13398 12.3104V21.2314C3.13515 22.3271 3.57093 23.3776 4.34569 24.1524C5.12046 24.9271 6.17094 25.3629 7.26663 25.3641H10.986C11.2599 25.3641 11.5225 25.2553 11.7162 25.0616C11.9098 24.868 12.0186 24.6053 12.0186 24.3315V15.9108H15.6344V24.3315C15.6343 24.4672 15.6609 24.6017 15.7128 24.7272C15.7647 24.8527 15.8408 24.9667 15.9368 25.0627C16.0329 25.1587 16.1469 25.2349 16.2724 25.2868C16.3978 25.3387 16.5323 25.3653 16.6681 25.3652H20.2839C21.3796 25.364 22.4301 24.9282 23.2048 24.1535C23.9796 23.3787 24.4154 22.3282 24.4165 21.2325C24.4078 20.9644 24.2951 20.7101 24.1023 20.5235C23.9095 20.3369 23.6517 20.2326 23.3834 20.2326C23.1151 20.2326 22.8573 20.3369 22.6645 20.5235C22.4717 20.7101 22.359 20.9644 22.3502 21.2325C22.3496 21.7804 22.1318 22.3056 21.7444 22.693C21.357 23.0804 20.8317 23.2983 20.2839 23.2988H17.7018V14.8782C17.7018 14.6043 17.593 14.3417 17.3994 14.148C17.2057 13.9544 16.9431 13.8456 16.6692 13.8456H10.986C10.8503 13.8456 10.7159 13.8723 10.5906 13.9243C10.4652 13.9762 10.3513 14.0524 10.2554 14.1484C10.1595 14.2444 10.0835 14.3584 10.0317 14.4838C9.97985 14.6092 9.95325 14.7436 9.95339 14.8793V23.2999H7.26663C6.71878 23.2994 6.19354 23.0815 5.80616 22.6941C5.41878 22.3067 5.20089 21.7815 5.2003 21.2336V10.2805C5.2003 10.2702 5.2003 10.2599 5.2003 10.2496L13.1537 2.31494C13.3406 2.15558 13.5781 2.06804 13.8238 2.06804C14.0694 2.06804 14.3069 2.15558 14.4938 2.31494L22.3513 10.2243V16.0651C22.3601 16.3332 22.4728 16.5875 22.6656 16.7741C22.8584 16.9607 23.1162 17.065 23.3845 17.065C23.6528 17.065 23.9106 16.9607 24.1034 16.7741C24.2962 16.5875 24.4089 16.3332 24.4176 16.0651V12.3049L25.2343 13.127C25.3298 13.2233 25.4435 13.2997 25.5686 13.3521C25.6937 13.4044 25.828 13.4316 25.9636 13.432C26.0992 13.4325 26.2337 13.4062 26.3591 13.3548C26.4846 13.3033 26.5988 13.2276 26.695 13.132C26.7912 13.0364 26.8677 12.9228 26.92 12.7977C26.9724 12.6725 26.9996 12.5383 27 12.4026C27.0005 12.267 26.9742 12.1326 26.9227 12.0071C26.8713 11.8816 26.7956 11.7664 26.7 11.6701Z" fill="#00A481"/>
</svg>
