<svg width="18" height="23" viewBox="0 0 18 23" fill="none" xmlns="http://www.w3.org/2000/svg">
<path d="M2.52052 22.8532C1.94329 22.8532 1.45018 22.6488 1.04118 22.24C0.63238 21.831 0.427979 21.3379 0.427979 20.7607V9.89778C0.427979 9.32056 0.63238 8.82745 1.04118 8.41845C1.45018 8.00965 1.94329 7.80524 2.52052 7.80524H3.90059V5.49017C3.90059 4.04479 4.4074 2.81529 5.42102 1.80167C6.43463 0.788058 7.66413 0.28125 9.10951 0.28125C10.5549 0.28125 11.7844 0.788058 12.798 1.80167C13.8116 2.81529 14.3184 4.04479 14.3184 5.49017V7.80524H15.6985C16.2757 7.80524 16.7688 8.00965 17.1778 8.41845C17.5866 8.82745 17.791 9.32056 17.791 9.89778V20.7607C17.791 21.3379 17.5866 21.831 17.1778 22.24C16.7688 22.6488 16.2757 22.8532 15.6985 22.8532H2.52052ZM2.52052 21.1169H15.6985C15.8025 21.1169 15.8879 21.0835 15.9546 21.0168C16.0214 20.95 16.0547 20.8647 16.0547 20.7607V9.89778C16.0547 9.7938 16.0214 9.70843 15.9546 9.64168C15.8879 9.57493 15.8025 9.54155 15.6985 9.54155H2.52052C2.41653 9.54155 2.33116 9.57493 2.26441 9.64168C2.19766 9.70843 2.16428 9.7938 2.16428 9.89778V20.7607C2.16428 20.8647 2.19766 20.95 2.26441 21.0168C2.33116 21.0835 2.41653 21.1169 2.52052 21.1169ZM9.10951 17.3549C9.67188 17.3549 10.1501 17.158 10.5443 16.764C10.9382 16.3699 11.1352 15.8916 11.1352 15.3292C11.1352 14.7669 10.9382 14.2886 10.5443 13.8945C10.1501 13.5005 9.67188 13.3035 9.10951 13.3035C8.54714 13.3035 8.06888 13.5005 7.67474 13.8945C7.28079 14.2886 7.08382 14.7669 7.08382 15.3292C7.08382 15.8916 7.28079 16.3699 7.67474 16.764C8.06888 17.158 8.54714 17.3549 9.10951 17.3549ZM5.6369 7.80524H12.5821V5.49017C12.5821 4.52555 12.2445 3.70563 11.5693 3.0304C10.894 2.35517 10.0741 2.01756 9.10951 2.01756C8.1449 2.01756 7.32497 2.35517 6.64974 3.0304C5.97451 3.70563 5.6369 4.52555 5.6369 5.49017V7.80524Z" fill="#00A481"/>
</svg>
