<svg width="158" height="30" viewBox="0 0 158 30" fill="none" xmlns="http://www.w3.org/2000/svg">
<path d="M12.2992 16.2118H8.69683V6.81345C8.76003 6.11017 8.57043 5.47083 8.06483 4.95935C7.43283 4.63968 6.73763 4.44788 6.04243 4.57575C5.15763 4.57575 3.19843 4.70361 0.228027 4.95935V1.95443C3.00883 1.63476 5.28403 1.50689 7.05363 1.50689C8.38083 1.37902 9.77123 1.6987 10.9088 2.46591C11.92 3.48886 12.4888 4.89542 12.2992 6.36591V16.2118ZM3.89363 16.2118H0.228027V8.34788H3.89363V16.2118Z" fill="#00A481"/>
<path d="M26.9616 6.30201C27.0248 7.64463 26.8352 9.05119 26.456 10.3299C25.8872 11.8643 24.9392 13.2069 23.7384 14.1659L21.084 16.4036L18.9984 13.8463L21.1472 12.0561C21.9056 11.4807 22.4744 10.7135 22.8536 9.8184C23.1064 9.05119 23.2328 8.28398 23.1696 7.51676V4.70365H13.9424V1.69873H26.3928C26.8352 1.69873 27.0248 1.89053 27.0248 2.27414L26.9616 6.30201ZM17.7976 19.4725H14.132V7.00529H17.7976V19.4725Z" fill="#00A481"/>
<path d="M33.9771 16.2119H30.3115V4.63976H28.2891V1.69877H33.4083C33.6611 1.63484 33.9139 1.82664 33.9771 2.14631C33.9771 2.21025 33.9771 2.27418 33.9771 2.27418V16.2119Z" fill="#00A481"/>
<path d="M46.4272 16.2118H42.7617V7.13307C42.8249 6.42979 42.6353 5.66257 42.1297 5.08716C41.4345 4.63962 40.6129 4.44782 39.8545 4.51175C39.7281 4.51175 38.2745 4.63962 35.4937 4.83143V1.82651C38.4009 1.6347 40.2969 1.50684 41.1185 1.50684C43.1409 1.50684 44.5945 1.95438 45.3529 2.78552C46.1745 3.87241 46.4905 5.1511 46.3641 6.49372L46.4272 16.2118Z" fill="#00A481"/>
<path d="M53.3159 9.43497H49.6503V4.63988H47.6279V1.6989H52.7471C53.0631 1.63497 53.3159 1.8907 53.3159 2.14644C53.3159 2.21038 53.3159 2.27431 53.3159 2.27431V9.43497Z" fill="#00A481"/>
<path d="M72.5287 16.2118H68.9263V6.81345C68.9895 6.11017 68.7999 5.47083 68.2943 4.95935C67.6623 4.63968 66.9671 4.44788 66.2719 4.57575C65.3871 4.57575 63.4279 4.70361 60.4575 4.95935V1.95443C63.2383 1.63476 65.5135 1.50689 67.2831 1.50689C68.6103 1.37902 70.0007 1.6987 71.1383 2.46591C72.1495 3.48886 72.7183 4.89542 72.5287 6.36591V16.2118ZM64.1863 16.2118H60.5207V8.34788H64.1863V16.2118Z" fill="#0A2C3D"/>
<path d="M87.9498 8.47587V15.5726C88.013 15.8923 87.7602 16.148 87.4442 16.2119C87.381 16.2119 87.3178 16.2119 87.3178 16.2119H80.5554V13.207H84.4106L84.3474 8.09227C84.4738 6.94145 83.9682 5.79063 83.0202 5.08735C82.5146 4.83161 81.8826 4.70374 81.3138 4.70374C80.8714 4.70374 80.429 4.83161 80.113 5.08735C79.7338 5.34309 79.4178 5.66276 79.165 6.04636C78.9122 6.62177 78.7858 7.32505 78.7226 7.9644L78.0274 16.2119H74.3618L75.2466 7.32505C75.373 6.68571 75.3098 6.04636 74.9938 5.47095L73.3506 3.68079L76.2578 0.867676L78.0906 3.04145C79.1018 2.14636 80.429 1.63489 81.8194 1.57095C83.0834 1.50702 84.3474 1.82669 85.485 2.46604C87.1282 3.48899 87.9498 5.47095 87.9498 8.47587Z" fill="#0A2C3D"/>
<path d="M94.8384 9.43497H91.1728V4.63988H89.1504V1.6989H94.2696C94.5856 1.63497 94.8384 1.8907 94.8384 2.14644C94.8384 2.21038 94.8384 2.27431 94.8384 2.27431V9.43497Z" fill="#0A2C3D"/>
<path d="M110.828 16.2119H107.163V7.0693C107.163 5.40701 106.404 4.57586 104.951 4.57586C104.635 4.57586 103.687 4.57586 102.233 4.63979V15.5726C102.233 16.0201 102.043 16.2119 101.664 16.2119H96.3555V13.2709H98.6939V4.76766L97.1771 4.8316V1.82668C97.6195 1.82668 98.6307 1.82668 100.337 1.76275C101.917 1.63488 103.181 1.63488 104.066 1.63488C105.33 1.57094 106.594 1.63488 107.858 1.89061C108.679 2.14635 109.438 2.72176 109.943 3.36111C110.575 4.32012 110.891 5.53488 110.765 6.6857L110.828 16.2119Z" fill="#0A2C3D"/>
<path d="M125.617 16.2118H122.014V6.87736C122.204 5.79047 121.445 4.70359 120.308 4.57572C120.118 4.57572 119.929 4.51179 119.739 4.57572C118.791 4.57572 117.843 4.63965 117.021 4.70359V16.2757H113.419V4.76752H112.092V1.82654C117.085 1.69867 119.36 1.5708 119.044 1.5708C121.698 1.5708 123.468 1.95441 124.289 2.72162C125.237 3.68064 125.68 4.95933 125.617 6.30195V16.2118Z" fill="#0A2C3D"/>
<path d="M2.53978 29.7595H1.08618V23.1103H0.138184V21.9595H2.22378C2.28698 21.9595 2.35018 22.0234 2.41338 22.0873C2.47658 22.1513 2.53978 22.2152 2.53978 22.2791V29.7595Z" fill="#00A481"/>
<path d="M6.33184 25.0283H4.87824V23.1103H4.05664V21.9595H6.07904C6.20544 21.9595 6.26864 22.0234 6.33184 22.1513V22.2152V25.0283Z" fill="#00A481"/>
<path d="M9.99737 25.0283H8.54377V23.1103H7.72217V21.9595H9.74457C9.87097 21.9595 9.93417 22.0234 9.99737 22.1513V22.2152V25.0283Z" fill="#00A481"/>
<path d="M16.0016 23.6218C16.0016 24.1333 15.9384 24.6448 15.812 25.1563C15.6856 25.4759 15.5592 25.7317 15.3696 25.9874C15.18 26.3071 14.9272 26.5628 14.6112 26.7546L13.3472 27.7776L12.5888 26.7546L13.4736 26.0513C13.7264 25.8595 13.916 25.6677 14.1056 25.412C14.232 25.2841 14.2952 25.0923 14.3584 24.9005C14.4216 24.5808 14.4848 24.2612 14.4848 23.9415V23.0464H11.704C11.5776 23.0464 11.4512 22.9825 11.4512 22.8546V22.7907V20.0415H12.9048V21.8956H15.7488C15.9384 21.8956 16.0016 21.9595 16.0016 22.1513V23.6218Z" fill="#00A481"/>
<path d="M20.7415 27.4578C20.7415 27.6496 20.6783 27.7136 20.4887 27.7136H17.5815V26.5628H19.2247V23.6857C19.2247 23.4939 19.2247 23.366 19.0983 23.2382C18.9719 23.1742 18.8455 23.1103 18.6559 23.1103C18.4031 23.1103 18.0871 23.1742 17.8343 23.2382V22.0873C18.2767 22.0234 18.6559 21.9595 19.0983 21.9595C19.8567 21.9595 20.3623 22.1513 20.4887 22.5988C20.6151 22.9185 20.6151 23.2382 20.6151 23.5578V25.4119C20.6151 25.9873 20.6151 26.4988 20.7415 27.0742V27.4578Z" fill="#00A481"/>
<path d="M24.47 27.7136H23.0164V23.1103H22.1948V21.9595H24.2172C24.3436 21.9595 24.4068 22.0234 24.47 22.1513V22.2152V27.7136Z" fill="#00A481"/>
<path d="M31.8013 27.0103L30.6637 27.9053L28.0093 24.5168L27.8197 24.7086C27.6301 24.9004 27.5669 25.1562 27.5669 25.4119C27.5669 25.6676 27.6301 25.8594 27.7565 26.0512L28.1357 26.7545C28.1989 26.8824 28.2621 27.0742 28.2621 27.2021V27.7135H26.1765V27.266L26.7453 27.0103L26.5557 26.307C26.4293 26.0512 26.3661 25.7316 26.3661 25.4758C26.3661 25.1562 26.4293 24.9004 26.5557 24.6447C26.6821 24.389 26.8717 24.1332 27.1245 23.8775L27.3773 23.6217L26.1133 22.0873V21.9594H27.8197L29.6525 24.1971C29.7157 24.0693 29.8421 23.9414 29.9053 23.8135C30.0949 23.4299 30.1581 23.0463 30.1581 22.6627V21.8955H31.6117L31.4853 22.7906C31.4853 23.4299 31.2325 24.0053 30.8533 24.5168L30.2845 25.0922L31.8013 27.0103Z" fill="#00A481"/>
<path d="M41.534 27.5217C41.534 27.5856 41.534 27.5856 41.4708 27.6496C41.4708 27.7135 41.4076 27.7135 41.3444 27.7135H37.1732C37.11 27.7135 37.11 27.7135 37.0468 27.6496C36.9836 27.6496 36.9836 27.5856 36.9836 27.5217V22.8545H36.478V21.9594C38.058 21.8955 38.9428 21.8315 39.1324 21.8315C39.4484 21.8315 39.8276 21.8315 40.1436 21.8955C40.5228 21.9594 40.8388 22.0873 41.0916 22.343C41.4076 22.7266 41.5972 23.302 41.534 23.8135V27.5217ZM40.5228 26.7545V24.0053C40.5228 23.6856 40.4596 23.366 40.27 23.0463C40.0172 22.7906 39.7012 22.7266 39.3852 22.7266C38.7532 22.7266 38.2476 22.7266 37.9316 22.7906V26.7545H40.5228Z" fill="#0A2C3D"/>
<path d="M45.1367 25.0283H44.1255V22.8546H43.1143V21.9595H45.0103C45.0735 21.9595 45.0735 22.0234 45.1367 22.0234C45.1999 22.0873 45.1999 22.0873 45.1999 22.1513L45.1367 25.0283Z" fill="#0A2C3D"/>
<path d="M51.0772 24.7726C51.1404 25.4758 50.9508 26.1791 50.5716 26.7545C50.066 27.4578 49.2444 27.8414 48.3596 27.7775C47.854 27.7775 47.4116 27.7135 46.906 27.6496V26.7545C47.3484 26.8185 47.854 26.8824 48.2964 26.8824C48.6756 26.8824 49.0548 26.8185 49.3708 26.5627C49.6236 26.3709 49.8132 26.1152 49.9396 25.7955C50.0028 25.4758 50.066 25.1562 50.066 24.8365C50.066 23.7496 49.6868 23.1103 48.9916 22.9185C48.6756 22.8545 48.4228 22.7906 48.1068 22.7906C47.6644 22.7906 47.2852 22.8545 46.8428 22.9824V22.0873C47.3484 21.9594 47.854 21.8955 48.3596 21.8955C48.7388 21.8955 49.118 21.9594 49.4972 22.0234C50.5084 22.343 51.0772 23.2381 51.0772 24.7726Z" fill="#0A2C3D"/>
<path d="M57.6503 27.5216C57.6503 27.5855 57.6503 27.5855 57.5871 27.6495C57.5871 27.7134 57.5239 27.7134 57.4607 27.7134H54.8695V26.7544H56.7023V24.261C56.7655 23.7495 56.5127 23.3019 56.1335 22.9823C55.8807 22.8544 55.5647 22.7905 55.2487 22.7905C54.9959 22.7905 54.7431 22.8544 54.5535 23.0462C54.4271 23.1741 54.3007 23.3019 54.1743 23.4298C54.0479 23.5577 53.9847 23.7495 53.9215 23.8774C53.8583 24.197 53.8583 24.4528 53.7951 24.7085L53.5423 27.6495H52.5943L52.9735 24.197C52.9735 23.8774 53.0367 23.7495 53.0367 23.7495C53.0367 23.5577 52.9735 23.4298 52.8471 23.3019L52.1519 22.4069L52.9735 21.6396L53.7319 22.5987C53.8583 22.4708 53.9847 22.279 54.1743 22.2151C54.3007 22.1511 54.4271 22.0233 54.5535 21.9593C54.8063 21.8315 54.9959 21.7675 55.2487 21.7675C55.7543 21.7036 56.3231 21.8315 56.7655 22.1511C57.0815 22.4069 57.3343 22.7265 57.4607 23.0462C57.5871 23.4937 57.6503 23.9413 57.6503 24.3249V27.5216Z" fill="#0A2C3D"/>
<path d="M64.7285 24.8365C64.7285 25.2201 64.6653 25.5398 64.6021 25.9234C64.4757 26.4349 64.2229 26.8824 63.8437 27.266C63.5909 27.5217 63.3381 27.6496 63.0221 27.7775C62.8325 27.8414 62.5797 27.9053 62.3269 27.9053C62.0109 27.9053 61.6949 27.9053 61.3789 27.8414C61.0629 27.7775 60.8101 27.6496 60.5573 27.4578C60.3045 27.266 60.0517 27.0103 59.9253 26.6906C59.6725 26.1152 59.5461 25.5398 59.5461 24.9004V24.8365C59.5461 24.0693 59.7989 23.3021 60.3045 22.7906L59.4829 22.8545V21.9594C60.8733 21.8955 61.6949 21.8955 61.9477 21.8955C62.3269 21.8955 62.6429 21.8955 63.0221 21.9594C63.3381 22.0234 63.5909 22.1512 63.8437 22.343C64.1597 22.5988 64.4125 22.9824 64.5389 23.366C64.6653 23.8135 64.7917 24.325 64.7285 24.8365ZM63.7173 24.8365C63.7805 24.1971 63.5909 23.5578 63.2117 23.0463C63.0853 22.9185 62.8957 22.8545 62.7693 22.7906C62.5165 22.7267 62.2637 22.7267 62.0109 22.7267C61.7581 22.7267 61.5053 22.7267 61.2525 22.7267C61.2525 22.7906 61.1893 22.8545 61.0629 22.9824C60.6837 23.4939 60.5573 24.1332 60.5573 24.7726V24.9004C60.4941 25.4758 60.6837 26.0512 60.9997 26.5627C61.1261 26.7545 61.3789 26.8824 61.5685 27.0103C61.7581 27.0742 62.0109 27.1381 62.2005 27.0742C62.4533 27.0742 62.7061 27.0103 62.9589 26.8824C63.1485 26.7545 63.2749 26.5627 63.4013 26.3709C63.6541 25.8594 63.7173 25.348 63.7173 24.8365Z" fill="#0A2C3D"/>
<path d="M71.4276 27.5216C71.4276 27.5855 71.4276 27.5855 71.3644 27.6495C71.3644 27.7134 71.3012 27.7134 71.238 27.7134H68.6468V26.7544H70.4796V24.261C70.5428 23.7495 70.29 23.3019 69.9108 22.9823C69.658 22.8544 69.342 22.7905 69.026 22.7905C68.7732 22.7905 68.5204 22.8544 68.3308 23.0462C68.2044 23.1741 68.078 23.3019 67.9516 23.4298C67.8252 23.5577 67.762 23.7495 67.6988 23.8774C67.6356 24.197 67.6356 24.4528 67.5724 24.7085L67.3196 27.6495H66.3716L66.7508 24.197C66.7508 23.8774 66.814 23.7495 66.814 23.7495C66.814 23.5577 66.7508 23.4298 66.6244 23.3019L65.9292 22.4069L66.7508 21.6396L67.5092 22.5987C67.6356 22.4708 67.762 22.279 67.9516 22.2151C68.078 22.1511 68.2044 22.0233 68.3308 21.9593C68.5836 21.8315 68.7732 21.7675 69.026 21.7675C69.5316 21.7036 70.1004 21.8315 70.5428 22.1511C70.8588 22.4069 71.1116 22.7265 71.238 23.0462C71.3644 23.4937 71.4276 23.9413 71.4276 24.3249V27.5216Z" fill="#0A2C3D"/>
<path d="M80.718 23.6857C80.718 23.9415 80.718 24.2611 80.6548 24.5169C80.5916 25.0923 80.402 25.6038 80.0228 26.0513C79.454 26.7546 78.822 27.33 78.1268 27.9054L77.558 27.2021C78.2532 26.7546 78.822 26.1792 79.3276 25.5398C79.5172 25.2202 79.6436 24.9005 79.6436 24.5808C79.6436 24.389 79.6436 23.8136 79.6436 22.9185H76.61C76.5468 22.9185 76.5468 22.9185 76.4836 22.8546C76.4204 22.8546 76.4204 22.7907 76.4204 22.7267V19.9775H77.4316V22.0234H80.4652C80.5284 22.0234 80.5916 22.0234 80.5916 22.0874C80.6548 22.0874 80.6548 22.1513 80.6548 22.2152L80.718 23.6857Z" fill="#0A2C3D"/>
<path d="M87.4175 21.9594L87.1647 25.0283C87.1647 25.7955 86.8487 26.5627 86.2799 27.1381C85.8375 27.5217 85.2055 27.7775 84.6367 27.8414L82.6143 28.225V27.266L84.0679 27.1381L82.6775 21.9594H83.8151L85.1423 26.8824C85.3319 26.8185 85.5847 26.6906 85.7111 26.4988C86.0271 26.1152 86.2167 25.6037 86.2167 25.0283L86.4063 21.8955L87.4175 21.9594Z" fill="#0A2C3D"/>
<path d="M97.3397 27.5217C97.3397 27.5856 97.3397 27.5856 97.2765 27.6496C97.2765 27.7135 97.2133 27.7135 97.1501 27.7135H92.9789C92.9157 27.7135 92.9157 27.7135 92.8525 27.6496C92.7893 27.6496 92.7893 27.5856 92.7893 27.5217V22.8545H92.2837V21.9594C93.8637 21.8955 94.7485 21.8315 94.9381 21.8315C95.2541 21.8315 95.6333 21.8315 95.9493 21.8955C96.3285 21.9594 96.6445 22.0873 96.8973 22.343C97.2133 22.7266 97.4029 23.302 97.3397 23.8135V27.5217ZM96.3285 26.7545V24.0053C96.3285 23.6856 96.2653 23.366 96.0757 23.0463C95.8229 22.7906 95.5069 22.7266 95.1909 22.7266C94.5589 22.7266 94.0533 22.7266 93.7373 22.7906V26.7545H96.3285Z" fill="#0A2C3D"/>
<path d="M101.005 25.0283H99.9941V22.8546H98.9829V21.9595H100.879C100.942 21.9595 100.942 22.0234 101.005 22.0234C101.069 22.0234 101.069 22.0873 101.069 22.1513V25.0283H101.005Z" fill="#0A2C3D"/>
<path d="M107.957 27.5216C107.957 27.5855 107.957 27.5855 107.894 27.6495C107.894 27.7134 107.831 27.7134 107.768 27.7134H105.177V26.7544H107.009V24.261C107.073 23.7495 106.82 23.3019 106.441 22.9823C106.188 22.8544 105.872 22.7905 105.556 22.7905C105.303 22.7905 105.05 22.8544 104.861 23.0462C104.734 23.1741 104.608 23.3019 104.481 23.4298C104.355 23.5577 104.292 23.7495 104.229 23.8774C104.165 24.197 104.165 24.4528 104.102 24.7085L103.849 27.6495H102.901L103.281 24.197C103.281 23.8774 103.344 23.7495 103.344 23.7495C103.344 23.5577 103.281 23.4298 103.154 23.3019L102.459 22.4069L103.281 21.6396L104.039 22.5987C104.165 22.4708 104.292 22.279 104.481 22.2151C104.608 22.1511 104.734 22.0233 104.861 21.9593C105.113 21.8315 105.303 21.7675 105.556 21.7675C106.061 21.7036 106.63 21.8315 107.073 22.1511C107.389 22.4069 107.641 22.7265 107.768 23.0462C107.894 23.4937 107.957 23.9413 107.957 24.3249V27.5216Z" fill="#0A2C3D"/>
<path d="M115.225 27.7136H114.214V24.1332C114.214 23.7496 114.088 23.366 113.835 23.0464C113.582 22.8546 113.266 22.7267 112.95 22.7267C112.824 22.7267 112.381 22.7267 111.623 22.7906V27.5218C111.623 27.5857 111.623 27.5857 111.56 27.6496C111.56 27.7136 111.497 27.7136 111.433 27.7136H109.601V26.8185H110.612V22.8546L109.98 22.9185V22.0234C110.865 21.9595 111.813 21.9595 112.824 21.9595C113.266 21.9595 113.645 22.0234 114.088 22.0873C114.467 22.2152 114.846 22.5349 114.973 22.9824C115.162 23.4939 115.225 24.0693 115.162 24.6447L115.225 27.7136Z" fill="#0A2C3D"/>
<path d="M118.891 27.7136H117.88V22.8546H116.869V21.9595H118.765C118.828 21.9595 118.828 22.0234 118.891 22.0234C118.954 22.0873 118.954 22.0873 118.954 22.1513L118.891 27.7136Z" fill="#0A2C3D"/>
<path d="M125.653 27.7135H124.642V24.0053C124.705 23.6856 124.579 23.366 124.452 23.0463C124.263 22.7906 123.947 22.6627 123.631 22.7266C122.936 22.7266 122.43 22.7266 122.114 22.7906V27.7135H121.103V22.8545H120.724V21.9594C122.304 21.8955 123.188 21.8315 123.441 21.8315C123.757 21.8315 124.136 21.8315 124.452 21.8955C124.958 21.9594 125.464 22.2791 125.59 22.7906C125.653 23.1102 125.716 23.4299 125.716 23.7496L125.653 27.7135Z" fill="#0A2C3D"/>
<path d="M153.195 21.7329C153.259 22.1165 153.827 26.1444 150.288 26.4641C144.727 26.9755 144.79 19.6231 145.169 15.787C143.526 18.6001 139.291 24.8018 133.603 26.5919L133.856 23.9706C133.856 23.9706 139.734 22.7559 144.727 15.0198C142.009 17.5133 135.752 22.3723 132.845 17.2575C131.139 14.2526 134.488 12.3985 134.994 12.1428C134.109 11.1837 132.276 8.56243 134.362 6.58046C137.964 3.128 141.819 7.28375 144.095 10.5444C143.21 6.6444 142.641 0.570608 147.697 0.250936C151.363 -0.00480185 151.299 4.40668 151.299 4.53455C152.5 4.15094 155.66 3.57555 156.545 6.38866C157.935 10.8001 153.448 12.5903 149.656 13.2936C153.575 13.3575 158.631 14.3165 157.935 19.0477C157.619 22.0526 154.396 21.9247 153.195 21.7329Z" fill="#00A481"/>
</svg>
