<svg width="25" height="26" viewBox="0 0 25 26" fill="none" xmlns="http://www.w3.org/2000/svg">
<g clip-path="url(#clip0_1225_1851)">
<path d="M19.8842 21.5629C19.6408 21.6209 19.4305 21.7732 19.2993 21.9862C19.1682 22.1991 19.1269 22.4555 19.1846 22.6989C19.1997 22.7631 19.2 22.8299 19.1856 22.8942C19.1712 22.9586 19.1424 23.0188 19.1013 23.0704C19.0603 23.1221 19.0081 23.1637 18.9486 23.1922C18.8892 23.2208 18.824 23.2355 18.7581 23.2352H7.18063C7.11468 23.2355 7.04953 23.2208 6.99008 23.1922C6.93062 23.1637 6.87841 23.1221 6.83737 23.0704C6.79632 23.0188 6.76751 22.9586 6.75309 22.8942C6.73868 22.8299 6.73904 22.7631 6.75414 22.6989C7.01722 21.6173 7.5577 20.6231 8.32225 19.8141C9.0868 19.0051 10.049 18.4095 11.114 18.0858C12.179 17.7621 13.31 17.7217 14.3954 17.9684C15.4808 18.2152 16.4831 18.7406 17.3035 19.4928C17.3928 19.585 17.5001 19.658 17.6186 19.7073C17.7371 19.7566 17.8645 19.7812 17.9928 19.7796C18.1212 19.778 18.2479 19.7503 18.3652 19.698C18.4825 19.6458 18.5879 19.5702 18.6749 19.4759C18.762 19.3815 18.8289 19.2704 18.8716 19.1493C18.9142 19.0283 18.9317 18.8998 18.923 18.7717C18.9143 18.6436 18.8796 18.5186 18.8209 18.4044C18.7623 18.2902 18.681 18.1892 18.5819 18.1075C17.864 17.4457 17.0341 16.917 16.1309 16.546C16.8392 15.9069 17.3371 15.068 17.5589 14.14C17.7807 13.2121 17.7159 12.2387 17.3732 11.3483C17.0304 10.4579 16.4258 9.6924 15.6391 9.15268C14.8523 8.61297 13.9204 8.32445 12.9664 8.3252C12.0123 8.32594 11.0809 8.61593 10.295 9.15688C9.50909 9.69783 8.90566 10.4643 8.56432 11.3552C8.22297 12.2461 8.15974 13.2196 8.38298 14.1472C8.60622 15.0748 9.10543 15.9129 9.81475 16.551C8.60471 17.0479 7.5299 17.8249 6.67871 18.8182C5.82753 19.8115 5.22428 20.9926 4.91857 22.2645C4.83778 22.6058 4.8353 22.961 4.9113 23.3035C4.98731 23.6459 5.13984 23.9667 5.35745 24.2418C5.57507 24.517 5.85214 24.7392 6.16788 24.8921C6.48362 25.0449 6.82985 25.1242 7.18063 25.1242H18.7581C19.1089 25.1242 19.4551 25.0449 19.7708 24.8921C20.0866 24.7392 20.3636 24.517 20.5812 24.2418C20.7989 23.9667 20.9514 23.6459 21.0274 23.3035C21.1034 22.961 21.1009 22.6058 21.0201 22.2645C20.9621 22.0212 20.8099 21.8108 20.5969 21.6796C20.3839 21.5485 20.1276 21.5072 19.8842 21.5649V21.5629ZM12.9713 10.2131C13.5313 10.2131 14.0786 10.3791 14.5442 10.6902C15.0097 11.0012 15.3726 11.4434 15.5869 11.9607C15.8011 12.478 15.8572 13.0472 15.748 13.5964C15.6387 14.1456 15.3691 14.65 14.9732 15.0459C14.5772 15.4419 14.0728 15.7115 13.5236 15.8207C12.9745 15.93 12.4052 15.8739 11.8879 15.6596C11.3706 15.4454 10.9285 15.0825 10.6174 14.6169C10.3063 14.1514 10.1403 13.604 10.1403 13.0441C10.1411 12.2935 10.4396 11.5739 10.9704 11.0431C11.5011 10.5124 12.2207 10.2138 12.9713 10.2131Z" fill="#00A481"/>
<path d="M22.169 9.74242H21.6941C21.6337 9.74312 21.5746 9.72541 21.5245 9.69164C21.4745 9.65787 21.436 9.60965 21.414 9.55342C21.3862 9.49265 21.3757 9.42535 21.3837 9.35898C21.3918 9.29261 21.418 9.22977 21.4596 9.1774L21.796 8.84096C22.3262 8.30965 22.6239 7.58973 22.6239 6.83915C22.6239 6.08857 22.3262 5.36864 21.796 4.83733L21.1281 4.17039C20.5971 3.63949 19.8771 3.34124 19.1262 3.34124C18.3754 3.34124 17.6554 3.63949 17.1244 4.17039L16.788 4.50683C16.7387 4.54954 16.6783 4.57734 16.6138 4.58698C16.5494 4.59662 16.4835 4.5877 16.4239 4.56126C16.366 4.53801 16.3164 4.49817 16.2812 4.44675C16.2459 4.39533 16.2267 4.33464 16.2259 4.27232V3.79734C16.2252 3.0464 15.9264 2.32648 15.3952 1.79567C14.864 1.26486 14.1439 0.96657 13.3929 0.966309L12.4499 0.966309C11.6993 0.967094 10.9797 1.26562 10.4489 1.79637C9.91819 2.32712 9.61967 3.04675 9.61888 3.79734V4.27232C9.6181 4.33464 9.59889 4.39533 9.56367 4.44675C9.52846 4.49817 9.4788 4.53801 9.42098 4.56126C9.36125 4.5879 9.29516 4.59693 9.23047 4.58729C9.16579 4.57765 9.1052 4.54974 9.05584 4.50683L8.7194 4.17039C8.18848 3.63949 7.46841 3.34124 6.71759 3.34124C5.96677 3.34124 5.2467 3.63949 4.71578 4.17039L4.04884 4.83733C3.51866 5.36864 3.22091 6.08857 3.22091 6.83915C3.22091 7.58973 3.51866 8.30965 4.04884 8.84096L4.38528 9.1774C4.42683 9.22977 4.45308 9.29261 4.46111 9.35898C4.46914 9.42535 4.45865 9.49265 4.4308 9.55342C4.40887 9.60965 4.37032 9.65787 4.32029 9.69164C4.27025 9.72541 4.21112 9.74312 4.15076 9.74242H3.67579C2.92485 9.74268 2.20471 10.041 1.67353 10.5718C1.14235 11.1026 0.84356 11.8225 0.842773 12.5735L0.842773 13.5175C0.843559 14.2681 1.14208 14.9877 1.67283 15.5184C2.20358 16.0492 2.92321 16.3477 3.67381 16.3485H4.14878C4.2111 16.3493 4.27179 16.3685 4.32321 16.4037C4.37463 16.4389 4.41448 16.4886 4.43772 16.5464L4.44366 16.5622C4.48569 16.6838 4.55209 16.7954 4.63881 16.8903C4.72553 16.9853 4.83073 17.0615 4.94796 17.1143C5.06519 17.1672 5.19198 17.1955 5.32055 17.1976C5.44911 17.1997 5.57675 17.1755 5.69563 17.1264C5.81451 17.0774 5.92212 17.0047 6.01186 16.9126C6.10161 16.8205 6.1716 16.711 6.21754 16.5909C6.26347 16.4708 6.28439 16.3426 6.279 16.2142C6.27362 16.0857 6.24204 15.9597 6.18621 15.8438V15.828C6.02146 15.4238 5.74005 15.0779 5.37788 14.8343C5.01571 14.5908 4.58919 14.4606 4.15274 14.4605H3.67777C3.42748 14.4602 3.18752 14.3607 3.01054 14.1837C2.83356 14.0067 2.73402 13.7668 2.73376 13.5165V12.5735C2.73402 12.3232 2.83356 12.0832 3.01054 11.9062C3.18752 11.7292 3.42748 11.6297 3.67777 11.6294H4.15274C4.58919 11.6293 5.01571 11.4991 5.37788 11.2556C5.74005 11.012 6.02146 10.6661 6.18621 10.2619V10.2481C6.35563 9.84575 6.40139 9.40211 6.31768 8.97369C6.23397 8.54527 6.02458 8.15148 5.71619 7.84253L5.37975 7.50609C5.20301 7.32893 5.10375 7.0889 5.10375 6.83865C5.10375 6.5884 5.20301 6.34837 5.37975 6.17122L6.04669 5.50428C6.13222 5.41293 6.23558 5.34011 6.35039 5.29033C6.46519 5.24055 6.58899 5.21487 6.71413 5.21487C6.83926 5.21487 6.96306 5.24055 7.07787 5.29033C7.19267 5.34011 7.29604 5.41293 7.38156 5.50428L7.718 5.84071C8.02738 6.14942 8.42175 6.35891 8.85074 6.44246C9.27974 6.526 9.72389 6.4798 10.1265 6.30975H10.1384C10.5425 6.145 10.8885 5.86359 11.132 5.50142C11.3756 5.13924 11.5058 4.71273 11.5059 4.27627V3.8013C11.5062 3.55101 11.6057 3.31105 11.7827 3.13408C11.9597 2.9571 12.1996 2.85756 12.4499 2.85729H13.3939C13.6442 2.85756 13.8842 2.9571 14.0611 3.13408C14.2381 3.31105 14.3377 3.55101 14.3379 3.8013V4.27627C14.338 4.71261 14.468 5.13905 14.7114 5.50121C14.9548 5.86337 15.3005 6.14484 15.7045 6.30975L15.7163 6.3147C16.1188 6.48453 16.5628 6.53062 16.9916 6.44708C17.4204 6.36354 17.8146 6.15417 18.1239 5.84566L18.4603 5.50922C18.5458 5.41788 18.6492 5.34506 18.764 5.29528C18.8788 5.2455 19.0026 5.21981 19.1277 5.21981C19.2529 5.21981 19.3767 5.2455 19.4915 5.29528C19.6063 5.34506 19.7096 5.41788 19.7952 5.50922L20.4621 6.17616C20.6389 6.35332 20.7381 6.59335 20.7381 6.8436C20.7381 7.09385 20.6389 7.33388 20.4621 7.51103L20.1257 7.84747C19.8173 8.15642 19.6079 8.55021 19.5242 8.97863C19.4405 9.40706 19.4862 9.8507 19.6556 10.253L19.6616 10.2669C19.8262 10.671 20.1074 11.0168 20.4694 11.2604C20.8314 11.504 21.2578 11.6342 21.6941 11.6344H22.169C22.4193 11.6347 22.6593 11.7342 22.8363 11.9112C23.0132 12.0882 23.1128 12.3281 23.1131 12.5784V13.5224C23.1128 13.7727 23.0132 14.0127 22.8363 14.1896C22.6593 14.3666 22.4193 14.4662 22.169 14.4664H21.6941C21.2576 14.4666 20.8311 14.5967 20.4689 14.8403C20.1068 15.0838 19.8253 15.4298 19.6606 15.8339L19.6547 15.8488C19.5635 16.0793 19.5666 16.3364 19.6633 16.5646C19.7601 16.7928 19.9427 16.9738 20.1717 17.0685C20.4008 17.1632 20.6579 17.164 20.8875 17.0708C21.1172 16.9775 21.301 16.7977 21.3992 16.5701L21.4051 16.5543C21.4284 16.4965 21.4682 16.4468 21.5196 16.4116C21.5711 16.3764 21.6318 16.3572 21.6941 16.3564H22.169C22.9196 16.3556 23.6393 16.0571 24.17 15.5264C24.7008 14.9956 24.9993 14.276 25.0001 13.5254V12.5735C24.9993 11.8229 24.7008 11.1032 24.17 10.5725C23.6393 10.0417 22.9196 9.7432 22.169 9.74242Z" fill="#00A481"/>
</g>
<defs>
<clipPath id="clip0_1225_1851">
<rect width="24.1573" height="24.1573" fill="white" transform="translate(0.842773 0.966309)"/>
</clipPath>
</defs>
</svg>
