<svg width="158" height="31" viewBox="0 0 158 31" fill="none" xmlns="http://www.w3.org/2000/svg">
<path d="M12.1615 16.7121H8.55913V7.31369C8.62233 6.61042 8.43273 5.97107 7.92713 5.4596C7.29513 5.13992 6.59993 4.94812 5.90473 5.07599C5.01993 5.07599 3.06073 5.20386 0.090332 5.4596V2.45468C2.87113 2.13501 5.14633 2.00714 6.91593 2.00714C8.24313 1.87927 9.63353 2.19894 10.7711 2.96615C11.7823 3.9891 12.3511 5.39566 12.1615 6.86615V16.7121ZM3.75593 16.7121H0.090332V8.84812H3.75593V16.7121Z" fill="white"/>
<path d="M26.8239 6.80225C26.8871 8.14488 26.6975 9.55143 26.3183 10.8301C25.7495 12.3645 24.8015 13.7072 23.6007 14.6662L20.9463 16.9039L18.8607 14.3465L21.0095 12.5564C21.7679 11.9809 22.3367 11.2137 22.7159 10.3186C22.9687 9.55143 23.0951 8.78422 23.0319 8.01701V5.20389H13.8047V2.19897H26.2551C26.6975 2.19897 26.8871 2.39078 26.8871 2.77438L26.8239 6.80225ZM17.6599 19.9727H13.9943V7.50553H17.6599V19.9727Z" fill="white"/>
<path d="M33.8391 16.712H30.1735V5.13988H28.1511V2.1989H33.2703C33.5231 2.13496 33.7759 2.32676 33.8391 2.64644C33.8391 2.71037 33.8391 2.7743 33.8391 2.7743V16.712Z" fill="white"/>
<path d="M46.2896 16.7121H42.624V7.63343C42.6872 6.93015 42.4976 6.16294 41.992 5.58753C41.2968 5.13999 40.4752 4.94819 39.7168 5.01212C39.5904 5.01212 38.1368 5.13999 35.356 5.33179V2.32687C38.2632 2.13507 40.1592 2.0072 40.9808 2.0072C43.0032 2.0072 44.4568 2.45474 45.2152 3.28589C46.0368 4.37278 46.3528 5.65146 46.2264 6.99409L46.2896 16.7121Z" fill="white"/>
<path d="M53.1782 9.93497H49.5126V5.13988H47.4902V2.1989H52.6094C52.9254 2.13497 53.1782 2.3907 53.1782 2.64644C53.1782 2.71038 53.1782 2.77431 53.1782 2.77431V9.93497Z" fill="white"/>
<path d="M72.391 16.7121H68.7886V7.31369C68.8518 6.61042 68.6622 5.97107 68.1566 5.4596C67.5246 5.13992 66.8294 4.94812 66.1342 5.07599C65.2494 5.07599 63.2902 5.20386 60.3198 5.4596V2.45468C63.1006 2.13501 65.3758 2.00714 67.1454 2.00714C68.4726 1.87927 69.863 2.19894 71.0006 2.96615C72.0118 3.9891 72.5806 5.39566 72.391 6.86615V16.7121ZM64.0486 16.7121H60.383V8.84812H64.0486V16.7121Z" fill="white"/>
<path d="M87.8118 8.976V16.0727C87.875 16.3924 87.6222 16.6481 87.3062 16.7121C87.243 16.7121 87.1798 16.7121 87.1798 16.7121H80.4174V13.7071H84.2726L84.2094 8.59239C84.3358 7.44157 83.8302 6.29075 82.8822 5.58747C82.3766 5.33173 81.7446 5.20386 81.1758 5.20386C80.7334 5.20386 80.291 5.33173 79.975 5.58747C79.5958 5.84321 79.2798 6.16288 79.027 6.54649C78.7742 7.1219 78.6478 7.82517 78.5846 8.46452L77.8894 16.7121H74.2238L75.1086 7.82517C75.235 7.18583 75.1718 6.54649 74.8558 5.97108L73.2126 4.18091L76.1198 1.3678L77.9526 3.54157C78.9638 2.64649 80.291 2.13501 81.6814 2.07108C82.9454 2.00714 84.2094 2.32681 85.347 2.96616C86.9902 3.98911 87.8118 5.97108 87.8118 8.976Z" fill="white"/>
<path d="M94.7007 9.93497H91.0351V5.13988H89.0127V2.1989H94.1319C94.4479 2.13497 94.7007 2.3907 94.7007 2.64644C94.7007 2.71038 94.7007 2.77431 94.7007 2.77431V9.93497Z" fill="white"/>
<path d="M110.69 16.712H107.025V7.56942C107.025 5.90713 106.266 5.07598 104.813 5.07598C104.497 5.07598 103.549 5.07598 102.095 5.13992V16.0727C102.095 16.5202 101.906 16.712 101.526 16.712H96.2175V13.7711H98.5559V5.26778L97.0391 5.33172V2.3268C97.4815 2.3268 98.4927 2.3268 100.199 2.26287C101.779 2.135 103.043 2.135 103.928 2.135C105.192 2.07106 106.456 2.135 107.72 2.39074C108.542 2.64647 109.3 3.22188 109.806 3.86123C110.438 4.82024 110.754 6.035 110.627 7.18582L110.69 16.712Z" fill="white"/>
<path d="M125.479 16.712H121.877V7.3776C122.066 6.29072 121.308 5.20383 120.17 5.07596C119.981 5.07596 119.791 5.01203 119.602 5.07596C118.654 5.07596 117.706 5.1399 116.884 5.20383V16.776H113.282V5.26777H111.954V2.32678C116.947 2.19891 119.222 2.07104 118.906 2.07104C121.561 2.07104 123.33 2.45465 124.152 3.22186C125.1 4.18088 125.542 5.45957 125.479 6.80219V16.712Z" fill="white"/>
<path d="M2.40209 30.2597H0.948488V23.6105H0.000488281V22.4597H2.08609C2.14929 22.4597 2.21249 22.5237 2.27569 22.5876C2.33889 22.6515 2.40209 22.7155 2.40209 22.7794V30.2597Z" fill="white"/>
<path d="M6.19415 25.5286H4.74055V23.6105H3.91895V22.4597H5.94134C6.06775 22.4597 6.13095 22.5237 6.19415 22.6515V22.7155V25.5286Z" fill="white"/>
<path d="M9.85967 25.5286H8.40607V23.6105H7.58447V22.4597H9.60687C9.73327 22.4597 9.79647 22.5237 9.85967 22.6515V22.7155V25.5286Z" fill="white"/>
<path d="M15.8636 24.1221C15.8636 24.6336 15.8004 25.145 15.674 25.6565C15.5476 25.9762 15.4212 26.2319 15.2316 26.4876C15.042 26.8073 14.7892 27.0631 14.4732 27.2549L13.2092 28.2778L12.4508 27.2549L13.3356 26.5516C13.5884 26.3598 13.778 26.168 13.9676 25.9122C14.094 25.7844 14.1572 25.5926 14.2204 25.4008C14.2836 25.0811 14.3468 24.7614 14.3468 24.4417V23.5467H11.566C11.4396 23.5467 11.3132 23.4827 11.3132 23.3549V23.2909V20.5417H12.7668V22.3958H15.6108C15.8004 22.3958 15.8636 22.4598 15.8636 22.6516V24.1221Z" fill="white"/>
<path d="M20.6036 27.9581C20.6036 28.1499 20.5404 28.2138 20.3508 28.2138H17.4436V27.063H19.0868V24.1859C19.0868 23.9941 19.0868 23.8663 18.9604 23.7384C18.834 23.6745 18.7076 23.6105 18.518 23.6105C18.2652 23.6105 17.9492 23.6745 17.6964 23.7384V22.5876C18.1388 22.5237 18.518 22.4597 18.9604 22.4597C19.7188 22.4597 20.2244 22.6515 20.3508 23.0991C20.4772 23.4187 20.4772 23.7384 20.4772 24.0581V25.9122C20.4772 26.4876 20.4772 26.9991 20.6036 27.5745V27.9581Z" fill="white"/>
<path d="M24.3326 28.2138H22.879V23.6105H22.0574V22.4597H24.0798C24.2062 22.4597 24.2694 22.5237 24.3326 22.6515V22.7155V28.2138Z" fill="white"/>
<path d="M31.6636 27.5106L30.526 28.4057L27.8716 25.0172L27.682 25.209C27.4924 25.4008 27.4292 25.6565 27.4292 25.9123C27.4292 26.168 27.4924 26.3598 27.6188 26.5516L27.998 27.2549C28.0612 27.3828 28.1244 27.5746 28.1244 27.7024V28.2139H26.0388V27.7664L26.6076 27.5106L26.418 26.8073C26.2916 26.5516 26.2284 26.2319 26.2284 25.9762C26.2284 25.6565 26.2916 25.4008 26.418 25.1451C26.5444 24.8893 26.734 24.6336 26.9868 24.3778L27.2396 24.1221L25.9756 22.5877V22.4598H27.682L29.5148 24.6975C29.578 24.5696 29.7044 24.4418 29.7676 24.3139C29.9572 23.9303 30.0204 23.5467 30.0204 23.1631V22.3959H31.474L31.3476 23.291C31.3476 23.9303 31.0948 24.5057 30.7156 25.0172L30.1468 25.5926L31.6636 27.5106Z" fill="white"/>
<path d="M41.3966 28.0221C41.3966 28.086 41.3966 28.086 41.3334 28.1499C41.3334 28.2139 41.2702 28.2139 41.207 28.2139H37.0358C36.9726 28.2139 36.9726 28.2139 36.9094 28.1499C36.8462 28.1499 36.8462 28.086 36.8462 28.0221V23.3549H36.3406V22.4598C37.9206 22.3958 38.8054 22.3319 38.995 22.3319C39.311 22.3319 39.6902 22.3319 40.0062 22.3958C40.3854 22.4598 40.7014 22.5876 40.9542 22.8434C41.2702 23.227 41.4598 23.8024 41.3966 24.3139V28.0221ZM40.3854 27.2549V24.5057C40.3854 24.186 40.3222 23.8663 40.1326 23.5467C39.8798 23.2909 39.5638 23.227 39.2478 23.227C38.6158 23.227 38.1102 23.227 37.7942 23.2909V27.2549H40.3854Z" fill="white"/>
<path d="M44.999 25.5286H43.9878V23.3548H42.9766V22.4597H44.8726C44.9358 22.4597 44.9358 22.5237 44.999 22.5237C45.0622 22.5876 45.0622 22.5876 45.0622 22.6515L44.999 25.5286Z" fill="white"/>
<path d="M50.9397 25.2729C51.0029 25.9762 50.8133 26.6795 50.4341 27.2549C49.9285 27.9582 49.1069 28.3418 48.2221 28.2778C47.7165 28.2778 47.2741 28.2139 46.7685 28.15V27.2549C47.2109 27.3188 47.7165 27.3828 48.1589 27.3828C48.5381 27.3828 48.9173 27.3188 49.2333 27.0631C49.4861 26.8713 49.6757 26.6155 49.8021 26.2959C49.8653 25.9762 49.9285 25.6565 49.9285 25.3369C49.9285 24.25 49.5493 23.6106 48.8541 23.4188C48.5381 23.3549 48.2853 23.291 47.9693 23.291C47.5269 23.291 47.1477 23.3549 46.7053 23.4828V22.5877C47.2109 22.4598 47.7165 22.3959 48.2221 22.3959C48.6013 22.3959 48.9805 22.4598 49.3597 22.5237C50.3709 22.8434 50.9397 23.7385 50.9397 25.2729Z" fill="white"/>
<path d="M57.5126 28.0221C57.5126 28.086 57.5126 28.086 57.4494 28.15C57.4494 28.2139 57.3862 28.2139 57.323 28.2139H54.7318V27.2549H56.5646V24.7614C56.6278 24.25 56.375 23.8024 55.9958 23.4828C55.743 23.3549 55.427 23.291 55.111 23.291C54.8582 23.291 54.6054 23.3549 54.4158 23.5467C54.2894 23.6746 54.163 23.8024 54.0366 23.9303C53.9102 24.0582 53.847 24.25 53.7838 24.3778C53.7206 24.6975 53.7206 24.9533 53.6574 25.209L53.4046 28.15H52.4566L52.8358 24.6975C52.8358 24.3778 52.899 24.25 52.899 24.25C52.899 24.0582 52.8358 23.9303 52.7094 23.8024L52.0142 22.9073L52.8358 22.1401L53.5942 23.0992C53.7206 22.9713 53.847 22.7795 54.0366 22.7155C54.163 22.6516 54.2894 22.5237 54.4158 22.4598C54.6686 22.3319 54.8582 22.268 55.111 22.268C55.6166 22.2041 56.1854 22.3319 56.6278 22.6516C56.9438 22.9073 57.1966 23.227 57.323 23.5467C57.4494 23.9942 57.5126 24.4418 57.5126 24.8254V28.0221Z" fill="white"/>
<path d="M64.5908 25.3369C64.5908 25.7205 64.5276 26.0401 64.4644 26.4237C64.338 26.9352 64.0852 27.3828 63.706 27.7664C63.4532 28.0221 63.2004 28.15 62.8844 28.2778C62.6948 28.3418 62.442 28.4057 62.1892 28.4057C61.8732 28.4057 61.5572 28.4057 61.2412 28.3418C60.9252 28.2778 60.6724 28.15 60.4196 27.9582C60.1668 27.7664 59.914 27.5106 59.7876 27.191C59.5348 26.6155 59.4084 26.0401 59.4084 25.4008V25.3369C59.4084 24.5696 59.6612 23.8024 60.1668 23.291L59.3452 23.3549V22.4598C60.7356 22.3959 61.5572 22.3959 61.81 22.3959C62.1892 22.3959 62.5052 22.3959 62.8844 22.4598C63.2004 22.5237 63.4532 22.6516 63.706 22.8434C64.022 23.0992 64.2748 23.4828 64.4012 23.8664C64.5276 24.3139 64.654 24.8254 64.5908 25.3369ZM63.5796 25.3369C63.6428 24.6975 63.4532 24.0582 63.074 23.5467C62.9476 23.4188 62.758 23.3549 62.6316 23.291C62.3788 23.227 62.126 23.227 61.8732 23.227C61.6204 23.227 61.3676 23.227 61.1148 23.227C61.1148 23.291 61.0516 23.3549 60.9252 23.4828C60.546 23.9942 60.4196 24.6336 60.4196 25.2729V25.4008C60.3564 25.9762 60.546 26.5516 60.862 27.0631C60.9884 27.2549 61.2412 27.3828 61.4308 27.5106C61.6204 27.5746 61.8732 27.6385 62.0628 27.5746C62.3156 27.5746 62.5684 27.5106 62.8212 27.3828C63.0108 27.2549 63.1372 27.0631 63.2636 26.8713C63.5164 26.3598 63.5796 25.8483 63.5796 25.3369Z" fill="white"/>
<path d="M71.2902 28.0221C71.2902 28.086 71.2901 28.086 71.2269 28.15C71.2269 28.2139 71.1637 28.2139 71.1005 28.2139H68.5094V27.2549H70.3422V24.7614C70.4054 24.25 70.1526 23.8024 69.7734 23.4828C69.5206 23.3549 69.2045 23.291 68.8885 23.291C68.6357 23.291 68.383 23.3549 68.1934 23.5467C68.067 23.6746 67.9406 23.8024 67.8142 23.9303C67.6878 24.0582 67.6246 24.25 67.5614 24.3778C67.4982 24.6975 67.4981 24.9533 67.4349 25.209L67.1822 28.15H66.2342L66.6134 24.6975C66.6134 24.3778 66.6765 24.25 66.6765 24.25C66.6765 24.0582 66.6133 23.9303 66.4869 23.8024L65.7917 22.9073L66.6134 22.1401L67.3717 23.0992C67.4981 22.9713 67.6246 22.7795 67.8142 22.7155C67.9406 22.6516 68.067 22.5237 68.1934 22.4598C68.4462 22.3319 68.6357 22.268 68.8885 22.268C69.3941 22.2041 69.963 22.3319 70.4054 22.6516C70.7214 22.9073 70.9741 23.227 71.1005 23.5467C71.2269 23.9942 71.2902 24.4418 71.2902 24.8254V28.0221Z" fill="white"/>
<path d="M80.5806 24.186C80.5806 24.4417 80.5806 24.7614 80.5174 25.0171C80.4542 25.5925 80.2646 26.104 79.8854 26.5516C79.3166 27.2548 78.6846 27.8302 77.9894 28.4057L77.4206 27.7024C78.1158 27.2548 78.6846 26.6794 79.1902 26.0401C79.3798 25.7204 79.5062 25.4007 79.5062 25.0811C79.5062 24.8893 79.5062 24.3138 79.5062 23.4188H76.4726C76.4094 23.4188 76.4094 23.4188 76.3462 23.3548C76.283 23.3548 76.283 23.2909 76.283 23.227V20.4778H77.2942V22.5237H80.3278C80.391 22.5237 80.4542 22.5237 80.4542 22.5876C80.5174 22.5876 80.5174 22.6516 80.5174 22.7155L80.5806 24.186Z" fill="white"/>
<path d="M87.2798 22.4598L87.027 25.5287C87.027 26.2959 86.711 27.0631 86.1422 27.6385C85.6998 28.0221 85.0678 28.2778 84.499 28.3418L82.4766 28.7254V27.7664L83.9302 27.6385L82.5398 22.4598H83.6774L85.0046 27.3828C85.1942 27.3188 85.447 27.191 85.5734 26.9992C85.8894 26.6155 86.079 26.1041 86.079 25.5287L86.2686 22.3959L87.2798 22.4598Z" fill="white"/>
<path d="M97.202 28.0221C97.202 28.086 97.202 28.086 97.1388 28.1499C97.1388 28.2139 97.0756 28.2139 97.0124 28.2139H92.8412C92.778 28.2139 92.778 28.2139 92.7148 28.1499C92.6516 28.1499 92.6516 28.086 92.6516 28.0221V23.3549H92.146V22.4598C93.726 22.3958 94.6108 22.3319 94.8004 22.3319C95.1164 22.3319 95.4956 22.3319 95.8116 22.3958C96.1908 22.4598 96.5068 22.5876 96.7596 22.8434C97.0756 23.227 97.2652 23.8024 97.202 24.3139V28.0221ZM96.1908 27.2549V24.5057C96.1908 24.186 96.1276 23.8663 95.938 23.5467C95.6852 23.2909 95.3692 23.227 95.0532 23.227C94.4212 23.227 93.9156 23.227 93.5996 23.2909V27.2549H96.1908Z" fill="white"/>
<path d="M100.868 25.5286H99.8564V23.3548H98.8452V22.4597H100.741C100.804 22.4597 100.804 22.5237 100.868 22.5237C100.931 22.5237 100.931 22.5876 100.931 22.6515V25.5286H100.868Z" fill="white"/>
<path d="M107.82 28.0221C107.82 28.086 107.82 28.086 107.756 28.15C107.756 28.2139 107.693 28.2139 107.63 28.2139H105.039V27.2549H106.872V24.7614C106.935 24.25 106.682 23.8024 106.303 23.4828C106.05 23.3549 105.734 23.291 105.418 23.291C105.165 23.291 104.912 23.3549 104.723 23.5467C104.596 23.6746 104.47 23.8024 104.344 23.9303C104.217 24.0582 104.154 24.25 104.091 24.3778C104.028 24.6975 104.028 24.9533 103.964 25.209L103.712 28.15H102.764L103.143 24.6975C103.143 24.3778 103.206 24.25 103.206 24.25C103.206 24.0582 103.143 23.9303 103.016 23.8024L102.321 22.9073L103.143 22.1401L103.901 23.0992C104.028 22.9713 104.154 22.7795 104.344 22.7155C104.47 22.6516 104.596 22.5237 104.723 22.4598C104.976 22.3319 105.165 22.268 105.418 22.268C105.924 22.2041 106.492 22.3319 106.935 22.6516C107.251 22.9073 107.504 23.227 107.63 23.5467C107.756 23.9942 107.82 24.4418 107.82 24.8254V28.0221Z" fill="white"/>
<path d="M115.088 28.2138H114.076V24.6335C114.076 24.2499 113.95 23.8663 113.697 23.5466C113.444 23.3548 113.128 23.2269 112.812 23.2269C112.686 23.2269 112.244 23.2269 111.485 23.2909V28.022C111.485 28.0859 111.485 28.0859 111.422 28.1499C111.422 28.2138 111.359 28.2138 111.296 28.2138H109.463V27.3187H110.474V23.3548L109.842 23.4187V22.5237C110.727 22.4597 111.675 22.4597 112.686 22.4597C113.128 22.4597 113.508 22.5237 113.95 22.5876C114.329 22.7155 114.708 23.0351 114.835 23.4827C115.024 23.9941 115.088 24.5696 115.024 25.145L115.088 28.2138Z" fill="white"/>
<path d="M118.753 28.2138H117.742V23.3548H116.731V22.4597H118.627C118.69 22.4597 118.69 22.5237 118.753 22.5237C118.817 22.5876 118.817 22.5876 118.817 22.6515L118.753 28.2138Z" fill="white"/>
<path d="M125.516 28.2139H124.505V24.5057C124.568 24.186 124.441 23.8663 124.315 23.5467C124.125 23.2909 123.809 23.1631 123.493 23.227C122.798 23.227 122.293 23.227 121.977 23.2909V28.2139H120.965V23.3549H120.586V22.4598C122.166 22.3958 123.051 22.3319 123.304 22.3319C123.62 22.3319 123.999 22.3319 124.315 22.3958C124.821 22.4598 125.326 22.7795 125.453 23.2909C125.516 23.6106 125.579 23.9303 125.579 24.2499L125.516 28.2139Z" fill="white"/>
<path d="M153.057 22.2328C153.121 22.6164 153.69 26.6443 150.15 26.9639C144.589 27.4754 144.652 20.1229 145.031 16.2869C143.388 19.1 139.153 25.3016 133.465 27.0918L133.718 24.4705C133.718 24.4705 139.596 23.2558 144.589 15.5197C141.871 18.0131 135.614 22.8722 132.707 17.7574C131.001 14.7525 134.35 12.8984 134.856 12.6426C133.971 11.6836 132.138 9.0623 134.224 7.08034C137.826 3.62788 141.682 7.78362 143.957 11.0443C143.072 7.14428 142.503 1.07049 147.559 0.750814C151.225 0.495076 151.161 4.90656 151.161 5.03443C152.362 4.65082 155.522 4.07543 156.407 6.88854C157.798 11.3 153.31 13.0902 149.518 13.7935C153.437 13.8574 158.493 14.8164 157.797 19.5476C157.481 22.5525 154.258 22.4246 153.057 22.2328Z" fill="white"/>
</svg>
