<svg width="141" height="216" viewBox="0 0 141 216" fill="none" xmlns="http://www.w3.org/2000/svg">
<path d="M138.436 54.9357H128.654C127.239 54.9357 126.09 56.0771 126.09 57.487V63.0575C126.09 64.4653 127.237 65.6089 128.654 65.6089H135.162L136.74 68.2772L138.081 65.6089H138.436C139.851 65.6089 141.001 64.4675 141.001 63.0575V57.487C141.001 56.0792 139.853 54.9357 138.436 54.9357Z" fill="white"/>
<mask id="mask0_54469_12770" style="mask-type:alpha" maskUnits="userSpaceOnUse" x="116" y="22" width="12" height="11">
<rect x="116.819" y="22.7592" width="10.2217" height="10.2217" fill="#D9D9D9"/>
</mask>
<g mask="url(#mask0_54469_12770)">
<path d="M121.483 29.382L123.89 26.9756L123.283 26.3687L121.483 28.1681L120.589 27.2737L119.982 27.8806L121.483 29.382ZM121.93 32.129C120.944 31.8806 120.129 31.3145 119.487 30.4307C118.844 29.547 118.523 28.5656 118.523 27.4867V24.8887L121.93 23.611L125.338 24.8887V27.4867C125.338 28.5656 125.016 29.547 124.374 30.4307C123.732 31.3145 122.917 31.8806 121.93 32.129Z" fill="white"/>
</g>
<mask id="mask1_54469_12770" style="mask-type:alpha" maskUnits="userSpaceOnUse" x="100" y="40" width="17" height="16">
<rect x="100.976" y="40.136" width="15.8436" height="15.8436" fill="#D9D9D9"/>
</mask>
<g mask="url(#mask1_54469_12770)">
<path d="M108.898 48.0578C108.171 48.0578 107.55 47.7993 107.033 47.2821C106.516 46.765 106.257 46.1434 106.257 45.4172C106.257 44.691 106.516 44.0694 107.033 43.5523C107.55 43.0352 108.171 42.7766 108.898 42.7766C109.624 42.7766 110.245 43.0352 110.763 43.5523C111.28 44.0694 111.538 44.691 111.538 45.4172C111.538 46.1434 111.28 46.765 110.763 47.2821C110.245 47.7993 109.624 48.0578 108.898 48.0578ZM103.616 53.339V51.4906C103.616 51.1165 103.713 50.7727 103.905 50.4591C104.098 50.1455 104.354 49.9062 104.673 49.7412C105.355 49.4001 106.048 49.1443 106.752 48.9738C107.456 48.8032 108.171 48.718 108.898 48.718C109.624 48.718 110.339 48.8032 111.043 48.9738C111.747 49.1443 112.44 49.4001 113.123 49.7412C113.442 49.9062 113.698 50.1455 113.89 50.4591C114.083 50.7727 114.179 51.1165 114.179 51.4906V53.339H103.616Z" fill="white"/>
</g>
<path d="M91.8306 214.861C94.4742 172.915 86.4158 157.944 86.4158 157.944L19.8098 158.061C11.1732 167.974 9.12339 182.088 9.39426 214.861H91.8306Z" fill="white"/>
<path d="M91.8307 215.122C91.8307 215.122 91.8203 215.122 91.815 215.122C91.6718 215.114 91.5624 214.989 91.5702 214.846C94.0472 175.528 87.0331 159.809 86.2544 158.205L19.9271 158.322C11.7775 167.745 9.37349 181 9.65218 214.859C9.65218 215.002 9.53758 215.119 9.39433 215.122C9.25108 215.122 9.13388 215.007 9.13388 214.864C8.85259 180.744 11.3009 167.433 19.6146 157.89C19.664 157.832 19.7344 157.801 19.8099 157.801L86.4158 157.684C86.5044 157.684 86.6008 157.736 86.6451 157.822C86.7284 157.976 88.6975 161.703 90.3696 170.626C91.9089 178.841 93.4559 193.184 92.0885 214.88C92.0807 215.018 91.9661 215.124 91.8281 215.124L91.8307 215.122Z" fill="#007058"/>
<path d="M64.499 215.158C64.3687 215.158 64.2567 215.062 64.2411 214.929L62.0455 197.174C62.0377 197.122 62.0481 197.07 62.0741 197.023L65.5538 190.339C65.6189 190.212 65.7778 190.162 65.9054 190.227C66.033 190.293 66.0825 190.451 66.0148 190.579L62.5742 197.192L64.7594 214.866C64.7777 215.01 64.676 215.14 64.5328 215.158C64.5224 215.158 64.512 215.158 64.5016 215.158H64.499Z" fill="#007058"/>
<path d="M104.772 103.483C104.772 103.483 130.385 140.999 119.668 151.37C108.95 161.739 84.2457 145.789 74.437 123.153L104.772 103.483Z" fill="white"/>
<path d="M111.133 154.863C109.958 154.863 108.726 154.735 107.442 154.48C95.1432 152.032 80.8495 138.608 74.1975 123.257C74.148 123.14 74.1871 123.004 74.2939 122.934L104.629 103.264C104.749 103.186 104.905 103.22 104.986 103.337C105.051 103.431 111.458 112.854 116.472 123.426C123.244 137.704 124.379 147.169 119.845 151.555C117.584 153.743 114.612 154.86 111.13 154.86L111.133 154.863ZM74.7626 123.252C81.3912 138.376 95.4506 151.563 107.543 153.97C112.461 154.949 116.589 153.985 119.485 151.183C129.513 141.481 106.733 106.882 104.699 103.843L74.7653 123.252H74.7626Z" fill="white"/>
<path d="M100.436 147.901C100.337 147.901 100.24 147.843 100.196 147.747L86.6186 117.151C86.5613 117.021 86.6186 116.865 86.7514 116.808C86.8842 116.748 87.0353 116.808 87.0952 116.941L100.673 147.536C100.73 147.666 100.673 147.823 100.54 147.88C100.506 147.895 100.47 147.903 100.436 147.903V147.901Z" fill="white"/>
<path d="M95.3103 91.3612C85.6943 79.5574 71.062 72.9861 55.8411 73.2414C55.8411 73.2414 34.8745 72.3741 24.3599 75.8772C-2.53717 85.79 -2.79242 114.961 4.82326 130.984C6.25315 133.992 7.98262 137.581 9.95426 141.439L8.64938 163.226C8.38893 167.583 12.1915 171.081 16.5099 170.456L26.9932 168.943C32.507 175.714 38.4297 180.674 44.3055 181.382C57.2788 182.947 74.0702 165.325 79.0137 159.733L89.3146 158.264C92.9584 157.743 95.3103 154.138 94.3205 150.594L90.5622 137.141L112.568 124.613C112.568 124.613 107.52 106.348 95.3129 91.3638L95.3103 91.3612Z" fill="#007058"/>
<path d="M75.7449 130.747C75.6434 130.747 75.5496 130.69 75.5053 130.591C75.448 130.458 75.508 130.304 75.6408 130.247C80.7717 128.012 84.5196 122.975 85.1838 117.417C85.848 111.859 83.3971 106.082 78.9381 102.696C78.8235 102.61 78.8001 102.446 78.8886 102.332C78.9746 102.217 79.1387 102.194 79.2533 102.282C83.8555 105.775 86.3871 111.739 85.6995 117.48C85.0119 123.217 81.1442 128.416 75.8466 130.724C75.8127 130.739 75.7762 130.745 75.7423 130.745L75.7449 130.747Z" fill="white"/>
<path d="M50.322 143.519C50.2413 143.519 50.1606 143.48 50.1111 143.41L35.1688 122.48C34.3353 121.31 33.3899 119.987 33.1711 118.425C32.9549 116.872 33.6998 115.01 35.3173 114.575C35.4579 114.539 35.5985 114.619 35.6376 114.76C35.6741 114.898 35.5933 115.041 35.4527 115.08C34.1322 115.435 33.5071 117.057 33.6894 118.354C33.89 119.792 34.7964 121.06 35.5934 122.18L50.5356 143.11C50.6189 143.228 50.5929 143.389 50.4757 143.475C50.4288 143.509 50.3767 143.524 50.3247 143.524L50.322 143.519Z" fill="white"/>
<path d="M37.4375 154.61C37.3542 154.61 37.2708 154.571 37.2213 154.495C37.1406 154.375 37.1719 154.214 37.2917 154.133L62.4046 137.245C62.5244 137.164 62.686 137.196 62.7667 137.315C62.8474 137.435 62.8162 137.597 62.6964 137.678L37.5833 154.565C37.5391 154.597 37.487 154.61 37.4375 154.61Z" fill="white"/>
<path d="M26.9907 169.2C26.9126 169.2 26.837 169.166 26.785 169.099C19.9949 160.339 14.0696 150.71 9.17307 140.477C9.11057 140.347 9.16525 140.191 9.29548 140.131C9.42571 140.068 9.57933 140.123 9.64184 140.253C14.5228 150.453 20.4299 160.05 27.1965 168.781C27.285 168.895 27.2642 169.057 27.1496 169.145C27.1027 169.182 27.0454 169.2 26.9907 169.2Z" fill="white"/>
<path d="M115.462 133.873L95.3806 136.684C93.3829 136.962 91.7498 135.113 92.2733 133.165L101.764 97.8134C102.236 96.0579 103.71 94.7556 105.507 94.5056L127.945 91.3645C129.128 91.1978 130.097 92.2943 129.787 93.4482L120.014 129.844C119.441 131.98 117.647 133.563 115.459 133.871L115.462 133.873Z" fill="#007058"/>
<path d="M94.5159 122.223L94.3098 123.014L95.1077 122.836H95.1086C95.1093 122.836 95.1103 122.835 95.1116 122.835C95.1143 122.834 95.1188 122.834 95.1243 122.833C95.1355 122.83 95.1528 122.826 95.175 122.821C95.2196 122.811 95.286 122.797 95.3723 122.778C95.5453 122.74 95.7997 122.686 96.1233 122.616C96.7708 122.477 97.6974 122.281 98.8118 122.053C101.041 121.596 104.023 121.011 107.031 120.497C110.042 119.982 113.067 119.54 115.391 119.366C116.556 119.279 117.522 119.26 118.214 119.328C118.562 119.362 118.813 119.415 118.978 119.477C119.062 119.51 119.104 119.537 119.121 119.551C119.121 119.571 119.118 119.615 119.089 119.689C119.04 119.817 118.941 119.983 118.783 120.182C118.47 120.581 117.994 121.029 117.48 121.458C116.97 121.883 116.443 122.273 116.042 122.558C115.842 122.701 115.674 122.817 115.557 122.896C115.498 122.936 115.452 122.967 115.421 122.987L115.377 123.016L115.375 123.017V123.018L114.958 123.29L115.228 123.708C115.228 123.709 115.229 123.71 115.23 123.711C115.235 123.72 115.244 123.736 115.255 123.76C115.279 123.808 115.313 123.885 115.347 123.989C115.415 124.197 115.481 124.509 115.458 124.907C115.415 125.688 115.025 126.885 113.445 128.317L113.082 128.645L113.403 129.015C113.404 129.017 113.408 129.022 113.413 129.028C113.424 129.042 113.441 129.065 113.463 129.096C113.507 129.158 113.568 129.253 113.63 129.374C113.755 129.618 113.877 129.955 113.885 130.346C113.9 131.071 113.519 132.2 111.368 133.349L111.082 133.502L111.103 133.801C111.102 133.805 111.102 133.813 111.1 133.824C111.093 133.862 111.076 133.941 111.028 134.059C110.93 134.296 110.706 134.694 110.194 135.24C109.165 136.337 107.004 137.997 102.496 140.109C97.9996 142.216 94.7718 143.021 92.6868 143.303C91.6443 143.444 90.8864 143.453 90.3977 143.431C90.1535 143.419 89.9759 143.4 89.8635 143.384C89.8075 143.376 89.7674 143.369 89.7434 143.364C89.7319 143.362 89.7241 143.36 89.72 143.359H89.719L89.3801 143.278L89.1868 143.568L79.0227 158.81L65.2493 136.771C65.4511 136.616 65.7351 136.4 66.0901 136.128C66.8566 135.541 67.9578 134.702 69.2932 133.692C71.9643 131.673 75.5745 128.974 79.3323 126.25C83.0914 123.525 86.9934 120.779 90.2493 118.667C91.8777 117.61 93.3378 116.716 94.5344 116.063C95.2599 115.668 95.8672 115.374 96.345 115.182L94.5159 122.223Z" fill="white" stroke="#007058"/>
<mask id="path-19-inside-1_54469_12770" fill="white">
<path d="M92.7539 144.06C92.6263 144.06 92.5143 143.966 92.4961 143.833C92.4778 143.69 92.5768 143.56 92.7201 143.541C94.6579 143.278 97.9422 142.51 102.599 140.327C111.267 136.267 111.345 133.832 111.345 133.808C111.335 133.665 111.444 133.54 111.587 133.529C111.736 133.519 111.856 133.628 111.866 133.772C111.887 134.048 111.796 136.592 102.823 140.799C98.1062 143.007 94.7646 143.789 92.7929 144.057C92.7825 144.057 92.7695 144.057 92.7591 144.057L92.7539 144.06Z"/>
</mask>
<path d="M92.7539 144.06C92.6263 144.06 92.5143 143.966 92.4961 143.833C92.4778 143.69 92.5768 143.56 92.7201 143.541C94.6579 143.278 97.9422 142.51 102.599 140.327C111.267 136.267 111.345 133.832 111.345 133.808C111.335 133.665 111.444 133.54 111.587 133.529C111.736 133.519 111.856 133.628 111.866 133.772C111.887 134.048 111.796 136.592 102.823 140.799C98.1062 143.007 94.7646 143.789 92.7929 144.057C92.7825 144.057 92.7695 144.057 92.7591 144.057L92.7539 144.06Z" fill="white"/>
<path d="M92.7539 144.06V145.06H92.99L93.2011 144.954L92.7539 144.06ZM92.4961 143.833L91.504 143.959L91.5053 143.969L92.4961 143.833ZM92.7201 143.541L92.8463 144.533L92.8546 144.532L92.7201 143.541ZM102.599 140.327L102.175 139.422L102.175 139.422L102.599 140.327ZM111.345 133.808H112.345V133.772L112.343 133.736L111.345 133.808ZM111.587 133.529L111.517 132.532L111.515 132.532L111.587 133.529ZM111.866 133.772L110.869 133.844L110.869 133.847L111.866 133.772ZM102.823 140.799L103.247 141.704L103.248 141.704L102.823 140.799ZM92.7929 144.057V145.057H92.8607L92.9278 145.048L92.7929 144.057ZM92.7591 144.057V143.057H92.5231L92.3119 143.163L92.7591 144.057ZM92.7539 144.06V143.06C93.12 143.06 93.4362 143.329 93.4868 143.697L92.4961 143.833L91.5053 143.969C91.5923 144.603 92.1325 145.06 92.7539 145.06V144.06ZM92.4961 143.833L93.4881 143.707C93.5383 144.101 93.261 144.481 92.8463 144.533L92.7201 143.541L92.5938 142.549C91.8926 142.639 91.4174 143.278 91.5041 143.959L92.4961 143.833ZM92.7201 143.541L92.8546 144.532C94.9021 144.254 98.2838 143.454 103.023 141.233L102.599 140.327L102.175 139.422C97.6005 141.566 94.4136 142.302 92.5856 142.55L92.7201 143.541ZM102.599 140.327L103.023 141.233C107.414 139.176 109.717 137.492 110.935 136.256C112.155 135.017 112.345 134.165 112.345 133.808H111.345H110.345C110.345 133.475 110.496 133.852 109.51 134.852C108.522 135.854 106.452 137.418 102.175 139.422L102.599 140.327ZM111.345 133.808L112.343 133.736C112.373 134.15 112.06 134.498 111.66 134.527L111.587 133.529L111.515 132.532C110.828 132.582 110.297 133.18 110.348 133.881L111.345 133.808ZM111.587 133.529L111.657 134.527C111.239 134.556 110.897 134.234 110.869 133.844L111.866 133.772L112.863 133.699C112.814 133.023 112.232 132.482 111.517 132.532L111.587 133.529ZM111.866 133.772L110.869 133.847C110.852 133.623 111.003 134.064 109.994 135.121C108.972 136.191 106.831 137.816 102.399 139.893L102.823 140.799L103.248 141.704C107.788 139.576 110.178 137.825 111.441 136.502C112.715 135.166 112.901 134.196 112.863 133.696L111.866 133.772ZM102.823 140.799L102.399 139.893C97.7652 142.063 94.5207 142.813 92.6581 143.066L92.7929 144.057L92.9278 145.048C95.0085 144.765 98.4472 143.952 103.247 141.704L102.823 140.799ZM92.7929 144.057V143.057C92.7929 143.057 92.7929 143.057 92.7929 143.057C92.7929 143.057 92.7928 143.057 92.7928 143.057C92.7928 143.057 92.7928 143.057 92.7928 143.057C92.7927 143.057 92.7927 143.057 92.7927 143.057C92.7927 143.057 92.7927 143.057 92.7926 143.057C92.7926 143.057 92.7926 143.057 92.7926 143.057C92.7926 143.057 92.7925 143.057 92.7925 143.057C92.7925 143.057 92.7925 143.057 92.7925 143.057C92.7924 143.057 92.7924 143.057 92.7924 143.057C92.7924 143.057 92.7924 143.057 92.7923 143.057C92.7923 143.057 92.7923 143.057 92.7923 143.057C92.7923 143.057 92.7922 143.057 92.7922 143.057C92.7922 143.057 92.7922 143.057 92.7921 143.057C92.7921 143.057 92.7921 143.057 92.7921 143.057C92.7921 143.057 92.792 143.057 92.792 143.057C92.792 143.057 92.792 143.057 92.792 143.057C92.7919 143.057 92.7919 143.057 92.7919 143.057C92.7919 143.057 92.7919 143.057 92.7918 143.057C92.7918 143.057 92.7918 143.057 92.7918 143.057C92.7918 143.057 92.7917 143.057 92.7917 143.057C92.7917 143.057 92.7917 143.057 92.7917 143.057C92.7916 143.057 92.7916 143.057 92.7916 143.057C92.7916 143.057 92.7916 143.057 92.7915 143.057C92.7915 143.057 92.7915 143.057 92.7915 143.057C92.7914 143.057 92.7914 143.057 92.7914 143.057C92.7914 143.057 92.7914 143.057 92.7913 143.057C92.7913 143.057 92.7913 143.057 92.7913 143.057C92.7913 143.057 92.7912 143.057 92.7912 143.057C92.7912 143.057 92.7912 143.057 92.7912 143.057C92.7911 143.057 92.7911 143.057 92.7911 143.057C92.7911 143.057 92.791 143.057 92.791 143.057C92.791 143.057 92.791 143.057 92.791 143.057C92.7909 143.057 92.7909 143.057 92.7909 143.057C92.7909 143.057 92.7909 143.057 92.7908 143.057C92.7908 143.057 92.7908 143.057 92.7908 143.057C92.7908 143.057 92.7907 143.057 92.7907 143.057C92.7907 143.057 92.7907 143.057 92.7907 143.057C92.7906 143.057 92.7906 143.057 92.7906 143.057C92.7906 143.057 92.7905 143.057 92.7905 143.057C92.7905 143.057 92.7905 143.057 92.7905 143.057C92.7904 143.057 92.7904 143.057 92.7904 143.057C92.7904 143.057 92.7904 143.057 92.7903 143.057C92.7903 143.057 92.7903 143.057 92.7903 143.057C92.7903 143.057 92.7902 143.057 92.7902 143.057C92.7902 143.057 92.7902 143.057 92.7901 143.057C92.7901 143.057 92.7901 143.057 92.7901 143.057C92.7901 143.057 92.79 143.057 92.79 143.057C92.79 143.057 92.79 143.057 92.79 143.057C92.7899 143.057 92.7899 143.057 92.7899 143.057C92.7899 143.057 92.7898 143.057 92.7898 143.057C92.7898 143.057 92.7898 143.057 92.7898 143.057C92.7897 143.057 92.7897 143.057 92.7897 143.057C92.7897 143.057 92.7897 143.057 92.7896 143.057C92.7896 143.057 92.7896 143.057 92.7896 143.057C92.7896 143.057 92.7895 143.057 92.7895 143.057C92.7895 143.057 92.7895 143.057 92.7894 143.057C92.7894 143.057 92.7894 143.057 92.7894 143.057C92.7894 143.057 92.7893 143.057 92.7893 143.057C92.7893 143.057 92.7893 143.057 92.7893 143.057C92.7892 143.057 92.7892 143.057 92.7892 143.057C92.7892 143.057 92.7891 143.057 92.7891 143.057C92.7891 143.057 92.7891 143.057 92.7891 143.057C92.789 143.057 92.789 143.057 92.789 143.057C92.789 143.057 92.789 143.057 92.7889 143.057C92.7889 143.057 92.7889 143.057 92.7889 143.057C92.7888 143.057 92.7888 143.057 92.7888 143.057C92.7888 143.057 92.7888 143.057 92.7887 143.057C92.7887 143.057 92.7887 143.057 92.7887 143.057C92.7887 143.057 92.7886 143.057 92.7886 143.057C92.7886 143.057 92.7886 143.057 92.7885 143.057C92.7885 143.057 92.7885 143.057 92.7885 143.057C92.7885 143.057 92.7884 143.057 92.7884 143.057C92.7884 143.057 92.7884 143.057 92.7884 143.057C92.7883 143.057 92.7883 143.057 92.7883 143.057C92.7883 143.057 92.7882 143.057 92.7882 143.057C92.7882 143.057 92.7882 143.057 92.7882 143.057C92.7881 143.057 92.7881 143.057 92.7881 143.057C92.7881 143.057 92.788 143.057 92.788 143.057C92.788 143.057 92.788 143.057 92.788 143.057C92.7879 143.057 92.7879 143.057 92.7879 143.057C92.7879 143.057 92.7879 143.057 92.7878 143.057C92.7878 143.057 92.7878 143.057 92.7878 143.057C92.7877 143.057 92.7877 143.057 92.7877 143.057C92.7877 143.057 92.7877 143.057 92.7876 143.057C92.7876 143.057 92.7876 143.057 92.7876 143.057C92.7875 143.057 92.7875 143.057 92.7875 143.057C92.7875 143.057 92.7875 143.057 92.7874 143.057C92.7874 143.057 92.7874 143.057 92.7874 143.057C92.7874 143.057 92.7873 143.057 92.7873 143.057C92.7873 143.057 92.7873 143.057 92.7872 143.057C92.7872 143.057 92.7872 143.057 92.7872 143.057C92.7872 143.057 92.7871 143.057 92.7871 143.057C92.7871 143.057 92.7871 143.057 92.787 143.057C92.787 143.057 92.787 143.057 92.787 143.057C92.787 143.057 92.7869 143.057 92.7869 143.057C92.7869 143.057 92.7869 143.057 92.7869 143.057C92.7868 143.057 92.7868 143.057 92.7868 143.057C92.7868 143.057 92.7867 143.057 92.7867 143.057C92.7867 143.057 92.7867 143.057 92.7867 143.057C92.7866 143.057 92.7866 143.057 92.7866 143.057C92.7866 143.057 92.7865 143.057 92.7865 143.057C92.7865 143.057 92.7865 143.057 92.7865 143.057C92.7864 143.057 92.7864 143.057 92.7864 143.057C92.7864 143.057 92.7863 143.057 92.7863 143.057C92.7863 143.057 92.7863 143.057 92.7863 143.057C92.7862 143.057 92.7862 143.057 92.7862 143.057C92.7862 143.057 92.7861 143.057 92.7861 143.057C92.7861 143.057 92.7861 143.057 92.7861 143.057C92.786 143.057 92.786 143.057 92.786 143.057C92.786 143.057 92.786 143.057 92.7859 143.057C92.7859 143.057 92.7859 143.057 92.7859 143.057C92.7858 143.057 92.7858 143.057 92.7858 143.057C92.7858 143.057 92.7858 143.057 92.7857 143.057C92.7857 143.057 92.7857 143.057 92.7857 143.057C92.7856 143.057 92.7856 143.057 92.7856 143.057C92.7856 143.057 92.7856 143.057 92.7855 143.057C92.7855 143.057 92.7855 143.057 92.7855 143.057C92.7854 143.057 92.7854 143.057 92.7854 143.057C92.7854 143.057 92.7854 143.057 92.7853 143.057C92.7853 143.057 92.7853 143.057 92.7853 143.057C92.7852 143.057 92.7852 143.057 92.7852 143.057C92.7852 143.057 92.7852 143.057 92.7851 143.057C92.7851 143.057 92.7851 143.057 92.7851 143.057C92.785 143.057 92.785 143.057 92.785 143.057C92.785 143.057 92.785 143.057 92.7849 143.057C92.7849 143.057 92.7849 143.057 92.7849 143.057C92.7848 143.057 92.7848 143.057 92.7848 143.057C92.7848 143.057 92.7848 143.057 92.7847 143.057C92.7847 143.057 92.7847 143.057 92.7847 143.057C92.7846 143.057 92.7846 143.057 92.7846 143.057C92.7846 143.057 92.7846 143.057 92.7845 143.057C92.7845 143.057 92.7845 143.057 92.7845 143.057C92.7844 143.057 92.7844 143.057 92.7844 143.057C92.7844 143.057 92.7844 143.057 92.7843 143.057C92.7843 143.057 92.7843 143.057 92.7843 143.057C92.7842 143.057 92.7842 143.057 92.7842 143.057C92.7842 143.057 92.7842 143.057 92.7841 143.057C92.7841 143.057 92.7841 143.057 92.7841 143.057C92.784 143.057 92.784 143.057 92.784 143.057C92.784 143.057 92.784 143.057 92.7839 143.057C92.7839 143.057 92.7839 143.057 92.7839 143.057C92.7838 143.057 92.7838 143.057 92.7838 143.057C92.7838 143.057 92.7838 143.057 92.7837 143.057C92.7837 143.057 92.7837 143.057 92.7837 143.057C92.7836 143.057 92.7836 143.057 92.7836 143.057C92.7836 143.057 92.7835 143.057 92.7835 143.057C92.7835 143.057 92.7835 143.057 92.7835 143.057C92.7834 143.057 92.7834 143.057 92.7834 143.057C92.7834 143.057 92.7833 143.057 92.7833 143.057C92.7833 143.057 92.7833 143.057 92.7833 143.057C92.7832 143.057 92.7832 143.057 92.7832 143.057C92.7832 143.057 92.7831 143.057 92.7831 143.057C92.7831 143.057 92.7831 143.057 92.7831 143.057C92.783 143.057 92.783 143.057 92.783 143.057C92.783 143.057 92.7829 143.057 92.7829 143.057C92.7829 143.057 92.7829 143.057 92.7829 143.057C92.7828 143.057 92.7828 143.057 92.7828 143.057C92.7828 143.057 92.7827 143.057 92.7827 143.057C92.7827 143.057 92.7827 143.057 92.7827 143.057C92.7826 143.057 92.7826 143.057 92.7826 143.057C92.7826 143.057 92.7825 143.057 92.7825 143.057C92.7825 143.057 92.7825 143.057 92.7824 143.057C92.7824 143.057 92.7824 143.057 92.7824 143.057C92.7824 143.057 92.7823 143.057 92.7823 143.057C92.7823 143.057 92.7823 143.057 92.7822 143.057C92.7822 143.057 92.7822 143.057 92.7822 143.057C92.7822 143.057 92.7821 143.057 92.7821 143.057C92.7821 143.057 92.7821 143.057 92.782 143.057C92.782 143.057 92.782 143.057 92.782 143.057C92.782 143.057 92.7819 143.057 92.7819 143.057C92.7819 143.057 92.7819 143.057 92.7818 143.057C92.7818 143.057 92.7818 143.057 92.7818 143.057C92.7817 143.057 92.7817 143.057 92.7817 143.057C92.7817 143.057 92.7817 143.057 92.7816 143.057C92.7816 143.057 92.7816 143.057 92.7816 143.057C92.7815 143.057 92.7815 143.057 92.7815 143.057C92.7815 143.057 92.7815 143.057 92.7814 143.057C92.7814 143.057 92.7814 143.057 92.7814 143.057C92.7813 143.057 92.7813 143.057 92.7813 143.057C92.7813 143.057 92.7813 143.057 92.7812 143.057C92.7812 143.057 92.7812 143.057 92.7812 143.057C92.7811 143.057 92.7811 143.057 92.7811 143.057C92.7811 143.057 92.781 143.057 92.781 143.057C92.781 143.057 92.781 143.057 92.781 143.057C92.7809 143.057 92.7809 143.057 92.7809 143.057C92.7809 143.057 92.7808 143.057 92.7808 143.057C92.7808 143.057 92.7808 143.057 92.7808 143.057C92.7807 143.057 92.7807 143.057 92.7807 143.057C92.7807 143.057 92.7806 143.057 92.7806 143.057C92.7806 143.057 92.7806 143.057 92.7805 143.057C92.7805 143.057 92.7805 143.057 92.7805 143.057C92.7805 143.057 92.7804 143.057 92.7804 143.057C92.7804 143.057 92.7804 143.057 92.7803 143.057C92.7803 143.057 92.7803 143.057 92.7803 143.057C92.7803 143.057 92.7802 143.057 92.7802 143.057C92.7802 143.057 92.7802 143.057 92.7801 143.057C92.7801 143.057 92.7801 143.057 92.7801 143.057C92.7801 143.057 92.78 143.057 92.78 143.057C92.78 143.057 92.78 143.057 92.7799 143.057C92.7799 143.057 92.7799 143.057 92.7799 143.057C92.7798 143.057 92.7798 143.057 92.7798 143.057C92.7798 143.057 92.7798 143.057 92.7797 143.057C92.7797 143.057 92.7797 143.057 92.7797 143.057C92.7796 143.057 92.7796 143.057 92.7796 143.057C92.7796 143.057 92.7795 143.057 92.7795 143.057C92.7795 143.057 92.7795 143.057 92.7795 143.057C92.7794 143.057 92.7794 143.057 92.7794 143.057C92.7794 143.057 92.7793 143.057 92.7793 143.057C92.7793 143.057 92.7793 143.057 92.7793 143.057C92.7792 143.057 92.7792 143.057 92.7792 143.057C92.7792 143.057 92.7791 143.057 92.7791 143.057C92.7791 143.057 92.7791 143.057 92.779 143.057C92.779 143.057 92.779 143.057 92.779 143.057C92.779 143.057 92.7789 143.057 92.7789 143.057C92.7789 143.057 92.7789 143.057 92.7788 143.057C92.7788 143.057 92.7788 143.057 92.7788 143.057C92.7788 143.057 92.7787 143.057 92.7787 143.057C92.7787 143.057 92.7787 143.057 92.7786 143.057C92.7786 143.057 92.7786 143.057 92.7786 143.057C92.7785 143.057 92.7785 143.057 92.7785 143.057C92.7785 143.057 92.7785 143.057 92.7784 143.057C92.7784 143.057 92.7784 143.057 92.7784 143.057C92.7783 143.057 92.7783 143.057 92.7783 143.057C92.7783 143.057 92.7783 143.057 92.7782 143.057C92.7782 143.057 92.7782 143.057 92.7782 143.057C92.7781 143.057 92.7781 143.057 92.7781 143.057C92.7781 143.057 92.778 143.057 92.778 143.057C92.778 143.057 92.778 143.057 92.778 143.057C92.7779 143.057 92.7779 143.057 92.7779 143.057C92.7779 143.057 92.7778 143.057 92.7778 143.057C92.7778 143.057 92.7778 143.057 92.7777 143.057C92.7777 143.057 92.7777 143.057 92.7777 143.057C92.7777 143.057 92.7776 143.057 92.7776 143.057C92.7776 143.057 92.7776 143.057 92.7775 143.057C92.7775 143.057 92.7775 143.057 92.7775 143.057C92.7775 143.057 92.7774 143.057 92.7774 143.057C92.7774 143.057 92.7774 143.057 92.7773 143.057C92.7773 143.057 92.7773 143.057 92.7773 143.057C92.7772 143.057 92.7772 143.057 92.7772 143.057C92.7772 143.057 92.7772 143.057 92.7771 143.057C92.7771 143.057 92.7771 143.057 92.7771 143.057C92.777 143.057 92.777 143.057 92.777 143.057C92.777 143.057 92.7769 143.057 92.7769 143.057C92.7769 143.057 92.7769 143.057 92.7769 143.057C92.7768 143.057 92.7768 143.057 92.7768 143.057C92.7768 143.057 92.7767 143.057 92.7767 143.057C92.7767 143.057 92.7767 143.057 92.7767 143.057C92.7766 143.057 92.7766 143.057 92.7766 143.057C92.7766 143.057 92.7765 143.057 92.7765 143.057C92.7765 143.057 92.7765 143.057 92.7764 143.057C92.7764 143.057 92.7764 143.057 92.7764 143.057C92.7764 143.057 92.7763 143.057 92.7763 143.057C92.7763 143.057 92.7763 143.057 92.7762 143.057C92.7762 143.057 92.7762 143.057 92.7762 143.057C92.7761 143.057 92.7761 143.057 92.7761 143.057C92.7761 143.057 92.7761 143.057 92.776 143.057C92.776 143.057 92.776 143.057 92.776 143.057C92.7759 143.057 92.7759 143.057 92.7759 143.057C92.7759 143.057 92.7759 143.057 92.7758 143.057C92.7758 143.057 92.7758 143.057 92.7758 143.057C92.7757 143.057 92.7757 143.057 92.7757 143.057C92.7757 143.057 92.7756 143.057 92.7756 143.057C92.7756 143.057 92.7756 143.057 92.7756 143.057C92.7755 143.057 92.7755 143.057 92.7755 143.057C92.7755 143.057 92.7754 143.057 92.7754 143.057C92.7754 143.057 92.7754 143.057 92.7753 143.057C92.7753 143.057 92.7753 143.057 92.7753 143.057C92.7753 143.057 92.7752 143.057 92.7752 143.057C92.7752 143.057 92.7752 143.057 92.7751 143.057C92.7751 143.057 92.7751 143.057 92.7751 143.057C92.7751 143.057 92.775 143.057 92.775 143.057C92.775 143.057 92.775 143.057 92.7749 143.057C92.7749 143.057 92.7749 143.057 92.7749 143.057C92.7748 143.057 92.7748 143.057 92.7748 143.057C92.7748 143.057 92.7748 143.057 92.7747 143.057C92.7747 143.057 92.7747 143.057 92.7747 143.057C92.7746 143.057 92.7746 143.057 92.7746 143.057C92.7746 143.057 92.7745 143.057 92.7745 143.057C92.7745 143.057 92.7745 143.057 92.7745 143.057C92.7744 143.057 92.7744 143.057 92.7744 143.057C92.7744 143.057 92.7743 143.057 92.7743 143.057C92.7743 143.057 92.7743 143.057 92.7743 143.057C92.7742 143.057 92.7742 143.057 92.7742 143.057C92.7742 143.057 92.7741 143.057 92.7741 143.057C92.7741 143.057 92.7741 143.057 92.774 143.057C92.774 143.057 92.774 143.057 92.774 143.057C92.774 143.057 92.7739 143.057 92.7739 143.057C92.7739 143.057 92.7739 143.057 92.7738 143.057C92.7738 143.057 92.7738 143.057 92.7738 143.057C92.7737 143.057 92.7737 143.057 92.7737 143.057C92.7737 143.057 92.7737 143.057 92.7736 143.057C92.7736 143.057 92.7736 143.057 92.7736 143.057C92.7735 143.057 92.7735 143.057 92.7735 143.057C92.7735 143.057 92.7735 143.057 92.7734 143.057C92.7734 143.057 92.7734 143.057 92.7734 143.057C92.7733 143.057 92.7733 143.057 92.7733 143.057C92.7733 143.057 92.7732 143.057 92.7732 143.057C92.7732 143.057 92.7732 143.057 92.7732 143.057C92.7731 143.057 92.7731 143.057 92.7731 143.057C92.7731 143.057 92.773 143.057 92.773 143.057C92.773 143.057 92.773 143.057 92.773 143.057C92.7729 143.057 92.7729 143.057 92.7729 143.057C92.7729 143.057 92.7728 143.057 92.7728 143.057C92.7728 143.057 92.7728 143.057 92.7727 143.057C92.7727 143.057 92.7727 143.057 92.7727 143.057C92.7727 143.057 92.7726 143.057 92.7726 143.057C92.7726 143.057 92.7726 143.057 92.7725 143.057C92.7725 143.057 92.7725 143.057 92.7725 143.057C92.7725 143.057 92.7724 143.057 92.7724 143.057C92.7724 143.057 92.7724 143.057 92.7723 143.057C92.7723 143.057 92.7723 143.057 92.7723 143.057C92.7722 143.057 92.7722 143.057 92.7722 143.057C92.7722 143.057 92.7722 143.057 92.7721 143.057C92.7721 143.057 92.7721 143.057 92.7721 143.057C92.772 143.057 92.772 143.057 92.772 143.057C92.772 143.057 92.772 143.057 92.7719 143.057C92.7719 143.057 92.7719 143.057 92.7719 143.057C92.7718 143.057 92.7718 143.057 92.7718 143.057C92.7718 143.057 92.7717 143.057 92.7717 143.057C92.7717 143.057 92.7717 143.057 92.7717 143.057C92.7716 143.057 92.7716 143.057 92.7716 143.057C92.7716 143.057 92.7715 143.057 92.7715 143.057C92.7715 143.057 92.7715 143.057 92.7715 143.057C92.7714 143.057 92.7714 143.057 92.7714 143.057C92.7714 143.057 92.7713 143.057 92.7713 143.057C92.7713 143.057 92.7713 143.057 92.7712 143.057C92.7712 143.057 92.7712 143.057 92.7712 143.057C92.7712 143.057 92.7711 143.057 92.7711 143.057C92.7711 143.057 92.7711 143.057 92.771 143.057C92.771 143.057 92.771 143.057 92.771 143.057C92.771 143.057 92.7709 143.057 92.7709 143.057C92.7709 143.057 92.7709 143.057 92.7708 143.057C92.7708 143.057 92.7708 143.057 92.7708 143.057C92.7707 143.057 92.7707 143.057 92.7707 143.057C92.7707 143.057 92.7707 143.057 92.7706 143.057C92.7706 143.057 92.7706 143.057 92.7706 143.057C92.7705 143.057 92.7705 143.057 92.7705 143.057C92.7705 143.057 92.7705 143.057 92.7704 143.057C92.7704 143.057 92.7704 143.057 92.7704 143.057C92.7703 143.057 92.7703 143.057 92.7703 143.057C92.7703 143.057 92.7703 143.057 92.7702 143.057C92.7702 143.057 92.7702 143.057 92.7702 143.057C92.7701 143.057 92.7701 143.057 92.7701 143.057C92.7701 143.057 92.77 143.057 92.77 143.057C92.77 143.057 92.77 143.057 92.77 143.057C92.7699 143.057 92.7699 143.057 92.7699 143.057C92.7699 143.057 92.7698 143.057 92.7698 143.057C92.7698 143.057 92.7698 143.057 92.7698 143.057C92.7697 143.057 92.7697 143.057 92.7697 143.057C92.7697 143.057 92.7696 143.057 92.7696 143.057C92.7696 143.057 92.7696 143.057 92.7696 143.057C92.7695 143.057 92.7695 143.057 92.7695 143.057C92.7695 143.057 92.7694 143.057 92.7694 143.057C92.7694 143.057 92.7694 143.057 92.7693 143.057C92.7693 143.057 92.7693 143.057 92.7693 143.057C92.7693 143.057 92.7692 143.057 92.7692 143.057C92.7692 143.057 92.7692 143.057 92.7691 143.057C92.7691 143.057 92.7691 143.057 92.7691 143.057C92.7691 143.057 92.769 143.057 92.769 143.057C92.769 143.057 92.769 143.057 92.7689 143.057C92.7689 143.057 92.7689 143.057 92.7689 143.057C92.7689 143.057 92.7688 143.057 92.7688 143.057C92.7688 143.057 92.7688 143.057 92.7687 143.057C92.7687 143.057 92.7687 143.057 92.7687 143.057C92.7687 143.057 92.7686 143.057 92.7686 143.057C92.7686 143.057 92.7686 143.057 92.7685 143.057C92.7685 143.057 92.7685 143.057 92.7685 143.057C92.7685 143.057 92.7684 143.057 92.7684 143.057C92.7684 143.057 92.7684 143.057 92.7683 143.057C92.7683 143.057 92.7683 143.057 92.7683 143.057C92.7682 143.057 92.7682 143.057 92.7682 143.057C92.7682 143.057 92.7682 143.057 92.7681 143.057C92.7681 143.057 92.7681 143.057 92.7681 143.057C92.768 143.057 92.768 143.057 92.768 143.057C92.768 143.057 92.768 143.057 92.7679 143.057C92.7679 143.057 92.7679 143.057 92.7679 143.057C92.7678 143.057 92.7678 143.057 92.7678 143.057C92.7678 143.057 92.7678 143.057 92.7677 143.057C92.7677 143.057 92.7677 143.057 92.7677 143.057C92.7676 143.057 92.7676 143.057 92.7676 143.057C92.7676 143.057 92.7676 143.057 92.7675 143.057C92.7675 143.057 92.7675 143.057 92.7675 143.057C92.7674 143.057 92.7674 143.057 92.7674 143.057C92.7674 143.057 92.7674 143.057 92.7673 143.057C92.7673 143.057 92.7673 143.057 92.7673 143.057C92.7672 143.057 92.7672 143.057 92.7672 143.057C92.7672 143.057 92.7672 143.057 92.7671 143.057C92.7671 143.057 92.7671 143.057 92.7671 143.057C92.767 143.057 92.767 143.057 92.767 143.057C92.767 143.057 92.767 143.057 92.7669 143.057C92.7669 143.057 92.7669 143.057 92.7669 143.057C92.7668 143.057 92.7668 143.057 92.7668 143.057C92.7668 143.057 92.7668 143.057 92.7667 143.057C92.7667 143.057 92.7667 143.057 92.7667 143.057C92.7666 143.057 92.7666 143.057 92.7666 143.057C92.7666 143.057 92.7666 143.057 92.7665 143.057C92.7665 143.057 92.7665 143.057 92.7665 143.057C92.7664 143.057 92.7664 143.057 92.7664 143.057C92.7664 143.057 92.7664 143.057 92.7663 143.057C92.7663 143.057 92.7663 143.057 92.7663 143.057C92.7663 143.057 92.7662 143.057 92.7662 143.057C92.7662 143.057 92.7662 143.057 92.7661 143.057C92.7661 143.057 92.7661 143.057 92.7661 143.057C92.7661 143.057 92.766 143.057 92.766 143.057C92.766 143.057 92.766 143.057 92.7659 143.057C92.7659 143.057 92.7659 143.057 92.7659 143.057C92.7659 143.057 92.7658 143.057 92.7658 143.057C92.7658 143.057 92.7658 143.057 92.7657 143.057C92.7657 143.057 92.7657 143.057 92.7657 143.057C92.7657 143.057 92.7656 143.057 92.7656 143.057C92.7656 143.057 92.7656 143.057 92.7655 143.057C92.7655 143.057 92.7655 143.057 92.7655 143.057C92.7655 143.057 92.7654 143.057 92.7654 143.057C92.7654 143.057 92.7654 143.057 92.7653 143.057C92.7653 143.057 92.7653 143.057 92.7653 143.057C92.7653 143.057 92.7652 143.057 92.7652 143.057C92.7652 143.057 92.7652 143.057 92.7652 143.057C92.7651 143.057 92.7651 143.057 92.7651 143.057C92.7651 143.057 92.765 143.057 92.765 143.057C92.765 143.057 92.765 143.057 92.765 143.057C92.7649 143.057 92.7649 143.057 92.7649 143.057C92.7649 143.057 92.7648 143.057 92.7648 143.057C92.7648 143.057 92.7648 143.057 92.7648 143.057C92.7647 143.057 92.7647 143.057 92.7647 143.057C92.7647 143.057 92.7647 143.057 92.7646 143.057C92.7646 143.057 92.7646 143.057 92.7646 143.057C92.7645 143.057 92.7645 143.057 92.7645 143.057C92.7645 143.057 92.7645 143.057 92.7644 143.057C92.7644 143.057 92.7644 143.057 92.7644 143.057C92.7643 143.057 92.7643 143.057 92.7643 143.057C92.7643 143.057 92.7643 143.057 92.7642 143.057C92.7642 143.057 92.7642 143.057 92.7642 143.057C92.7642 143.057 92.7641 143.057 92.7641 143.057C92.7641 143.057 92.7641 143.057 92.764 143.057C92.764 143.057 92.764 143.057 92.764 143.057C92.764 143.057 92.7639 143.057 92.7639 143.057C92.7639 143.057 92.7639 143.057 92.7638 143.057C92.7638 143.057 92.7638 143.057 92.7638 143.057C92.7638 143.057 92.7637 143.057 92.7637 143.057C92.7637 143.057 92.7637 143.057 92.7637 143.057C92.7636 143.057 92.7636 143.057 92.7636 143.057C92.7636 143.057 92.7635 143.057 92.7635 143.057C92.7635 143.057 92.7635 143.057 92.7635 143.057C92.7634 143.057 92.7634 143.057 92.7634 143.057C92.7634 143.057 92.7634 143.057 92.7633 143.057C92.7633 143.057 92.7633 143.057 92.7633 143.057C92.7632 143.057 92.7632 143.057 92.7632 143.057C92.7632 143.057 92.7632 143.057 92.7631 143.057C92.7631 143.057 92.7631 143.057 92.7631 143.057C92.7631 143.057 92.763 143.057 92.763 143.057C92.763 143.057 92.763 143.057 92.7629 143.057C92.7629 143.057 92.7629 143.057 92.7629 143.057C92.7629 143.057 92.7628 143.057 92.7628 143.057C92.7628 143.057 92.7628 143.057 92.7628 143.057C92.7627 143.057 92.7627 143.057 92.7627 143.057C92.7627 143.057 92.7626 143.057 92.7626 143.057C92.7626 143.057 92.7626 143.057 92.7626 143.057C92.7625 143.057 92.7625 143.057 92.7625 143.057C92.7625 143.057 92.7625 143.057 92.7624 143.057C92.7624 143.057 92.7624 143.057 92.7624 143.057C92.7623 143.057 92.7623 143.057 92.7623 143.057C92.7623 143.057 92.7623 143.057 92.7622 143.057C92.7622 143.057 92.7622 143.057 92.7622 143.057C92.7622 143.057 92.7621 143.057 92.7621 143.057C92.7621 143.057 92.7621 143.057 92.7621 143.057C92.762 143.057 92.762 143.057 92.762 143.057C92.762 143.057 92.7619 143.057 92.7619 143.057C92.7619 143.057 92.7619 143.057 92.7619 143.057C92.7618 143.057 92.7618 143.057 92.7618 143.057C92.7618 143.057 92.7618 143.057 92.7617 143.057C92.7617 143.057 92.7617 143.057 92.7617 143.057C92.7616 143.057 92.7616 143.057 92.7616 143.057C92.7616 143.057 92.7616 143.057 92.7615 143.057C92.7615 143.057 92.7615 143.057 92.7615 143.057C92.7615 143.057 92.7614 143.057 92.7614 143.057C92.7614 143.057 92.7614 143.057 92.7614 143.057C92.7613 143.057 92.7613 143.057 92.7613 143.057C92.7613 143.057 92.7612 143.057 92.7612 143.057C92.7612 143.057 92.7612 143.057 92.7612 143.057C92.7611 143.057 92.7611 143.057 92.7611 143.057C92.7611 143.057 92.7611 143.057 92.761 143.057C92.761 143.057 92.761 143.057 92.761 143.057C92.761 143.057 92.7609 143.057 92.7609 143.057C92.7609 143.057 92.7609 143.057 92.7609 143.057C92.7608 143.057 92.7608 143.057 92.7608 143.057C92.7608 143.057 92.7607 143.057 92.7607 143.057C92.7607 143.057 92.7607 143.057 92.7607 143.057C92.7606 143.057 92.7606 143.057 92.7606 143.057C92.7606 143.057 92.7606 143.057 92.7605 143.057C92.7605 143.057 92.7605 143.057 92.7605 143.057C92.7605 143.057 92.7604 143.057 92.7604 143.057C92.7604 143.057 92.7604 143.057 92.7604 143.057C92.7603 143.057 92.7603 143.057 92.7603 143.057C92.7603 143.057 92.7602 143.057 92.7602 143.057C92.7602 143.057 92.7602 143.057 92.7602 143.057C92.7601 143.057 92.7601 143.057 92.7601 143.057C92.7601 143.057 92.7601 143.057 92.76 143.057C92.76 143.057 92.76 143.057 92.76 143.057C92.76 143.057 92.7599 143.057 92.7599 143.057C92.7599 143.057 92.7599 143.057 92.7599 143.057C92.7598 143.057 92.7598 143.057 92.7598 143.057C92.7598 143.057 92.7598 143.057 92.7597 143.057C92.7597 143.057 92.7597 143.057 92.7597 143.057C92.7597 143.057 92.7596 143.057 92.7596 143.057C92.7596 143.057 92.7596 143.057 92.7595 143.057C92.7595 143.057 92.7595 143.057 92.7595 143.057C92.7595 143.057 92.7594 143.057 92.7594 143.057C92.7594 143.057 92.7594 143.057 92.7594 143.057C92.7593 143.057 92.7593 143.057 92.7593 143.057C92.7593 143.057 92.7593 143.057 92.7592 143.057C92.7592 143.057 92.7592 143.057 92.7592 143.057C92.7592 143.057 92.7591 143.057 92.7591 143.057V144.057V145.057C92.7591 145.057 92.7592 145.057 92.7592 145.057C92.7592 145.057 92.7592 145.057 92.7592 145.057C92.7593 145.057 92.7593 145.057 92.7593 145.057C92.7593 145.057 92.7593 145.057 92.7594 145.057C92.7594 145.057 92.7594 145.057 92.7594 145.057C92.7594 145.057 92.7595 145.057 92.7595 145.057C92.7595 145.057 92.7595 145.057 92.7595 145.057C92.7596 145.057 92.7596 145.057 92.7596 145.057C92.7596 145.057 92.7597 145.057 92.7597 145.057C92.7597 145.057 92.7597 145.057 92.7597 145.057C92.7598 145.057 92.7598 145.057 92.7598 145.057C92.7598 145.057 92.7598 145.057 92.7599 145.057C92.7599 145.057 92.7599 145.057 92.7599 145.057C92.7599 145.057 92.76 145.057 92.76 145.057C92.76 145.057 92.76 145.057 92.76 145.057C92.7601 145.057 92.7601 145.057 92.7601 145.057C92.7601 145.057 92.7601 145.057 92.7602 145.057C92.7602 145.057 92.7602 145.057 92.7602 145.057C92.7602 145.057 92.7603 145.057 92.7603 145.057C92.7603 145.057 92.7603 145.057 92.7604 145.057C92.7604 145.057 92.7604 145.057 92.7604 145.057C92.7604 145.057 92.7605 145.057 92.7605 145.057C92.7605 145.057 92.7605 145.057 92.7605 145.057C92.7606 145.057 92.7606 145.057 92.7606 145.057C92.7606 145.057 92.7606 145.057 92.7607 145.057C92.7607 145.057 92.7607 145.057 92.7607 145.057C92.7607 145.057 92.7608 145.057 92.7608 145.057C92.7608 145.057 92.7608 145.057 92.7609 145.057C92.7609 145.057 92.7609 145.057 92.7609 145.057C92.7609 145.057 92.761 145.057 92.761 145.057C92.761 145.057 92.761 145.057 92.761 145.057C92.7611 145.057 92.7611 145.057 92.7611 145.057C92.7611 145.057 92.7611 145.057 92.7612 145.057C92.7612 145.057 92.7612 145.057 92.7612 145.057C92.7612 145.057 92.7613 145.057 92.7613 145.057C92.7613 145.057 92.7613 145.057 92.7614 145.057C92.7614 145.057 92.7614 145.057 92.7614 145.057C92.7614 145.057 92.7615 145.057 92.7615 145.057C92.7615 145.057 92.7615 145.057 92.7615 145.057C92.7616 145.057 92.7616 145.057 92.7616 145.057C92.7616 145.057 92.7616 145.057 92.7617 145.057C92.7617 145.057 92.7617 145.057 92.7617 145.057C92.7618 145.057 92.7618 145.057 92.7618 145.057C92.7618 145.057 92.7618 145.057 92.7619 145.057C92.7619 145.057 92.7619 145.057 92.7619 145.057C92.7619 145.057 92.762 145.057 92.762 145.057C92.762 145.057 92.762 145.057 92.7621 145.057C92.7621 145.057 92.7621 145.057 92.7621 145.057C92.7621 145.057 92.7622 145.057 92.7622 145.057C92.7622 145.057 92.7622 145.057 92.7622 145.057C92.7623 145.057 92.7623 145.057 92.7623 145.057C92.7623 145.057 92.7623 145.057 92.7624 145.057C92.7624 145.057 92.7624 145.057 92.7624 145.057C92.7625 145.057 92.7625 145.057 92.7625 145.057C92.7625 145.057 92.7625 145.057 92.7626 145.057C92.7626 145.057 92.7626 145.057 92.7626 145.057C92.7626 145.057 92.7627 145.057 92.7627 145.057C92.7627 145.057 92.7627 145.057 92.7628 145.057C92.7628 145.057 92.7628 145.057 92.7628 145.057C92.7628 145.057 92.7629 145.057 92.7629 145.057C92.7629 145.057 92.7629 145.057 92.7629 145.057C92.763 145.057 92.763 145.057 92.763 145.057C92.763 145.057 92.7631 145.057 92.7631 145.057C92.7631 145.057 92.7631 145.057 92.7631 145.057C92.7632 145.057 92.7632 145.057 92.7632 145.057C92.7632 145.057 92.7632 145.057 92.7633 145.057C92.7633 145.057 92.7633 145.057 92.7633 145.057C92.7634 145.057 92.7634 145.057 92.7634 145.057C92.7634 145.057 92.7634 145.057 92.7635 145.057C92.7635 145.057 92.7635 145.057 92.7635 145.057C92.7635 145.057 92.7636 145.057 92.7636 145.057C92.7636 145.057 92.7636 145.057 92.7637 145.057C92.7637 145.057 92.7637 145.057 92.7637 145.057C92.7637 145.057 92.7638 145.057 92.7638 145.057C92.7638 145.057 92.7638 145.057 92.7638 145.057C92.7639 145.057 92.7639 145.057 92.7639 145.057C92.7639 145.057 92.764 145.057 92.764 145.057C92.764 145.057 92.764 145.057 92.764 145.057C92.7641 145.057 92.7641 145.057 92.7641 145.057C92.7641 145.057 92.7642 145.057 92.7642 145.057C92.7642 145.057 92.7642 145.057 92.7642 145.057C92.7643 145.057 92.7643 145.057 92.7643 145.057C92.7643 145.057 92.7643 145.057 92.7644 145.057C92.7644 145.057 92.7644 145.057 92.7644 145.057C92.7645 145.057 92.7645 145.057 92.7645 145.057C92.7645 145.057 92.7645 145.057 92.7646 145.057C92.7646 145.057 92.7646 145.057 92.7646 145.057C92.7647 145.057 92.7647 145.057 92.7647 145.057C92.7647 145.057 92.7647 145.057 92.7648 145.057C92.7648 145.057 92.7648 145.057 92.7648 145.057C92.7648 145.057 92.7649 145.057 92.7649 145.057C92.7649 145.057 92.7649 145.057 92.765 145.057C92.765 145.057 92.765 145.057 92.765 145.057C92.765 145.057 92.7651 145.057 92.7651 145.057C92.7651 145.057 92.7651 145.057 92.7652 145.057C92.7652 145.057 92.7652 145.057 92.7652 145.057C92.7652 145.057 92.7653 145.057 92.7653 145.057C92.7653 145.057 92.7653 145.057 92.7653 145.057C92.7654 145.057 92.7654 145.057 92.7654 145.057C92.7654 145.057 92.7655 145.057 92.7655 145.057C92.7655 145.057 92.7655 145.057 92.7655 145.057C92.7656 145.057 92.7656 145.057 92.7656 145.057C92.7656 145.057 92.7657 145.057 92.7657 145.057C92.7657 145.057 92.7657 145.057 92.7657 145.057C92.7658 145.057 92.7658 145.057 92.7658 145.057C92.7658 145.057 92.7659 145.057 92.7659 145.057C92.7659 145.057 92.7659 145.057 92.7659 145.057C92.766 145.057 92.766 145.057 92.766 145.057C92.766 145.057 92.7661 145.057 92.7661 145.057C92.7661 145.057 92.7661 145.057 92.7661 145.057C92.7662 145.057 92.7662 145.057 92.7662 145.057C92.7662 145.057 92.7663 145.057 92.7663 145.057C92.7663 145.057 92.7663 145.057 92.7663 145.057C92.7664 145.057 92.7664 145.057 92.7664 145.057C92.7664 145.057 92.7664 145.057 92.7665 145.057C92.7665 145.057 92.7665 145.057 92.7665 145.057C92.7666 145.057 92.7666 145.057 92.7666 145.057C92.7666 145.057 92.7666 145.057 92.7667 145.057C92.7667 145.057 92.7667 145.057 92.7667 145.057C92.7668 145.057 92.7668 145.057 92.7668 145.057C92.7668 145.057 92.7668 145.057 92.7669 145.057C92.7669 145.057 92.7669 145.057 92.7669 145.057C92.767 145.057 92.767 145.057 92.767 145.057C92.767 145.057 92.767 145.057 92.7671 145.057C92.7671 145.057 92.7671 145.057 92.7671 145.057C92.7672 145.057 92.7672 145.057 92.7672 145.057C92.7672 145.057 92.7672 145.057 92.7673 145.057C92.7673 145.057 92.7673 145.057 92.7673 145.057C92.7674 145.057 92.7674 145.057 92.7674 145.057C92.7674 145.057 92.7674 145.057 92.7675 145.057C92.7675 145.057 92.7675 145.057 92.7675 145.057C92.7676 145.057 92.7676 145.057 92.7676 145.057C92.7676 145.057 92.7676 145.057 92.7677 145.057C92.7677 145.057 92.7677 145.057 92.7677 145.057C92.7678 145.057 92.7678 145.057 92.7678 145.057C92.7678 145.057 92.7678 145.057 92.7679 145.057C92.7679 145.057 92.7679 145.057 92.7679 145.057C92.768 145.057 92.768 145.057 92.768 145.057C92.768 145.057 92.768 145.057 92.7681 145.057C92.7681 145.057 92.7681 145.057 92.7681 145.057C92.7682 145.057 92.7682 145.057 92.7682 145.057C92.7682 145.057 92.7682 145.057 92.7683 145.057C92.7683 145.057 92.7683 145.057 92.7683 145.057C92.7684 145.057 92.7684 145.057 92.7684 145.057C92.7684 145.057 92.7685 145.057 92.7685 145.057C92.7685 145.057 92.7685 145.057 92.7685 145.057C92.7686 145.057 92.7686 145.057 92.7686 145.057C92.7686 145.057 92.7687 145.057 92.7687 145.057C92.7687 145.057 92.7687 145.057 92.7687 145.057C92.7688 145.057 92.7688 145.057 92.7688 145.057C92.7688 145.057 92.7689 145.057 92.7689 145.057C92.7689 145.057 92.7689 145.057 92.7689 145.057C92.769 145.057 92.769 145.057 92.769 145.057C92.769 145.057 92.7691 145.057 92.7691 145.057C92.7691 145.057 92.7691 145.057 92.7691 145.057C92.7692 145.057 92.7692 145.057 92.7692 145.057C92.7692 145.057 92.7693 145.057 92.7693 145.057C92.7693 145.057 92.7693 145.057 92.7693 145.057C92.7694 145.057 92.7694 145.057 92.7694 145.057C92.7694 145.057 92.7695 145.057 92.7695 145.057C92.7695 145.057 92.7695 145.057 92.7696 145.057C92.7696 145.057 92.7696 145.057 92.7696 145.057C92.7696 145.057 92.7697 145.057 92.7697 145.057C92.7697 145.057 92.7697 145.057 92.7698 145.057C92.7698 145.057 92.7698 145.057 92.7698 145.057C92.7698 145.057 92.7699 145.057 92.7699 145.057C92.7699 145.057 92.7699 145.057 92.77 145.057C92.77 145.057 92.77 145.057 92.77 145.057C92.77 145.057 92.7701 145.057 92.7701 145.057C92.7701 145.057 92.7701 145.057 92.7702 145.057C92.7702 145.057 92.7702 145.057 92.7702 145.057C92.7703 145.057 92.7703 145.057 92.7703 145.057C92.7703 145.057 92.7703 145.057 92.7704 145.057C92.7704 145.057 92.7704 145.057 92.7704 145.057C92.7705 145.057 92.7705 145.057 92.7705 145.057C92.7705 145.057 92.7705 145.057 92.7706 145.057C92.7706 145.057 92.7706 145.057 92.7706 145.057C92.7707 145.057 92.7707 145.057 92.7707 145.057C92.7707 145.057 92.7707 145.057 92.7708 145.057C92.7708 145.057 92.7708 145.057 92.7708 145.057C92.7709 145.057 92.7709 145.057 92.7709 145.057C92.7709 145.057 92.771 145.057 92.771 145.057C92.771 145.057 92.771 145.057 92.771 145.057C92.7711 145.057 92.7711 145.057 92.7711 145.057C92.7711 145.057 92.7712 145.057 92.7712 145.057C92.7712 145.057 92.7712 145.057 92.7712 145.057C92.7713 145.057 92.7713 145.057 92.7713 145.057C92.7713 145.057 92.7714 145.057 92.7714 145.057C92.7714 145.057 92.7714 145.057 92.7715 145.057C92.7715 145.057 92.7715 145.057 92.7715 145.057C92.7715 145.057 92.7716 145.057 92.7716 145.057C92.7716 145.057 92.7716 145.057 92.7717 145.057C92.7717 145.057 92.7717 145.057 92.7717 145.057C92.7717 145.057 92.7718 145.057 92.7718 145.057C92.7718 145.057 92.7718 145.057 92.7719 145.057C92.7719 145.057 92.7719 145.057 92.7719 145.057C92.772 145.057 92.772 145.057 92.772 145.057C92.772 145.057 92.772 145.057 92.7721 145.057C92.7721 145.057 92.7721 145.057 92.7721 145.057C92.7722 145.057 92.7722 145.057 92.7722 145.057C92.7722 145.057 92.7722 145.057 92.7723 145.057C92.7723 145.057 92.7723 145.057 92.7723 145.057C92.7724 145.057 92.7724 145.057 92.7724 145.057C92.7724 145.057 92.7725 145.057 92.7725 145.057C92.7725 145.057 92.7725 145.057 92.7725 145.057C92.7726 145.057 92.7726 145.057 92.7726 145.057C92.7726 145.057 92.7727 145.057 92.7727 145.057C92.7727 145.057 92.7727 145.057 92.7727 145.057C92.7728 145.057 92.7728 145.057 92.7728 145.057C92.7728 145.057 92.7729 145.057 92.7729 145.057C92.7729 145.057 92.7729 145.057 92.773 145.057C92.773 145.057 92.773 145.057 92.773 145.057C92.773 145.057 92.7731 145.057 92.7731 145.057C92.7731 145.057 92.7731 145.057 92.7732 145.057C92.7732 145.057 92.7732 145.057 92.7732 145.057C92.7732 145.057 92.7733 145.057 92.7733 145.057C92.7733 145.057 92.7733 145.057 92.7734 145.057C92.7734 145.057 92.7734 145.057 92.7734 145.057C92.7735 145.057 92.7735 145.057 92.7735 145.057C92.7735 145.057 92.7735 145.057 92.7736 145.057C92.7736 145.057 92.7736 145.057 92.7736 145.057C92.7737 145.057 92.7737 145.057 92.7737 145.057C92.7737 145.057 92.7737 145.057 92.7738 145.057C92.7738 145.057 92.7738 145.057 92.7738 145.057C92.7739 145.057 92.7739 145.057 92.7739 145.057C92.7739 145.057 92.774 145.057 92.774 145.057C92.774 145.057 92.774 145.057 92.774 145.057C92.7741 145.057 92.7741 145.057 92.7741 145.057C92.7741 145.057 92.7742 145.057 92.7742 145.057C92.7742 145.057 92.7742 145.057 92.7743 145.057C92.7743 145.057 92.7743 145.057 92.7743 145.057C92.7743 145.057 92.7744 145.057 92.7744 145.057C92.7744 145.057 92.7744 145.057 92.7745 145.057C92.7745 145.057 92.7745 145.057 92.7745 145.057C92.7745 145.057 92.7746 145.057 92.7746 145.057C92.7746 145.057 92.7746 145.057 92.7747 145.057C92.7747 145.057 92.7747 145.057 92.7747 145.057C92.7748 145.057 92.7748 145.057 92.7748 145.057C92.7748 145.057 92.7748 145.057 92.7749 145.057C92.7749 145.057 92.7749 145.057 92.7749 145.057C92.775 145.057 92.775 145.057 92.775 145.057C92.775 145.057 92.7751 145.057 92.7751 145.057C92.7751 145.057 92.7751 145.057 92.7751 145.057C92.7752 145.057 92.7752 145.057 92.7752 145.057C92.7752 145.057 92.7753 145.057 92.7753 145.057C92.7753 145.057 92.7753 145.057 92.7753 145.057C92.7754 145.057 92.7754 145.057 92.7754 145.057C92.7754 145.057 92.7755 145.057 92.7755 145.057C92.7755 145.057 92.7755 145.057 92.7756 145.057C92.7756 145.057 92.7756 145.057 92.7756 145.057C92.7756 145.057 92.7757 145.057 92.7757 145.057C92.7757 145.057 92.7757 145.057 92.7758 145.057C92.7758 145.057 92.7758 145.057 92.7758 145.057C92.7759 145.057 92.7759 145.057 92.7759 145.057C92.7759 145.057 92.7759 145.057 92.776 145.057C92.776 145.057 92.776 145.057 92.776 145.057C92.7761 145.057 92.7761 145.057 92.7761 145.057C92.7761 145.057 92.7761 145.057 92.7762 145.057C92.7762 145.057 92.7762 145.057 92.7762 145.057C92.7763 145.057 92.7763 145.057 92.7763 145.057C92.7763 145.057 92.7764 145.057 92.7764 145.057C92.7764 145.057 92.7764 145.057 92.7764 145.057C92.7765 145.057 92.7765 145.057 92.7765 145.057C92.7765 145.057 92.7766 145.057 92.7766 145.057C92.7766 145.057 92.7766 145.057 92.7767 145.057C92.7767 145.057 92.7767 145.057 92.7767 145.057C92.7767 145.057 92.7768 145.057 92.7768 145.057C92.7768 145.057 92.7768 145.057 92.7769 145.057C92.7769 145.057 92.7769 145.057 92.7769 145.057C92.7769 145.057 92.777 145.057 92.777 145.057C92.777 145.057 92.777 145.057 92.7771 145.057C92.7771 145.057 92.7771 145.057 92.7771 145.057C92.7772 145.057 92.7772 145.057 92.7772 145.057C92.7772 145.057 92.7772 145.057 92.7773 145.057C92.7773 145.057 92.7773 145.057 92.7773 145.057C92.7774 145.057 92.7774 145.057 92.7774 145.057C92.7774 145.057 92.7775 145.057 92.7775 145.057C92.7775 145.057 92.7775 145.057 92.7775 145.057C92.7776 145.057 92.7776 145.057 92.7776 145.057C92.7776 145.057 92.7777 145.057 92.7777 145.057C92.7777 145.057 92.7777 145.057 92.7777 145.057C92.7778 145.057 92.7778 145.057 92.7778 145.057C92.7778 145.057 92.7779 145.057 92.7779 145.057C92.7779 145.057 92.7779 145.057 92.778 145.057C92.778 145.057 92.778 145.057 92.778 145.057C92.778 145.057 92.7781 145.057 92.7781 145.057C92.7781 145.057 92.7781 145.057 92.7782 145.057C92.7782 145.057 92.7782 145.057 92.7782 145.057C92.7783 145.057 92.7783 145.057 92.7783 145.057C92.7783 145.057 92.7783 145.057 92.7784 145.057C92.7784 145.057 92.7784 145.057 92.7784 145.057C92.7785 145.057 92.7785 145.057 92.7785 145.057C92.7785 145.057 92.7785 145.057 92.7786 145.057C92.7786 145.057 92.7786 145.057 92.7786 145.057C92.7787 145.057 92.7787 145.057 92.7787 145.057C92.7787 145.057 92.7788 145.057 92.7788 145.057C92.7788 145.057 92.7788 145.057 92.7788 145.057C92.7789 145.057 92.7789 145.057 92.7789 145.057C92.7789 145.057 92.779 145.057 92.779 145.057C92.779 145.057 92.779 145.057 92.779 145.057C92.7791 145.057 92.7791 145.057 92.7791 145.057C92.7791 145.057 92.7792 145.057 92.7792 145.057C92.7792 145.057 92.7792 145.057 92.7793 145.057C92.7793 145.057 92.7793 145.057 92.7793 145.057C92.7793 145.057 92.7794 145.057 92.7794 145.057C92.7794 145.057 92.7794 145.057 92.7795 145.057C92.7795 145.057 92.7795 145.057 92.7795 145.057C92.7795 145.057 92.7796 145.057 92.7796 145.057C92.7796 145.057 92.7796 145.057 92.7797 145.057C92.7797 145.057 92.7797 145.057 92.7797 145.057C92.7798 145.057 92.7798 145.057 92.7798 145.057C92.7798 145.057 92.7798 145.057 92.7799 145.057C92.7799 145.057 92.7799 145.057 92.7799 145.057C92.78 145.057 92.78 145.057 92.78 145.057C92.78 145.057 92.7801 145.057 92.7801 145.057C92.7801 145.057 92.7801 145.057 92.7801 145.057C92.7802 145.057 92.7802 145.057 92.7802 145.057C92.7802 145.057 92.7803 145.057 92.7803 145.057C92.7803 145.057 92.7803 145.057 92.7803 145.057C92.7804 145.057 92.7804 145.057 92.7804 145.057C92.7804 145.057 92.7805 145.057 92.7805 145.057C92.7805 145.057 92.7805 145.057 92.7805 145.057C92.7806 145.057 92.7806 145.057 92.7806 145.057C92.7806 145.057 92.7807 145.057 92.7807 145.057C92.7807 145.057 92.7807 145.057 92.7808 145.057C92.7808 145.057 92.7808 145.057 92.7808 145.057C92.7808 145.057 92.7809 145.057 92.7809 145.057C92.7809 145.057 92.7809 145.057 92.781 145.057C92.781 145.057 92.781 145.057 92.781 145.057C92.781 145.057 92.7811 145.057 92.7811 145.057C92.7811 145.057 92.7811 145.057 92.7812 145.057C92.7812 145.057 92.7812 145.057 92.7812 145.057C92.7813 145.057 92.7813 145.057 92.7813 145.057C92.7813 145.057 92.7813 145.057 92.7814 145.057C92.7814 145.057 92.7814 145.057 92.7814 145.057C92.7815 145.057 92.7815 145.057 92.7815 145.057C92.7815 145.057 92.7815 145.057 92.7816 145.057C92.7816 145.057 92.7816 145.057 92.7816 145.057C92.7817 145.057 92.7817 145.057 92.7817 145.057C92.7817 145.057 92.7817 145.057 92.7818 145.057C92.7818 145.057 92.7818 145.057 92.7818 145.057C92.7819 145.057 92.7819 145.057 92.7819 145.057C92.7819 145.057 92.782 145.057 92.782 145.057C92.782 145.057 92.782 145.057 92.782 145.057C92.7821 145.057 92.7821 145.057 92.7821 145.057C92.7821 145.057 92.7822 145.057 92.7822 145.057C92.7822 145.057 92.7822 145.057 92.7822 145.057C92.7823 145.057 92.7823 145.057 92.7823 145.057C92.7823 145.057 92.7824 145.057 92.7824 145.057C92.7824 145.057 92.7824 145.057 92.7824 145.057C92.7825 145.057 92.7825 145.057 92.7825 145.057C92.7825 145.057 92.7826 145.057 92.7826 145.057C92.7826 145.057 92.7826 145.057 92.7827 145.057C92.7827 145.057 92.7827 145.057 92.7827 145.057C92.7827 145.057 92.7828 145.057 92.7828 145.057C92.7828 145.057 92.7828 145.057 92.7829 145.057C92.7829 145.057 92.7829 145.057 92.7829 145.057C92.7829 145.057 92.783 145.057 92.783 145.057C92.783 145.057 92.783 145.057 92.7831 145.057C92.7831 145.057 92.7831 145.057 92.7831 145.057C92.7831 145.057 92.7832 145.057 92.7832 145.057C92.7832 145.057 92.7832 145.057 92.7833 145.057C92.7833 145.057 92.7833 145.057 92.7833 145.057C92.7833 145.057 92.7834 145.057 92.7834 145.057C92.7834 145.057 92.7834 145.057 92.7835 145.057C92.7835 145.057 92.7835 145.057 92.7835 145.057C92.7835 145.057 92.7836 145.057 92.7836 145.057C92.7836 145.057 92.7836 145.057 92.7837 145.057C92.7837 145.057 92.7837 145.057 92.7837 145.057C92.7838 145.057 92.7838 145.057 92.7838 145.057C92.7838 145.057 92.7838 145.057 92.7839 145.057C92.7839 145.057 92.7839 145.057 92.7839 145.057C92.784 145.057 92.784 145.057 92.784 145.057C92.784 145.057 92.784 145.057 92.7841 145.057C92.7841 145.057 92.7841 145.057 92.7841 145.057C92.7842 145.057 92.7842 145.057 92.7842 145.057C92.7842 145.057 92.7842 145.057 92.7843 145.057C92.7843 145.057 92.7843 145.057 92.7843 145.057C92.7844 145.057 92.7844 145.057 92.7844 145.057C92.7844 145.057 92.7844 145.057 92.7845 145.057C92.7845 145.057 92.7845 145.057 92.7845 145.057C92.7846 145.057 92.7846 145.057 92.7846 145.057C92.7846 145.057 92.7846 145.057 92.7847 145.057C92.7847 145.057 92.7847 145.057 92.7847 145.057C92.7848 145.057 92.7848 145.057 92.7848 145.057C92.7848 145.057 92.7848 145.057 92.7849 145.057C92.7849 145.057 92.7849 145.057 92.7849 145.057C92.785 145.057 92.785 145.057 92.785 145.057C92.785 145.057 92.785 145.057 92.7851 145.057C92.7851 145.057 92.7851 145.057 92.7851 145.057C92.7852 145.057 92.7852 145.057 92.7852 145.057C92.7852 145.057 92.7852 145.057 92.7853 145.057C92.7853 145.057 92.7853 145.057 92.7853 145.057C92.7854 145.057 92.7854 145.057 92.7854 145.057C92.7854 145.057 92.7854 145.057 92.7855 145.057C92.7855 145.057 92.7855 145.057 92.7855 145.057C92.7856 145.057 92.7856 145.057 92.7856 145.057C92.7856 145.057 92.7856 145.057 92.7857 145.057C92.7857 145.057 92.7857 145.057 92.7857 145.057C92.7858 145.057 92.7858 145.057 92.7858 145.057C92.7858 145.057 92.7858 145.057 92.7859 145.057C92.7859 145.057 92.7859 145.057 92.7859 145.057C92.786 145.057 92.786 145.057 92.786 145.057C92.786 145.057 92.786 145.057 92.7861 145.057C92.7861 145.057 92.7861 145.057 92.7861 145.057C92.7861 145.057 92.7862 145.057 92.7862 145.057C92.7862 145.057 92.7862 145.057 92.7863 145.057C92.7863 145.057 92.7863 145.057 92.7863 145.057C92.7863 145.057 92.7864 145.057 92.7864 145.057C92.7864 145.057 92.7864 145.057 92.7865 145.057C92.7865 145.057 92.7865 145.057 92.7865 145.057C92.7865 145.057 92.7866 145.057 92.7866 145.057C92.7866 145.057 92.7866 145.057 92.7867 145.057C92.7867 145.057 92.7867 145.057 92.7867 145.057C92.7867 145.057 92.7868 145.057 92.7868 145.057C92.7868 145.057 92.7868 145.057 92.7869 145.057C92.7869 145.057 92.7869 145.057 92.7869 145.057C92.7869 145.057 92.787 145.057 92.787 145.057C92.787 145.057 92.787 145.057 92.787 145.057C92.7871 145.057 92.7871 145.057 92.7871 145.057C92.7871 145.057 92.7872 145.057 92.7872 145.057C92.7872 145.057 92.7872 145.057 92.7872 145.057C92.7873 145.057 92.7873 145.057 92.7873 145.057C92.7873 145.057 92.7874 145.057 92.7874 145.057C92.7874 145.057 92.7874 145.057 92.7874 145.057C92.7875 145.057 92.7875 145.057 92.7875 145.057C92.7875 145.057 92.7875 145.057 92.7876 145.057C92.7876 145.057 92.7876 145.057 92.7876 145.057C92.7877 145.057 92.7877 145.057 92.7877 145.057C92.7877 145.057 92.7877 145.057 92.7878 145.057C92.7878 145.057 92.7878 145.057 92.7878 145.057C92.7879 145.057 92.7879 145.057 92.7879 145.057C92.7879 145.057 92.7879 145.057 92.788 145.057C92.788 145.057 92.788 145.057 92.788 145.057C92.788 145.057 92.7881 145.057 92.7881 145.057C92.7881 145.057 92.7881 145.057 92.7882 145.057C92.7882 145.057 92.7882 145.057 92.7882 145.057C92.7882 145.057 92.7883 145.057 92.7883 145.057C92.7883 145.057 92.7883 145.057 92.7884 145.057C92.7884 145.057 92.7884 145.057 92.7884 145.057C92.7884 145.057 92.7885 145.057 92.7885 145.057C92.7885 145.057 92.7885 145.057 92.7885 145.057C92.7886 145.057 92.7886 145.057 92.7886 145.057C92.7886 145.057 92.7887 145.057 92.7887 145.057C92.7887 145.057 92.7887 145.057 92.7887 145.057C92.7888 145.057 92.7888 145.057 92.7888 145.057C92.7888 145.057 92.7888 145.057 92.7889 145.057C92.7889 145.057 92.7889 145.057 92.7889 145.057C92.789 145.057 92.789 145.057 92.789 145.057C92.789 145.057 92.789 145.057 92.7891 145.057C92.7891 145.057 92.7891 145.057 92.7891 145.057C92.7891 145.057 92.7892 145.057 92.7892 145.057C92.7892 145.057 92.7892 145.057 92.7893 145.057C92.7893 145.057 92.7893 145.057 92.7893 145.057C92.7893 145.057 92.7894 145.057 92.7894 145.057C92.7894 145.057 92.7894 145.057 92.7894 145.057C92.7895 145.057 92.7895 145.057 92.7895 145.057C92.7895 145.057 92.7896 145.057 92.7896 145.057C92.7896 145.057 92.7896 145.057 92.7896 145.057C92.7897 145.057 92.7897 145.057 92.7897 145.057C92.7897 145.057 92.7897 145.057 92.7898 145.057C92.7898 145.057 92.7898 145.057 92.7898 145.057C92.7898 145.057 92.7899 145.057 92.7899 145.057C92.7899 145.057 92.7899 145.057 92.79 145.057C92.79 145.057 92.79 145.057 92.79 145.057C92.79 145.057 92.7901 145.057 92.7901 145.057C92.7901 145.057 92.7901 145.057 92.7901 145.057C92.7902 145.057 92.7902 145.057 92.7902 145.057C92.7902 145.057 92.7903 145.057 92.7903 145.057C92.7903 145.057 92.7903 145.057 92.7903 145.057C92.7904 145.057 92.7904 145.057 92.7904 145.057C92.7904 145.057 92.7904 145.057 92.7905 145.057C92.7905 145.057 92.7905 145.057 92.7905 145.057C92.7905 145.057 92.7906 145.057 92.7906 145.057C92.7906 145.057 92.7906 145.057 92.7907 145.057C92.7907 145.057 92.7907 145.057 92.7907 145.057C92.7907 145.057 92.7908 145.057 92.7908 145.057C92.7908 145.057 92.7908 145.057 92.7908 145.057C92.7909 145.057 92.7909 145.057 92.7909 145.057C92.7909 145.057 92.7909 145.057 92.791 145.057C92.791 145.057 92.791 145.057 92.791 145.057C92.791 145.057 92.7911 145.057 92.7911 145.057C92.7911 145.057 92.7911 145.057 92.7912 145.057C92.7912 145.057 92.7912 145.057 92.7912 145.057C92.7912 145.057 92.7913 145.057 92.7913 145.057C92.7913 145.057 92.7913 145.057 92.7913 145.057C92.7914 145.057 92.7914 145.057 92.7914 145.057C92.7914 145.057 92.7914 145.057 92.7915 145.057C92.7915 145.057 92.7915 145.057 92.7915 145.057C92.7916 145.057 92.7916 145.057 92.7916 145.057C92.7916 145.057 92.7916 145.057 92.7917 145.057C92.7917 145.057 92.7917 145.057 92.7917 145.057C92.7917 145.057 92.7918 145.057 92.7918 145.057C92.7918 145.057 92.7918 145.057 92.7918 145.057C92.7919 145.057 92.7919 145.057 92.7919 145.057C92.7919 145.057 92.7919 145.057 92.792 145.057C92.792 145.057 92.792 145.057 92.792 145.057C92.792 145.057 92.7921 145.057 92.7921 145.057C92.7921 145.057 92.7921 145.057 92.7921 145.057C92.7922 145.057 92.7922 145.057 92.7922 145.057C92.7922 145.057 92.7923 145.057 92.7923 145.057C92.7923 145.057 92.7923 145.057 92.7923 145.057C92.7924 145.057 92.7924 145.057 92.7924 145.057C92.7924 145.057 92.7924 145.057 92.7925 145.057C92.7925 145.057 92.7925 145.057 92.7925 145.057C92.7925 145.057 92.7926 145.057 92.7926 145.057C92.7926 145.057 92.7926 145.057 92.7926 145.057C92.7927 145.057 92.7927 145.057 92.7927 145.057C92.7927 145.057 92.7927 145.057 92.7928 145.057C92.7928 145.057 92.7928 145.057 92.7928 145.057C92.7928 145.057 92.7929 145.057 92.7929 145.057C92.7929 145.057 92.7929 145.057 92.7929 145.057V144.057ZM92.7591 144.057L92.3119 143.163L92.3067 143.165L92.7539 144.06L93.2011 144.954L93.2063 144.951L92.7591 144.057Z" fill="#007058" mask="url(#path-19-inside-1_54469_12770)"/>
<mask id="path-21-inside-2_54469_12770" fill="white">
<path d="M99.4319 128.172C99.0725 128.172 98.7105 128.166 98.351 128.153C98.2078 128.148 98.0958 128.028 98.101 127.885C98.1062 127.742 98.2391 127.63 98.3693 127.635C103.875 127.828 109.334 126.515 114.15 123.835C114.275 123.765 114.434 123.812 114.504 123.937C114.575 124.062 114.528 124.221 114.403 124.291C109.819 126.841 104.664 128.174 99.4293 128.174L99.4319 128.172Z"/>
</mask>
<path d="M99.4319 128.172C99.0725 128.172 98.7105 128.166 98.351 128.153C98.2078 128.148 98.0958 128.028 98.101 127.885C98.1062 127.742 98.2391 127.63 98.3693 127.635C103.875 127.828 109.334 126.515 114.15 123.835C114.275 123.765 114.434 123.812 114.504 123.937C114.575 124.062 114.528 124.221 114.403 124.291C109.819 126.841 104.664 128.174 99.4293 128.174L99.4319 128.172Z" fill="white"/>
<path d="M99.4319 128.172L100.148 128.87L101.805 127.172H99.4319V128.172ZM98.351 128.153L98.3147 129.153L98.3148 129.153L98.351 128.153ZM98.3693 127.635L98.3293 128.634L98.3343 128.634L98.3693 127.635ZM114.15 123.835L114.636 124.709L114.64 124.707L114.15 123.835ZM114.403 124.291L114.889 125.165L114.893 125.162L114.403 124.291ZM99.4293 128.174L98.7136 127.476L97.0567 129.174H99.4293V128.174ZM99.4319 128.172V127.172C99.0819 127.172 98.7322 127.167 98.3872 127.154L98.351 128.153L98.3148 129.153C98.6887 129.166 99.063 129.172 99.4319 129.172V128.172ZM98.351 128.153L98.3874 127.154C98.793 127.169 99.1153 127.51 99.1003 127.921L98.101 127.885L97.1017 127.849C97.0763 128.547 97.6225 129.128 98.3147 129.153L98.351 128.153ZM98.101 127.885L99.1003 127.921C99.0918 128.156 98.9805 128.336 98.8583 128.447C98.7408 128.553 98.5588 128.643 98.3293 128.634L98.3693 127.635L98.4092 126.636C97.7505 126.61 97.1279 127.128 97.1017 127.849L98.101 127.885ZM98.3693 127.635L98.3343 128.634C104.022 128.834 109.661 127.478 114.636 124.709L114.15 123.835L113.664 122.961C109.007 125.553 103.729 126.822 98.4043 126.636L98.3693 127.635ZM114.15 123.835L114.64 124.707C114.27 124.915 113.825 124.769 113.633 124.427L114.504 123.937L115.376 123.446C115.043 122.854 114.28 122.614 113.66 122.963L114.15 123.835ZM114.504 123.937L113.633 124.427C113.425 124.057 113.57 123.612 113.913 123.419L114.403 124.291L114.893 125.162C115.485 124.829 115.725 124.067 115.376 123.446L114.504 123.937ZM114.403 124.291L113.917 123.417C109.482 125.884 104.495 127.174 99.4293 127.174V128.174V129.174C104.834 129.174 110.156 127.797 114.889 125.165L114.403 124.291ZM99.4293 128.174L100.145 128.873L100.148 128.87L99.4319 128.172L98.7161 127.473L98.7136 127.476L99.4293 128.174Z" fill="#007058" mask="url(#path-21-inside-2_54469_12770)"/>
<mask id="path-23-inside-3_54469_12770" fill="white">
<path d="M102.073 133.576C101.951 133.576 101.844 133.491 101.818 133.368C101.789 133.227 101.88 133.089 102.024 133.061C105.532 132.363 108.873 131.087 111.955 129.274C112.08 129.201 112.239 129.243 112.311 129.365C112.384 129.49 112.343 129.649 112.22 129.722C109.087 131.566 105.691 132.86 102.125 133.571C102.107 133.574 102.091 133.576 102.073 133.576Z"/>
</mask>
<path d="M102.073 133.576C101.951 133.576 101.844 133.491 101.818 133.368C101.789 133.227 101.88 133.089 102.024 133.061C105.532 132.363 108.873 131.087 111.955 129.274C112.08 129.201 112.239 129.243 112.311 129.365C112.384 129.49 112.343 129.649 112.22 129.722C109.087 131.566 105.691 132.86 102.125 133.571C102.107 133.574 102.091 133.576 102.073 133.576Z" fill="white"/>
<path d="M101.818 133.368L100.838 133.568L100.84 133.576L101.818 133.368ZM102.024 133.061L101.828 132.08L101.827 132.08L102.024 133.061ZM111.955 129.274L111.451 128.41L111.448 128.412L111.955 129.274ZM112.311 129.365L113.175 128.861L113.171 128.853L112.311 129.365ZM112.22 129.722L112.727 130.584L112.732 130.581L112.22 129.722ZM102.125 133.571L102.266 134.561L102.294 134.557L102.321 134.552L102.125 133.571ZM102.073 133.576V132.576C102.426 132.576 102.724 132.824 102.796 133.16L101.818 133.368L100.84 133.576C100.963 134.157 101.475 134.576 102.073 134.576V133.576ZM101.818 133.368L102.798 133.169C102.88 133.574 102.616 133.962 102.22 134.041L102.024 133.061L101.827 132.08C101.145 132.217 100.698 132.881 100.838 133.568L101.818 133.368ZM102.024 133.061L102.219 134.042C105.837 133.322 109.284 132.005 112.462 130.136L111.955 129.274L111.448 128.412C108.463 130.168 105.226 131.404 101.828 132.08L102.024 133.061ZM111.955 129.274L112.458 130.138C112.111 130.34 111.661 130.227 111.452 129.877L112.311 129.365L113.171 128.853C112.816 128.258 112.049 128.061 111.451 128.41L111.955 129.274ZM112.311 129.365L111.448 129.869C111.245 129.521 111.359 129.071 111.708 128.863L112.22 129.722L112.732 130.581C113.327 130.227 113.524 129.459 113.175 128.861L112.311 129.365ZM112.22 129.722L111.713 128.86C108.676 130.647 105.385 131.901 101.93 132.591L102.125 133.571L102.321 134.552C105.996 133.819 109.498 132.484 112.727 130.584L112.22 129.722ZM102.125 133.571L101.984 132.581C101.98 132.582 101.976 132.582 101.975 132.583C101.974 132.583 101.973 132.583 101.972 132.583C101.972 132.583 101.972 132.583 101.972 132.583C101.972 132.583 101.972 132.583 101.972 132.583C101.972 132.583 101.972 132.583 101.972 132.583C101.972 132.583 101.972 132.583 101.972 132.583C101.973 132.583 101.974 132.583 101.975 132.583C101.977 132.582 101.98 132.582 101.984 132.581C102.002 132.579 102.033 132.576 102.073 132.576V133.576V134.576C102.131 134.576 102.179 134.572 102.214 134.568C102.23 134.566 102.244 134.564 102.252 134.563C102.256 134.563 102.26 134.562 102.262 134.562C102.265 134.561 102.266 134.561 102.266 134.561L102.125 133.571Z" fill="#007058" mask="url(#path-23-inside-3_54469_12770)"/>
<mask id="path-25-inside-4_54469_12770" fill="white">
<path d="M101.295 138.236C101.183 138.236 101.079 138.16 101.045 138.048C101.006 137.91 101.084 137.767 101.222 137.726C104.462 136.793 107.593 135.475 110.525 133.811C110.65 133.741 110.809 133.785 110.879 133.91C110.95 134.035 110.908 134.194 110.78 134.264C107.814 135.952 104.644 137.285 101.365 138.228C101.342 138.236 101.316 138.239 101.292 138.239L101.295 138.236Z"/>
</mask>
<path d="M101.295 138.236C101.183 138.236 101.079 138.16 101.045 138.048C101.006 137.91 101.084 137.767 101.222 137.726C104.462 136.793 107.593 135.475 110.525 133.811C110.65 133.741 110.809 133.785 110.879 133.91C110.95 134.035 110.908 134.194 110.78 134.264C107.814 135.952 104.644 137.285 101.365 138.228C101.342 138.236 101.316 138.239 101.292 138.239L101.295 138.236Z" fill="white"/>
<path d="M101.295 138.236L102.002 138.943L103.709 137.236H101.295V138.236ZM101.045 138.048L100.083 138.321L100.085 138.329L100.088 138.338L101.045 138.048ZM101.222 137.726L100.945 136.764L100.933 136.768L101.222 137.726ZM110.525 133.811L110.035 132.939L110.032 132.941L110.525 133.811ZM110.78 134.264L110.298 133.388L110.286 133.395L110.78 134.264ZM101.365 138.228L101.089 137.267L101.069 137.273L101.049 137.28L101.365 138.228ZM101.292 138.239L100.585 137.531L98.8779 139.239H101.292V138.239ZM101.295 138.236V137.236C101.624 137.236 101.908 137.449 102.002 137.759L101.045 138.048L100.088 138.338C100.249 138.872 100.742 139.236 101.295 139.236V138.236ZM101.045 138.048L102.007 137.776C102.116 138.163 101.895 138.567 101.511 138.683L101.222 137.726L100.933 136.768C100.272 136.968 99.8949 137.658 100.083 138.321L101.045 138.048ZM101.222 137.726L101.498 138.687C104.814 137.732 108.018 136.384 111.019 134.681L110.525 133.811L110.032 132.941C107.167 134.567 104.109 135.854 100.945 136.765L101.222 137.726ZM110.525 133.811L111.015 134.682C110.66 134.882 110.209 134.758 110.008 134.4L110.879 133.91L111.751 133.42C111.409 132.812 110.64 132.599 110.035 132.939L110.525 133.811ZM110.879 133.91L110.008 134.4C109.815 134.057 109.923 133.595 110.298 133.388L110.78 134.264L111.263 135.14C111.893 134.793 112.085 134.013 111.751 133.42L110.879 133.91ZM110.78 134.264L110.286 133.395C107.388 135.043 104.292 136.346 101.089 137.267L101.365 138.228L101.641 139.189C104.996 138.225 108.239 136.86 111.275 135.133L110.78 134.264ZM101.365 138.228L101.049 137.28C101.109 137.259 101.161 137.25 101.198 137.245C101.236 137.24 101.268 137.239 101.292 137.239V138.239V139.239C101.379 139.239 101.521 139.23 101.681 139.177L101.365 138.228ZM101.292 138.239L101.999 138.946L102.002 138.943L101.295 138.236L100.588 137.529L100.585 137.531L101.292 138.239Z" fill="#007058" mask="url(#path-25-inside-4_54469_12770)"/>
<path d="M94.8337 29.2368C95.2999 32.0914 93.5914 34.9668 93.2606 37.7432C92.9246 40.5561 93.9013 43.7467 92.8308 46.3825C91.776 48.9766 88.8485 50.6045 87.1608 52.9303C85.5277 55.1859 84.9208 58.4754 82.7669 60.3897C80.691 62.2363 77.3521 62.4786 74.8595 63.9345C72.4607 65.3332 70.6271 68.133 67.9028 69.0993C65.2904 70.0239 62.1025 69.0264 59.2427 69.4926C56.3829 69.9588 53.6768 71.92 50.9082 71.8732C48.0171 71.8237 45.3891 69.7505 42.67 69.1853C39.844 68.5993 36.6014 69.4301 34.0464 68.3388C31.3949 67.2058 29.7749 64.2783 27.5089 62.6609C25.1727 60.9914 21.878 60.3767 20.0548 58.254C18.2003 56.0948 18.1144 52.761 16.9033 50.2008C15.7078 47.6744 13.1735 45.4891 12.7099 42.6372C12.2437 39.7826 13.9523 36.9072 14.2831 34.1307C14.6191 31.3178 13.6424 28.1273 14.7129 25.4915C15.7677 22.8974 18.6952 21.2695 20.3829 18.9437C22.016 16.6881 22.6228 13.3986 24.7768 11.4843C26.8526 9.63763 30.1916 9.39541 32.6842 7.93947C35.083 6.54083 36.9166 3.74095 39.6409 2.77466C42.2533 1.85005 45.4412 2.84759 48.301 2.38138C51.1608 1.91516 53.8669 -0.0460552 56.6355 0.000826546C59.5266 0.0503128 62.1545 2.12353 64.8737 2.68871C67.6996 3.27473 70.9423 2.44388 73.4973 3.53519C76.1488 4.66816 77.7688 7.59567 80.0347 9.21309C82.371 10.8826 85.6658 11.4973 87.4889 13.62C89.3434 15.7791 89.4293 19.113 90.6405 21.6732C91.8359 24.1996 94.3701 26.3848 94.8337 29.2368Z" fill="#007058"/>
<path d="M50.2808 48.5548L40.4434 72.8135L29.5356 74.608C29.5356 74.608 48.4733 91.35 64.2594 88.2845C73.6983 86.4509 69.4867 74.8711 69.4867 74.8711L60.4724 72.5791L64.8533 58.8975L50.2808 48.5574V48.5548Z" fill="white"/>
<path d="M69.4868 75.1315C69.466 75.1315 69.4451 75.1289 69.4217 75.1237L60.4074 72.8317C60.3371 72.8134 60.2772 72.7692 60.2433 72.7067C60.2094 72.6442 60.2017 72.5686 60.2225 72.5009L64.546 58.999L50.3982 48.9611L40.6832 72.915C40.6494 72.9984 40.5738 73.0583 40.4853 73.0739L29.5774 74.8684C29.4368 74.8919 29.3014 74.7955 29.2779 74.6549C29.2545 74.5142 29.3509 74.3788 29.4915 74.3553L40.256 72.5842L50.0387 48.461C50.07 48.3881 50.1299 48.3308 50.208 48.3099C50.2835 48.2865 50.3669 48.3021 50.432 48.3464L65.0044 58.6864C65.0982 58.7515 65.1373 58.8713 65.1008 58.9781L60.8033 72.3967L69.5493 74.621C69.69 74.6575 69.7734 74.7981 69.7369 74.9388C69.7082 75.056 69.6014 75.1341 69.4842 75.1341L69.4868 75.1315Z" fill="#007058"/>
<path d="M59.8969 74.556C59.8709 74.556 59.8422 74.5508 59.8136 74.543C59.6781 74.4961 59.6026 74.3503 59.6494 74.2122L60.2225 72.4932C60.2668 72.3578 60.4152 72.2822 60.5507 72.3291C60.6861 72.376 60.7616 72.5219 60.7147 72.6599L60.1417 74.3789C60.1053 74.4883 60.0037 74.556 59.8943 74.556H59.8969Z" fill="#007058"/>
<path d="M53.3413 40.4314C52.3463 39.5016 51.0024 38.8765 49.6455 38.9911C47.5436 39.1656 45.8923 41.1034 45.5043 43.1766C45.1162 45.2498 45.7569 47.3882 46.6867 49.2817C47.2962 50.5214 48.0723 51.7404 49.2522 52.4592C50.432 53.1781 52.0937 53.251 53.1043 52.3134C54.5394 55.1575 56.0448 58.0459 58.3628 60.2312C60.6809 62.4164 63.9965 63.802 67.0828 63.0206C69.6587 62.3695 71.6773 60.3379 73.1046 58.0954C75.4669 54.3892 76.5425 49.9797 76.8525 45.5962C77.1624 41.2128 76.7457 36.8111 76.329 32.4355C75.8992 33.8133 74.2948 34.6311 72.8727 34.3863C71.4481 34.1415 70.2786 33.0007 69.7551 31.6567C69.8801 33.8992 68.6951 36.1678 66.786 37.3503C64.8742 38.5327 62.3165 38.5796 60.3657 37.4675C60.66 38.7333 60.8736 40.0486 60.6444 41.3274C60.2954 43.273 58.4827 45.3202 56.3261 44.4476C55.5969 44.1533 55.4536 43.7184 55.1515 43.049C54.7061 42.0619 54.1435 41.1763 53.3465 40.4314H53.3413Z" fill="white"/>
<path d="M65.309 63.4972C62.8816 63.4972 60.2822 62.4006 58.1803 60.4212C55.9873 58.3558 54.5288 55.7122 53.0155 52.7196C51.8591 53.553 50.2182 53.3551 49.1139 52.6831C47.7856 51.8757 46.9938 50.5031 46.4521 49.3988C45.3087 47.0729 44.905 44.9632 45.2488 43.1296C45.6291 41.0929 47.2569 38.9259 49.6244 38.7306C50.9527 38.6212 52.3748 39.1707 53.5208 40.2412C54.2736 40.9444 54.8856 41.8274 55.3857 42.9421L55.4534 43.0958C55.706 43.6636 55.8441 43.9735 56.4197 44.2079C57.1333 44.497 57.8313 44.4553 58.5007 44.0881C59.4175 43.5828 60.1754 42.4551 60.3864 41.2856C60.6156 40.012 60.3759 38.6707 60.1103 37.5299C60.0868 37.4283 60.1259 37.3241 60.2093 37.2616C60.2926 37.1991 60.4047 37.1939 60.4932 37.2434C62.3529 38.3034 64.8271 38.2591 66.6477 37.1314C68.4683 36.0036 69.6117 33.8106 69.4945 31.6723C69.4866 31.5446 69.5752 31.43 69.7002 31.404C69.8278 31.3779 69.9529 31.4457 69.9972 31.5629C70.5233 32.9094 71.6693 33.9174 72.9169 34.1309C74.2608 34.3627 75.7089 33.5501 76.0814 32.3599C76.1178 32.24 76.235 32.1645 76.3574 32.1775C76.4799 32.1906 76.5788 32.2895 76.5892 32.4119C77.0007 36.7303 77.4253 41.1971 77.1127 45.6144C76.7585 50.5995 75.4849 54.8449 73.3257 58.236C72.1224 60.1243 70.0727 62.5335 67.1478 63.2732C66.5565 63.4242 65.9393 63.4972 65.3116 63.4972H65.309ZM53.1015 52.0528C53.1171 52.0528 53.1327 52.0528 53.1484 52.058C53.2291 52.0736 53.2968 52.1231 53.3359 52.196C54.8804 55.2616 56.339 57.9677 58.5398 60.0409C60.5114 61.898 63.7697 63.5883 67.0175 62.7679C69.7757 62.0699 71.7292 59.7648 72.883 57.9573C74.9979 54.6391 76.2454 50.4744 76.5918 45.5779C76.8809 41.5018 76.5319 37.3632 76.1543 33.3392C75.4354 34.3054 74.1097 34.8628 72.8283 34.6414C71.7083 34.4487 70.6665 33.7064 69.9841 32.6646C69.7602 34.6388 68.6089 36.5245 66.9212 37.5689C65.1032 38.6941 62.6862 38.8269 60.7354 37.9466C60.9568 39.0119 61.1052 40.2047 60.8969 41.3716C60.6572 42.7077 59.8134 43.9527 58.7507 44.5387C57.9511 44.9815 57.076 45.031 56.2243 44.6872C55.4534 44.3746 55.245 43.9032 54.9767 43.3041L54.909 43.1531C54.4298 42.0878 53.875 41.283 53.164 40.6189C52.1248 39.65 50.8486 39.1499 49.6661 39.2463C47.5799 39.4182 46.0953 41.4237 45.7593 43.2208C45.4363 44.9424 45.827 46.9401 46.9183 49.1644C47.4288 50.2062 48.1711 51.4954 49.3848 52.2351C50.4084 52.8602 51.9555 53.0191 52.9244 52.1205C52.9739 52.0762 53.0364 52.0502 53.1015 52.0502V52.0528Z" fill="#007058"/>
<path d="M53.7709 49.4824C53.6641 49.4824 53.5652 49.4173 53.5261 49.3105C52.9427 47.7243 51.5857 46.409 49.9813 45.8751C49.8458 45.8308 49.7703 45.6824 49.8172 45.5469C49.8614 45.4115 50.0099 45.336 50.1453 45.3828C51.9242 45.9715 53.3698 47.3727 54.0157 49.1334C54.0652 49.2688 53.9949 49.4173 53.862 49.4668C53.8334 49.4772 53.8022 49.4824 53.7735 49.4824H53.7709Z" fill="#007058"/>
</svg>
