<svg width="85" height="85" viewBox="0 0 85 85" fill="none" xmlns="http://www.w3.org/2000/svg">
<path d="M84.5 42C84.5 65.196 65.696 84 42.5 84C19.304 84 0.5 65.196 0.5 42C0.5 18.804 19.304 0 42.5 0C65.696 0 84.5 18.804 84.5 42Z" fill="white"/>
<path fill-rule="evenodd" clip-rule="evenodd" d="M42.5 80.5C63.763 80.5 81 63.263 81 42C81 20.737 63.763 3.5 42.5 3.5C21.237 3.5 4 20.737 4 42C4 63.263 21.237 80.5 42.5 80.5ZM42.5 84C65.696 84 84.5 65.196 84.5 42C84.5 18.804 65.696 0 42.5 0C19.304 0 0.5 18.804 0.5 42C0.5 65.196 19.304 84 42.5 84Z" fill="#00A481"/>
<path d="M39.176 55.125C38.8391 55.1254 38.5054 55.0587 38.1941 54.9288C37.8829 54.7988 37.6002 54.6082 37.3623 54.3679L27.5117 44.4457C27.2713 44.2063 27.0802 43.9214 26.9495 43.6073C26.8188 43.2933 26.751 42.9563 26.75 42.6157C26.749 42.2752 26.8149 41.9378 26.9438 41.623C27.0728 41.3082 27.2622 41.0222 27.5012 40.7814C27.7403 40.5406 28.0243 40.3497 28.3368 40.2198C28.6493 40.09 28.9842 40.0236 29.3223 40.0246C29.6604 40.0255 29.995 40.0938 30.3068 40.2255C30.6186 40.3571 30.9014 40.5496 31.1391 40.7917L39.176 48.887L58.296 29.6279C58.7774 29.1451 59.4293 28.8743 60.1087 28.875C60.7881 28.8757 61.4394 29.1479 61.9198 29.6318C62.4002 30.1157 62.6704 30.7719 62.6711 31.4562C62.6717 32.1405 62.4028 32.7972 61.9234 33.282L40.9897 54.3681C40.7518 54.6084 40.4691 54.799 40.1578 54.9289C39.8466 55.0588 39.5129 55.1254 39.176 55.125Z" fill="#00A481"/>
<path d="M42.5 84.125C65.765 84.125 84.625 65.265 84.625 42C84.625 18.735 65.765 -0.125 42.5 -0.125C19.235 -0.125 0.375 18.735 0.375 42C0.375 65.265 19.235 84.125 42.5 84.125Z" stroke="#00A481" stroke-width="0.25"/>
</svg>
