<svg width="19" height="20" viewBox="0 0 19 20" fill="none" xmlns="http://www.w3.org/2000/svg">
<path d="M17.4927 12.5663C16.8113 11.981 16.0452 11.5021 15.2203 11.1461C15.0404 11.0662 14.836 11.061 14.6523 11.1316C14.4685 11.2023 14.3204 11.343 14.2404 11.5228C14.1605 11.7026 14.1553 11.9068 14.226 12.0904C14.2967 12.2741 14.4374 12.4221 14.6174 12.502C15.3042 12.7975 15.9425 13.1951 16.5105 13.6811C16.8262 13.9592 17.0789 14.3013 17.2519 14.6846C17.4248 15.068 17.5139 15.4838 17.5134 15.9043V17.2762C17.5131 17.4728 17.4348 17.6613 17.2957 17.8003C17.1565 17.9393 16.968 18.0176 16.7712 18.0179H2.22641C2.02968 18.0176 1.8411 17.9393 1.70199 17.8003C1.56288 17.6613 1.48459 17.4728 1.48428 17.2762V15.9032C1.48369 15.4826 1.57284 15.0668 1.74578 14.6835C1.91871 14.3001 2.17146 13.958 2.48716 13.68C3.23697 13.022 5.42149 11.4904 9.49794 11.4904C10.8011 11.4919 12.0624 11.0309 13.057 10.1895C14.0516 9.34814 14.7149 8.18111 14.9287 6.89648C15.1424 5.61184 14.8927 4.2931 14.224 3.17536C13.5553 2.05762 12.5111 1.21353 11.2776 0.793574C10.0441 0.373618 8.70145 0.405093 7.48901 0.882387C6.27657 1.35968 5.27315 2.25177 4.65764 3.39962C4.04213 4.54746 3.85453 5.87645 4.1283 7.14966C4.40207 8.42287 5.11941 9.55753 6.15242 10.3514C4.44085 10.6853 2.8419 11.4474 1.50492 12.5663C1.03123 12.9837 0.651989 13.4972 0.39249 14.0726C0.132991 14.648 -0.000809987 15.272 3.68893e-06 15.9032V17.275C0.000628334 17.8649 0.235396 18.4305 0.652794 18.8476C1.07019 19.2648 1.63612 19.4994 2.22641 19.5H16.7736C17.3639 19.4994 17.9298 19.2648 18.3472 18.8476C18.7646 18.4305 18.9994 17.8649 19 17.275V15.9032C19.0006 15.2718 18.8665 14.6475 18.6066 14.072C18.3466 13.4965 17.9669 12.9836 17.4927 12.5663ZM5.49229 6.00167C5.49182 5.20928 5.72655 4.43455 6.16677 3.77551C6.607 3.11646 7.23294 2.60271 7.96541 2.29926C8.69787 1.99581 9.50394 1.91629 10.2816 2.07076C11.0593 2.22524 11.7737 2.60676 12.3344 3.16707C12.8951 3.72738 13.2768 4.44129 13.4314 5.21848C13.586 5.99567 13.5064 6.80122 13.2028 7.5332C12.8991 8.26519 12.385 8.89073 11.7256 9.33067C11.0661 9.77061 10.2908 10.0052 9.49794 10.0047C8.43605 10.0032 7.4181 9.58091 6.66724 8.83053C5.91637 8.08015 5.49385 7.06287 5.49229 6.00167Z" fill="#00A481"/>
</svg>
